<svg xmlns="http://www.w3.org/2000/svg" xmlns:xlink="http://www.w3.org/1999/xlink" width="814.124" height="490.323" viewBox="0 0 814.124 490.323"><defs><style>.a{fill:none;}.b,.n{fill:#c6529a;}.b{opacity:0.12;}.c{clip-path:url(#a);}.d{fill:#24d1c4;}.e{fill:#fd79a8;opacity:0.502;}.f{fill:#b259ae;}.g{clip-path:url(#b);}.h{fill:#ad6461;}.i{fill:#894949;}.j{fill:#ffbfa6;}.k{fill:#fab1a0;}.l{fill:#191412;}.m{fill:#292a2b;}.o{fill:#dd877f;}.p{fill:#aa5e4f;}.q{fill:#ce513c;}.r{fill:#ff510d;}.s{fill:#117c68;}.t{fill:#1e2c68;}.u{fill:#bc6f6f;}.v{fill:#823d3d;}.w{fill:#e8d913;}.x{fill:#151d4c;}.y{fill:#472921;}.z{fill:#fc2b45;}.aa{fill:#d36650;}.ab{fill:#b509a5;}.ac{fill:#82107c;}.ad{fill:#e27260;}.ae{fill:#ff124b;}.af{fill:#ff8fbd;}.ag{fill:#0e6353;}.ah{fill:#bf8c6a;}.ai{fill:#edc0a2;}.aj{fill:#ff3615;}.ak{fill:#a36a6a;}.al{fill:#c11043;}.am{fill:#fff;}.an{fill:#39a1b2;}.ao{fill:#42b8d3;}.ap{fill:#6b302a;}.aq{fill:#e26660;}.ar{fill:#00cec9;}</style><clipPath id="a"><path class="a" d="M755.854,87.6c-17.828-2.324-36.773-1.186-54.606.686-35.6,3.738-74.312,8.4-104.8-10.353-18.75-11.531-32.738-31.176-53.793-37.6-29.336-8.953-58.649,10.8-85.815,25.035C429,79.955,395.67,92.69,364.08,94.741c-41.118,2.669-81.511-8.728-122.712-7.42C199.9,88.64,158.291,98.163,122.141,118.995c-27.18,15.661-51.333,38.1-64.144,66.73s-12.873,63.869,4.292,90.124C71.881,290.523,86,301.569,97.537,314.77c29.063,33.255,9.089,62.857,12.4,101.219,2.7,31.278,27.5,57.538,56.6,69.307,53.056,21.453,109.971,2.16,163.325-7.07a483.006,483.006,0,0,1,193.392,6.007c40.61,9.656,79.824,24.556,120.393,34.384s83.591,14.439,123.823,3.31,77.222-40.378,88.82-80.478c19.011-65.728-32.645-132.411-29.16-200.743,1.33-26.079,7.685-50.432,3.809-77.216-3.034-20.969-11.5-41.86-27.327-55.949C790.271,95.661,773.617,89.912,755.854,87.6Z" transform="translate(-48.845 -38.08)"/></clipPath><clipPath id="b"><path class="a" d="M753.854,87.6c-17.828-2.324-36.773-1.186-54.606.686-35.6,3.738-74.312,8.4-104.8-10.353-18.75-11.531-32.738-31.176-53.793-37.6-29.336-8.953-58.649,10.8-85.815,25.035C427,79.955,393.67,92.69,362.08,94.741c-41.118,2.669-81.511-8.728-122.712-7.42C197.9,88.64,156.291,98.163,120.141,118.995c-27.18,15.661-51.333,38.1-64.144,66.73s-12.873,63.869,4.292,90.124C69.881,290.523,84,301.569,95.537,314.77c29.063,33.255,9.089,62.857,12.4,101.219,2.7,31.278,27.5,57.538,56.6,69.307,53.056,21.453,109.971,2.16,163.325-7.07a483.005,483.005,0,0,1,193.392,6.007c40.61,9.656,79.824,24.556,120.393,34.384s83.591,14.439,123.823,3.31,77.222-40.378,88.82-80.478c19.011-65.728-32.645-132.411-29.16-200.743,1.33-26.079,7.685-50.432,3.809-77.216-3.034-20.969-11.5-41.86-27.327-55.949C788.271,95.661,771.617,89.912,753.854,87.6Z" transform="translate(-46.845 -38.08)"/></clipPath></defs><g transform="translate(-46.845 -38.08)"><path class="b" d="M755.854,87.6c-17.828-2.324-36.773-1.186-54.606.686-35.6,3.738-74.312,8.4-104.8-10.353-18.75-11.531-32.738-31.176-53.793-37.6-29.336-8.953-58.649,10.8-85.815,25.035C429,79.955,395.67,92.69,364.08,94.741c-41.118,2.669-81.511-8.728-122.712-7.42C199.9,88.64,158.291,98.163,122.141,118.995c-27.18,15.661-51.333,38.1-64.144,66.73s-12.873,63.869,4.292,90.124C71.881,290.523,86,301.569,97.537,314.77c29.063,33.255,9.089,62.857,12.4,101.219,2.7,31.278,27.5,57.538,56.6,69.307,53.056,21.453,109.971,2.16,163.325-7.07a483.006,483.006,0,0,1,193.392,6.007c40.61,9.656,79.824,24.556,120.393,34.384s83.591,14.439,123.823,3.31,77.222-40.378,88.82-80.478c19.011-65.728-32.645-132.411-29.16-200.743,1.33-26.079,7.685-50.432,3.809-77.216-3.034-20.969-11.5-41.86-27.327-55.949C790.271,95.661,773.617,89.912,755.854,87.6Z" transform="translate(0.46 0)"/><g transform="translate(49.305 38.08)"><g class="c"><g transform="translate(21.817 75.923)"><g transform="translate(503.974 22.724)"><g transform="translate(34.566)"><path class="d" d="M505.279,348.952l-.868-.48A358.028,358.028,0,0,0,544.368,118.44l.978-.16A359.015,359.015,0,0,1,505.279,348.952Z" transform="translate(-504.411 -118.28)"/></g><g transform="translate(0 26.159)"><g transform="translate(41.624)"><path class="d" d="M547.762,158.248s-7.969-24.225-37.613-17.532C510.149,140.717,522.581,170.36,547.762,158.248Z" transform="translate(-510.149 -139.547)"/></g><g transform="translate(34.179 34.695)"><path class="d" d="M549.154,190.156s-9.546-29.021-45.058-21C504.1,169.155,518.988,204.666,549.154,190.156Z" transform="translate(-504.096 -167.754)"/></g><g transform="translate(27.91 80.984)"><path class="d" d="M542.427,231.761S535.776,201.4,499,205.829C499,205.829,510.389,243.319,542.427,231.761Z" transform="translate(-499 -205.387)"/></g><g transform="translate(8.544 119.721)"><path class="d" d="M534.915,262.564s-10.945-33.272-51.66-24.079C483.255,238.485,500.329,279.2,534.915,262.564Z" transform="translate(-483.255 -236.879)"/></g><g transform="translate(0 146.035)"><path class="d" d="M522.945,294.407s-3.432-36.094-46.636-36.134C476.309,258.273,484.223,303.282,522.945,294.407Z" transform="translate(-476.309 -258.273)"/></g><g transform="translate(78.532 0.774)"><path class="d" d="M540.155,159.179s7.706-24.31,37.421-17.937C577.576,141.241,565.466,171.018,540.155,159.179Z" transform="translate(-540.155 -140.176)"/></g><g transform="translate(77.938 32.289)"><path class="d" d="M539.672,191.113s7.046-29.727,43.11-24.754C582.782,166.359,570.961,203.006,539.672,191.113Z" transform="translate(-539.672 -165.798)"/></g><g transform="translate(70.131 85.88)"><path class="d" d="M533.325,231.522s10.273-29.339,46.244-20.493C579.569,211.029,563.732,246.867,533.325,231.522Z" transform="translate(-533.325 -209.367)"/></g><g transform="translate(60.453 124.22)"><path class="d" d="M525.457,263.508s13.341-32.387,53.277-20.249C578.734,243.259,558.738,282.621,525.457,263.508Z" transform="translate(-525.457 -240.537)"/></g><g transform="translate(46.431 166.994)"><path class="d" d="M514.057,290.545s21.592-29.125,58.6-6.829C572.657,283.715,542.618,318.156,514.057,290.545Z" transform="translate(-514.057 -275.312)"/></g></g></g><g transform="translate(191.438)"><path class="e" d="M312.351,282.874A45.12,45.12,0,0,0,326.7,264.929c1.892-4.283,3.071-9.347,1.031-13.561-2.379-4.909-8.618-7.032-13.98-6.033s-9.934,4.479-13.792,8.336a66.05,66.05,0,0,0-17.891,33.214c-2.708-2.084-3.247-5.947-3.031-9.358.859-13.549,9.891-25.091,19.281-34.9s19.84-19.289,24.859-31.9c.972-2.445,1.729-5.153,1.009-7.683-1.16-4.07-5.947-6.263-10.146-5.737s-7.84,3.128-10.978,5.971a61.518,61.518,0,0,0-17.846,28.9c-3.129-1.37-2.806-5.862-1.924-9.164q3.3-12.334,7.212-24.492c1.959-6.084,4.08-12.224,7.755-17.453,4.15-5.908,10.048-10.325,14.988-15.591s9.1-12.058,8.4-19.242-8.287-13.773-15.016-11.158c-4.01,1.557-6.39,5.6-8.465,9.37q-5.262,9.563-10.527,19.123c-2.434-3.383-1.1-8.063.33-11.978q3.627-9.961,7.256-19.921c1.854-5.091,3.729-10.3,3.852-15.712s-1.819-11.182-6.25-14.3-14.455-1.971-17.293,2.646l-.939-.314c-2.838-4.615-11.969-5.451-16.4-2.332s-6.373,8.884-6.25,14.3,2,10.621,3.852,15.712l7.255,19.921c1.427,3.915,2.765,8.6.331,11.978l-10.528-19.123c-2.074-3.768-4.454-7.813-8.464-9.37-6.729-2.615-14.311,3.972-15.016,11.158s3.46,13.978,8.4,19.242,10.836,9.683,14.988,15.591c3.675,5.229,5.8,11.369,7.755,17.453q3.913,12.153,7.212,24.492c.882,3.3,1.205,7.793-1.925,9.164a61.5,61.5,0,0,0-17.846-28.9c-3.137-2.843-6.777-5.444-10.977-5.971s-8.987,1.667-10.146,5.737c-.721,2.53.036,5.237,1.009,7.683,5.018,12.614,15.469,22.1,24.859,31.9s18.422,21.348,19.281,34.9c.215,3.411-.322,7.274-3.031,9.358a66.05,66.05,0,0,0-17.891-33.214c-3.859-3.857-8.429-7.336-13.792-8.336s-11.6,1.124-13.98,6.033c-2.042,4.214-.861,9.278,1.03,13.561a45.133,45.133,0,0,0,14.349,17.945c11.019,8.16,26.509,12.124,32.058,24.663,2.178,4.921,2.128,11.313-1.738,15.058-6.263-9.584-13.124-19.682-23.658-24.168-5.406-2.3-12.327-2.656-16.573,1.406-4.942,4.727-3.77,13.413.748,18.546s11.331,7.522,17.9,9.406,13.448,3.574,18.814,7.813a23.1,23.1,0,0,1,6.2,7.645c-.513,16.732,1.182,43.62,1.014,49.92-.619,23.041-1.664,46.069-1.571,69.131.027,6.472.186,13.181,2.39,18.994,3.752-5.492,3.881-13.546,3.828-20.867q-.271-36.541-.021-73.086.125-18.27.381-36.539c.012-.91.311-4.268.433-8.073A23.033,23.033,0,0,1,284.8,335.6c5.367-4.239,12.24-5.93,18.814-7.813s13.386-4.272,17.9-9.406,5.69-13.819.748-18.546c-4.246-4.062-11.167-3.709-16.573-1.406-10.534,4.486-17.395,14.583-23.658,24.168-3.866-3.745-3.916-10.137-1.738-15.058C285.842,295,301.333,291.034,312.351,282.874Z" transform="translate(-222.219 -99.805)"/></g><g transform="translate(648.799 34.502)"><path class="e" d="M683.42,315.526A45.117,45.117,0,0,0,699.9,299.515c2.412-4.014,4.215-8.891,2.716-13.326-1.747-5.169-7.671-8.054-13.117-7.732s-10.416,3.2-14.726,6.546a66.062,66.062,0,0,0-21.9,30.719c-2.428-2.406-2.479-6.306-1.838-9.663,2.544-13.335,12.947-23.659,23.49-32.214s22.094-16.659,28.648-28.548c1.271-2.305,2.36-4.9,1.961-7.5-.642-4.185-5.117-6.958-9.349-6.961s-8.17,2.124-11.637,4.552a61.51,61.51,0,0,0-21.318,26.447c-2.935-1.752-2.052-6.167-.764-9.333q4.81-11.825,10.214-23.4c2.7-5.791,5.576-11.618,9.876-16.348,4.856-5.342,11.26-8.988,16.818-13.594s10.54-10.827,10.738-18.043-6.5-14.7-13.506-12.946c-4.172,1.044-7.039,4.76-9.568,8.24q-6.417,8.828-12.833,17.657c-1.993-3.659-.08-8.135,1.823-11.841q4.845-9.43,9.688-18.86c2.476-4.819,4.988-9.748,5.786-15.107s-.408-11.322-4.413-14.971-14.1-3.76-17.489.464l-.893-.427c-2.239-4.934-11.193-6.905-15.978-4.364s-7.433,8.02-7.988,13.41.656,10.787,1.86,16.07l4.708,20.672c.926,4.063,1.669,8.873-1.168,11.925l-8.056-20.288c-1.587-4-3.444-8.309-7.226-10.354-6.351-3.435-14.7,2.153-16.293,9.193s1.686,14.3,5.929,20.142,9.542,10.961,12.924,17.34c2.993,5.648,4.33,12.005,5.513,18.287q2.365,12.546,4.095,25.2c.463,3.385.223,7.883-3.054,8.851a61.5,61.5,0,0,0-14.095-30.906c-2.758-3.212-6.044-6.247-10.145-7.3s-9.124.531-10.784,4.424c-1.031,2.421-.619,5.2.041,7.748,3.4,13.144,12.586,23.859,20.678,34.76s15.61,23.482,14.769,37.032c-.212,3.411-1.228,7.177-4.176,8.905a66.063,66.063,0,0,0-13.6-35.19c-3.346-4.308-7.447-8.331-12.643-9.993s-11.651-.335-14.624,4.239c-2.552,3.926-2.014,9.1-.673,13.584a45.123,45.123,0,0,0,12,19.6c9.913,9.474,24.786,15.342,28.726,28.475,1.546,5.155.7,11.491-3.606,14.723-5.017-10.29-10.562-21.167-20.453-26.934-5.078-2.959-11.9-4.175-16.62-.675-5.493,4.073-5.416,12.838-1.576,18.495s10.3,8.878,16.589,11.568,12.9,5.228,17.69,10.1a23.107,23.107,0,0,1,5.2,8.358c-2.6,16.538-4.277,43.427-5.231,49.657-3.493,22.781-7.408,45.5-10.2,68.393-.782,6.424-1.463,13.1,0,19.143,4.408-4.98,5.544-12.956,6.4-20.225q4.3-36.288,9.111-72.515,2.408-18.113,4.943-36.206c.127-.9.841-4.2,1.439-7.956a23.014,23.014,0,0,1,6.764-6.33c5.854-3.534,12.886-4.353,19.643-5.4s13.816-2.566,18.939-7.095,7.372-13,3.06-18.308c-3.706-4.561-10.618-5.075-16.27-3.466-11.011,3.134-19.08,12.3-26.492,21.022-3.367-4.2-2.619-10.546.157-15.158C655.6,324.243,671.468,322.245,683.42,315.526Z" transform="translate(-594.051 -127.855)"/></g><g transform="translate(0 11.15)"><path class="e" d="M83.059,108.87a25.76,25.76,0,0,1,20.47,18.45c1.228,4.663,1.166,9.8,3.736,13.883,3.169,5.031,9.369,7.02,14.363,10.245a30.672,30.672,0,0,1,13.536,21.136c.957,6.7-.273,13.944,2.825,19.966,3.506,6.816,11.525,10.039,16.2,16.111,5.465,7.094,5.555,16.969,3.866,25.763-1.237,6.444-3.279,13.2-1.124,19.4,2.937,8.448,12.437,12.579,17.738,19.784a23.159,23.159,0,0,1,3.753,19.083c-1.752,6.978-6.791,14.025-4.063,20.683,2.747,6.706,11.551,8.273,16.7,13.374,7.846,7.775,4.657,21.989-3.6,29.331S167.761,365.7,156.9,367.7l-11.937,3.116c-10.456,3.561-21.561,7.166-32.35,4.795s-20.518-13.215-17.471-23.833c2-6.966,8.914-12.636,8.033-19.829-.873-7.142-8.713-10.827-13.652-16.059a23.159,23.159,0,0,1-6.05-18.482c1.1-8.876,7.373-17.123,5.807-25.929-1.148-6.46-6.229-11.356-10.458-16.372C73.05,248.256,68.3,239.6,69.6,230.737c1.113-7.584,6.535-14.315,6.263-21.974-.24-6.768-4.851-12.484-7.293-18.8a30.672,30.672,0,0,1,1.482-25.054c2.781-5.253,7.219-10.02,7.525-15.956.247-4.816-2.319-9.272-3.526-13.94a25.76,25.76,0,0,1,8.844-26.1" transform="translate(-66.582 -108.87)"/><g transform="translate(21.87 23.635)"><path class="f" d="M177.421,464.264a1.232,1.232,0,0,1-1.185-.9l-77.421-276.2c-5.256-18.75-10.69-38.139-14.431-57.62a1.23,1.23,0,1,1,2.416-.464c3.721,19.379,9.142,38.717,14.384,57.42l77.421,276.2a1.23,1.23,0,0,1-1.185,1.562Z" transform="translate(-84.362 -128.085)"/></g></g><g transform="translate(428.015 1.395)"><path class="e" d="M501.343,100.964a25.762,25.762,0,0,1,11.669,24.965c-.686,4.772-2.744,9.485-1.967,14.244.959,5.866,5.9,10.113,9.24,15.027a30.67,30.67,0,0,1,4.236,24.739c-1.728,6.547-5.68,12.737-5.172,19.49.574,7.643,6.706,13.734,8.649,21.149,2.271,8.662-1.491,17.794-6.471,25.235-3.649,5.453-8.16,10.878-8.588,17.426-.584,8.925,6.556,16.429,8.634,25.129A23.159,23.159,0,0,1,517.6,307.4c-4.331,5.745-11.716,10.274-11.8,17.469-.081,7.246,7.418,12.118,10.173,18.822,4.2,10.217-4.274,22.067-14.736,25.614s-21.894,1.189-32.68-1.2l-12.208-1.779c-11.017-.793-22.65-1.8-31.662-8.182s-13.752-20.161-6.812-28.755c4.554-5.637,13.132-8.166,15.122-15.134,1.977-6.919-3.809-13.367-6.321-20.108a23.16,23.16,0,0,1,1.625-19.38c4.474-7.745,13.459-12.9,15.447-21.62,1.458-6.4-1.316-12.884-3.257-19.153-2.649-8.554-3.649-18.379,1-26.032,3.978-6.551,11.593-10.64,14.326-17.8,2.414-6.327.394-13.388.605-20.156a30.675,30.675,0,0,1,11.121-22.5c4.609-3.755,10.551-6.417,13.145-11.765,2.1-4.338,1.475-9.442,2.181-14.212a25.761,25.761,0,0,1,18.309-20.6" transform="translate(-414.555 -100.939)"/><g transform="translate(36.595 24.275)"><path class="f" d="M445.537,466.27a1.347,1.347,0,0,1-.156-.01,1.231,1.231,0,0,1-1.065-1.376L480.565,180.34c2.461-19.315,5.006-39.288,9.149-58.692a1.23,1.23,0,1,1,2.4.514c-4.122,19.3-6.658,39.223-9.112,58.489l-36.25,284.544A1.23,1.23,0,0,1,445.537,466.27Z" transform="translate(-444.306 -120.675)"/></g></g></g></g></g><g transform="translate(46.845 38.08)"><g class="g"><g transform="translate(116.773 44.184)"><g transform="translate(43.516 325.404)"><g transform="translate(1.235 10.456)"><path class="h" d="M178.163,347.053l21.179,179.336c-29.334,15.38-6.336,10.145-6.336,10.145l19.962-6.218-8.744-183.264Z" transform="translate(-178.163 -347.053)"/></g><path class="i" d="M204.036,340.241l-26.877-1.689,1.235,10.456h26.061Z" transform="translate(-177.159 -338.552)"/></g><g transform="translate(166.602 310.999)"><path class="j" d="M277.708,330.462c-.274-2.16-.481-3.621-.481-3.621S277.4,328.3,277.708,330.462Z" transform="translate(-277.227 -326.841)"/></g><g transform="translate(283.22)"><g transform="translate(0 93.601)"><g transform="translate(1.051 53.062)"><g transform="translate(0 1.777)"><path class="k" d="M384.489,194.682c-21.735,29.352-6.255,111.781-6.255,111.781a180.1,180.1,0,0,0,6.99,29.966,2.962,2.962,0,0,0,.91,1.568,1.035,1.035,0,0,0,1.556-.312,1.487,1.487,0,0,0-.009-.745q-1.316-7.2-2.629-14.4,1.965,6.336,3.932,12.669c.357,1.151,1.1,3.1,2.124,2.674,1.077-.3-1.722-8.937-2.583-13.406-.183-.951-.5-2.48.224-2.218.5-.317,2.616,8.02,3.736,12.24.312,1.181.98,3.241,2.038,2.8,1.375-.534-3.775-16.241-2.236-16.341,1.675,7.713,3.935,16.078,5.023,15.988,1.031-.271.916-2.212.665-3.428-.935-4.522-2.544-11.56-3.479-16.081,2.2,3.5,3.817,10.749,4.706,10.784,1.057-.365.181-7.87-2.349-12.712-.883-1.694-1.939-3.3-2.741-5.03-1.9-4.121-2.279-8.758-2.629-13.283,0,0-5.851-81.269,8.514-98.12Z" transform="translate(-372.891 -194.682)"/></g><g transform="translate(79.915)"><path class="k" d="M453.359,193.237C475.175,222.53,459.921,305,459.921,305a180.228,180.228,0,0,1-6.909,29.986,2.959,2.959,0,0,1-.905,1.571,1.037,1.037,0,0,1-1.557-.309,1.486,1.486,0,0,1,.007-.745l2.589-14.4q-1.95,6.339-3.9,12.679c-.354,1.151-1.091,3.108-2.118,2.68-1.078-.294,1.7-8.942,2.546-13.413.181-.952.494-2.481-.23-2.218-.5-.316-2.593,8.027-3.7,12.25-.31,1.183-.972,3.245-2.03,2.811-1.378-.529,3.729-16.251,2.191-16.347-1.654,7.72-3.892,16.089-4.979,16-1.032-.268-.924-2.209-.675-3.427.922-4.524,2.512-11.566,3.434-16.091-2.189,3.509-3.787,10.76-4.677,10.8-1.058-.362-.2-7.868,2.314-12.718.879-1.695,1.931-3.3,2.727-5.037,1.893-4.126,2.256-8.764,2.592-13.29,0,0,5.63-81.284-8.781-98.1Z" transform="translate(-437.861 -193.237)"/></g></g><g transform="translate(18.491 178.622)"><g transform="translate(9.199)"><path class="l" d="M420.808,296.106c-6.721-.545-26.26-.79-26.26-.79l.642,16.744a72.057,72.057,0,0,0,25.279-3.012Z" transform="translate(-394.548 -295.316)"/></g><g transform="translate(0 13.732)"><path class="m" d="M396.91,309.492l8.381,218.733-3.321,1.983c-40.451,21.565,14.267,3.845,14.267,3.845L422.19,306.48A72.058,72.058,0,0,1,396.91,309.492Z" transform="translate(-387.069 -306.48)"/></g></g><g transform="translate(55.453 179.635)"><g transform="translate(5.668)"><path class="l" d="M448.153,308.469l1-11.513-27.127-.816-.3,12.19A130.757,130.757,0,0,0,448.153,308.469Z" transform="translate(-421.727 -296.14)"/></g><g transform="translate(0 12.189)"><path class="m" d="M429.81,529.041l19.4-222.852a130.757,130.757,0,0,1-26.426-.139l-5.668,229.327s23.414,21.714,28.772,19.918S429.81,529.041,429.81,529.041Z" transform="translate(-417.119 -306.05)"/></g></g><path class="n" d="M439.762,150.214s-4.122,5.274-16.63,4.737-16.486-2.037-17.543-4.808c0,0-30.219,7.294-33.554,65.462,0,0,10.491,5.249,21.882,1.371l-7.3,111.35,80.508,2.419-9.354-112.393s18.1-.986,23.078-7.233C480.846,211.119,464.638,147.016,439.762,150.214Z" transform="translate(-372.036 -150.098)"/></g><g transform="translate(17.273)"><path class="h" d="M442.742,76.349a13.688,13.688,0,0,0-13.315-1.125,24.768,24.768,0,0,1-3.686,1.7c-2.084.582-4.292.086-6.442-.156-4.358-.492-9.285.336-12.019,3.765-1.027,1.289-1.685,2.877-2.905,3.985-2.022,1.836-5.03,1.919-7.6,2.832a12.075,12.075,0,0,0-7.824,11.135,24.935,24.935,0,0,1,.032,4.165c-.45,2.715-2.706,4.931-2.888,7.677-.267,4.009,3.884,7.023,4.534,10.988.33,2.02-.288,4.069-.3,6.114a10.807,10.807,0,0,0,10.207,10.486c2.064,2.417,1.123,6.888,3.9,8.438,3.219,1.8,6.592-2.674,10.276-2.819,1.9-.076,3.622,1.027,5.273,1.979a20.1,20.1,0,0,0,9.882,3.123c3.5-.007,7.141-1.642,8.809-4.713a12.465,12.465,0,0,1,1.563-2.761c1.161-1.236,3.016-1.45,4.549-2.175a7.267,7.267,0,0,0,3.908-7.741c-.251-1.28-.856-2.481-1.025-3.775-.748-5.765,7.03-9.852,6.653-15.653a30.275,30.275,0,0,0-.9-3.957c-.793-3.929.843-7.927.892-11.936.062-4.939-3.336-5.5-5.475-8.843C446.4,83.27,447.066,79.343,442.742,76.349Z" transform="translate(-386.079 -74.001)"/><g transform="translate(16.276 66.027)"><path class="k" d="M429.816,139.88a50.645,50.645,0,0,0,3.681,12.967s-4.127,5.276-16.647,4.736c-12.5-.539-16.484-2.039-17.539-4.806,3.165-2.674,5.439-8.066,6.964-14.116a24.368,24.368,0,0,0,4.337.82C416.967,140.3,423.579,141.076,429.816,139.88Z" transform="translate(-399.311 -125.155)"/><path class="o" d="M427.693,127.681a81.668,81.668,0,0,0,.82,14.725c-6.236,1.2-12.849.422-19.2-.4a24.368,24.368,0,0,1-4.337-.82,86.808,86.808,0,0,0,2.156-13.177S422.886,131.081,427.693,127.681Z" transform="translate(-398.009 -127.681)"/></g><g transform="translate(4.077 10.856)"><path class="k" d="M430.128,82.828c5.621-.1,7.426,12.418,13.025,9.183a124.846,124.846,0,0,1,.39,20.026,6.273,6.273,0,0,1,.841-.364,2.06,2.06,0,0,1,1.873.178,2.092,2.092,0,0,1,.538.827,7.1,7.1,0,0,1-.738,6.941,5.9,5.9,0,0,1-3.47,2.128q-.277,1.994-.615,3.979a33.93,33.93,0,0,1-3.916,9.9c-4.311,7.741-14.679,11.046-23.256,8.626s-14.176-10.01-17.367-18.225c-.342-.879-.631-1.772-.905-2.67a7.53,7.53,0,0,1-3.442-.325,5.476,5.476,0,0,1-3.679-4.459,4.051,4.051,0,0,1,3.392-4.332,3.767,3.767,0,0,1,2.063.449,65.676,65.676,0,0,1,.392-14.731,8.63,8.63,0,0,0,1.555,1.421,7.4,7.4,0,0,0,9.491-1.818c1.08-1.454,1.642-3.349,3.113-4.4,1.6-1.144,3.745-.948,5.706-.852,3.113.154,6.582-.223,8.68-2.528,1.627-1.787,2.078-4.373,3.528-6.308A16.084,16.084,0,0,1,430.128,82.828Z" transform="translate(-389.394 -82.827)"/></g><g transform="translate(16.113 20.774)"><g transform="translate(10.382)"><path class="j" d="M407.619,90.89" transform="translate(-407.619 -90.89)"/></g><g transform="translate(14.932 3.325)"><path class="p" d="M419.145,120.46h-7.007a.821.821,0,0,1,0-1.642H418.2L414.827,94.53a.821.821,0,0,1,1.626-.228l3.5,25.223a.821.821,0,0,1-.812.935Z" transform="translate(-411.318 -93.593)"/></g><g transform="translate(9.853 30.058)"><path class="q" d="M416.725,120.609a15.867,15.867,0,0,1-2.985-.266,10.385,10.385,0,0,1-6.383-3.7.821.821,0,0,1,1.306-1,8.741,8.741,0,0,0,5.388,3.081,18.571,18.571,0,0,0,6.62-.125.81.81,0,0,1,.943.677.822.822,0,0,1-.678.942A26.041,26.041,0,0,1,416.725,120.609Z" transform="translate(-407.19 -115.327)"/></g><g transform="translate(26.412 12.522)"><path class="r" d="M433.736,105.012a1.7,1.7,0,0,1-.573-.1,1.665,1.665,0,0,1-.8-.609,12.733,12.733,0,0,0-10.036.289,1.173,1.173,0,0,1-1.007-2.118,15.081,15.081,0,0,1,13.208.246,1.173,1.173,0,0,1,.171,1.969A1.581,1.581,0,0,1,433.736,105.012Z" transform="translate(-420.652 -101.071)"/></g><g transform="translate(0 12.611)"><path class="r" d="M400.351,105.918a1.172,1.172,0,0,1-.768-2.059,11.6,11.6,0,0,1,13.427-1.06,1.172,1.172,0,1,1-1.236,1.991,9.319,9.319,0,0,0-10.657.841A1.161,1.161,0,0,1,400.351,105.918Z" transform="translate(-399.179 -101.143)"/></g><g transform="translate(8.278 18.395)"><ellipse class="s" cx="1.401" cy="1.868" rx="1.401" ry="1.868"/></g><g transform="translate(29.065 18.861)"><path class="s" d="M422.808,108.092c0,1.032.627,1.868,1.4,1.868s1.4-.836,1.4-1.868-.627-1.868-1.4-1.868S422.808,107.062,422.808,108.092Z" transform="translate(-422.808 -106.224)"/></g></g></g></g><g transform="translate(0 30.47)"><g transform="translate(17.054 294.933)"><g transform="translate(0 11.846)"><path class="h" d="M228.475,349.328c13.637,104.393-72.83,147.022-72.83,147.022l3.926,12.108c14.071,38.614,10.205-4.909,10.205-4.909,81.682-48.77,86.745-126.015,85.435-155.367C246.3,349.824,237.387,349.583,228.475,349.328Z" transform="translate(-155.645 -348.183)"/></g><g transform="translate(71.01)"><path class="i" d="M241.932,350.4a106,106,0,0,0-1.081-11.846c-6.049,2.61-27.475,1.689-27.475,1.689.742,3.848,1.337,7.61,1.819,11.3C224.108,351.8,233.019,352.039,241.932,350.4Z" transform="translate(-213.376 -338.552)"/></g></g><g transform="translate(13.1 171.446)"><path class="h" d="M173.51,238.158c-22.274,21.4-21.035,92.31-21.035,92.31a152.52,152.52,0,0,0,1.588,25.972,2.5,2.5,0,0,0,.538,1.437.875.875,0,0,0,1.341-.041,1.258,1.258,0,0,0,.1-.624q-.077-6.186-.154-12.375.742,5.559,1.486,11.119c.135,1.009.477,2.743,1.392,2.53.941-.1-.171-7.7-.256-11.543-.018-.819-.066-2.139.5-1.818.464-.193,1.046,7.055,1.381,10.733.093,1.03.359,2.84,1.3,2.626,1.221-.25-.849-14.074.449-13.94.3,6.669,1,13.961,1.925,14.041.9-.08,1.077-1.713,1.039-2.764-.139-3.9-.485-10-.624-13.9,1.338,3.233,1.661,9.5,2.4,9.657.934-.155,1.264-6.535-.16-10.931-.5-1.536-1.15-3.022-1.572-4.581-1-3.7-.662-7.624-.312-11.447,0,0,6.622-68.582,20.984-80.6Z" transform="translate(-152.43 -238.158)"/><g transform="translate(88.919)"><path class="h" d="M237.031,238.158c22.274,21.4,21.035,92.31,21.035,92.31a152.52,152.52,0,0,1-1.588,25.972,2.5,2.5,0,0,1-.538,1.437.875.875,0,0,1-1.341-.041,1.258,1.258,0,0,1-.1-.624q.077-6.186.154-12.375-.742,5.559-1.486,11.119c-.135,1.009-.477,2.743-1.392,2.53-.941-.1.171-7.7.256-11.543.018-.819.066-2.139-.5-1.818-.464-.193-1.046,7.055-1.381,10.733-.095,1.03-.359,2.84-1.3,2.626-1.221-.25.847-14.074-.449-13.94-.3,6.669-1,13.961-1.925,14.041-.9-.08-1.078-1.713-1.041-2.764.14-3.9.486-10,.625-13.9-1.338,3.233-1.661,9.5-2.4,9.657-.934-.155-1.264-6.535.159-10.931.5-1.536,1.151-3.022,1.573-4.581,1-3.7.662-7.624.312-11.447,0,0-6.622-68.582-20.984-80.6Z" transform="translate(-224.721 -238.158)"/></g></g><path class="t" d="M162.245,228.046c-4.5-1.23-8.429-4.92-9.209-9.515s2.185-9.738,6.739-10.723a17.444,17.444,0,0,1-9.712-32.313,12.741,12.741,0,0,1-1.358-22.8c-3-2.982-4.507-8.935-2.053-12.721,2.467-3.806,7.94-3.411,12.149-4.375-.852-6.592-2.075-12.471,3.464-17.471a13.012,13.012,0,0,1,14.482-1.8c-3.583-1.909,6.278-10.055,7.71-10.583,4.367-1.609,10.285-1.264,13.781,2.012-3.165-2.968,10.268-8.893,12.019-8.963,5.711-.228,12.684,2.491,13.843,8.726a17.4,17.4,0,0,1,12.338-6,17.22,17.22,0,0,1,11.139,3.514c.942.737,6.41,6.574,4.355,7.637a9.475,9.475,0,0,1,13.726,9.793,13.388,13.388,0,0,1,12.373,22.137,19.154,19.154,0,0,1,2.961,32.32,14.989,14.989,0,0,1-7.191,27.115c2.522,2.357,2.109,6.734-.093,9.391s-5.661,3.915-9.033,4.648-6.867,1.069-10.051,2.4c.942-.394-.486,8.074-.953,8.931a11.49,11.49,0,0,1-7.776,5.86c-7.646,1.546-14.875-4.887-22.669-4.742-10.909.2-19.626,8.905-30.7,9.793-8.413.675-19.859-3.2-16.931-13.957C171.408,228.2,166.78,229.287,162.245,228.046Z" transform="translate(-141.78 -98.773)"/><g transform="translate(43.699 57.544)"><path class="u" d="M238.328,162.584a4.632,4.632,0,0,0-4.77,1.245,29.152,29.152,0,0,0-11.7-18.273,16.438,16.438,0,0,1-1.647,1.545,9.038,9.038,0,0,1-5.479,2.169,5.527,5.527,0,0,1-4.823-2.631l-.231.064c-1.007,2.57-2.684,5.188-5.442,5.739-1.183.236-6.7-.389-7.066-2.319l-.087.023a6.043,6.043,0,0,1-8.884,4.359,31.641,31.641,0,0,0-3.834,10.99,4.468,4.468,0,0,0-4.39-.948c-2.46.967-3.39,4.46-2.075,7.8,1.277,3.248,4.2,5.137,6.619,4.354,2.428,13.129,12.511,22.979,24.592,22.979,12.659,0,23.1-10.823,24.866-24.894,2.381.621,5.178-1.241,6.422-4.4C241.717,167.045,240.787,163.551,238.328,162.584Z" transform="translate(-177.308 -145.556)"/><g transform="translate(19.331 51.262)"><g transform="translate(1.59)"><path class="v" d="M216.09,187.233a22.54,22.54,0,0,1-21.773,0,26.672,26.672,0,0,1,1.873,6.659h18.862A61.7,61.7,0,0,1,216.09,187.233Z" transform="translate(-194.317 -187.232)"/></g><g transform="translate(0 6.661)"><path class="h" d="M215.35,192.647H196.488c1.909,12.2-3.464,25-3.464,25,4.48,4.274,8.9,5.663,12.844,5.56,8.594-.225,14.972-7.524,14.972-7.524C214.59,211.107,214.589,199.909,215.35,192.647Z" transform="translate(-193.024 -192.647)"/></g></g></g><g transform="translate(40.124 67.199)"><g transform="translate(0 20.912)"><path class="w" d="M181.845,170.407c-4.112,0-7.444,4.943-7.444,11.044s3.332,11.043,7.444,11.043,7.445-4.945,7.445-11.043S185.957,170.407,181.845,170.407Zm1.016,15.052c-2.2,0-3.975-3.165-3.975-7.07s1.78-7.07,3.975-7.07,3.974,3.166,3.974,7.07S185.055,185.459,182.861,185.459Z" transform="translate(-174.401 -170.407)"/></g><g transform="translate(54.322 19.517)"><path class="w" d="M218.564,180.317c0,6.1,3.333,11.044,7.445,11.044s7.444-4.945,7.444-11.044-3.333-11.044-7.444-11.044S218.564,174.218,218.564,180.317Zm2.454-3.062c0-3.905,1.78-7.07,3.975-7.07s3.975,3.165,3.975,7.07-1.78,7.07-3.975,7.07S221.018,181.161,221.018,177.256Z" transform="translate(-218.564 -169.273)"/></g><g transform="translate(15.369)"><g transform="translate(28.247 11.918)"><path class="x" d="M209.861,164.694a1.3,1.3,0,1,0,1.274-1.6A1.468,1.468,0,0,0,209.861,164.694Z" transform="translate(-209.861 -163.095)"/></g><g transform="translate(8.11 11.693)"><path class="x" d="M193.49,164.553a1.3,1.3,0,1,0,1.221-1.641A1.47,1.47,0,0,0,193.49,164.553Z" transform="translate(-193.49 -162.912)"/></g><g transform="translate(16.871)"><g transform="translate(0.234 0.236)"><path class="y" d="M203.9,175.255l-.037-.01-2.827-.873a.326.326,0,0,1-.228-.346c.021-.191,2.027-19.067,2.085-20.121a.326.326,0,0,1,.651.036c-.057,1.014-1.8,17.484-2.059,19.888l2.57.793a.326.326,0,0,1-.155.632Z" transform="translate(-200.803 -153.598)"/></g><path class="y" d="M204,175.539a.493.493,0,0,1-.1-.011l-.06-.015-2.828-.873a.56.56,0,0,1-.391-.6c0-.023.053-.5.135-1.282.471-4.437,1.9-17.939,1.948-18.823a.555.555,0,0,1,.589-.53.548.548,0,0,1,.381.18.567.567,0,0,1,.148.41c-.034.63-.7,7.076-1.982,19.163l-.057.547,2.384.737a.56.56,0,0,1-.165,1.1Zm-.736-21.663a.092.092,0,0,0-.1.085c-.048.9-1.48,14.408-1.948,18.849-.082.782-.133,1.253-.135,1.283a.09.09,0,0,0,.062.1l2.825.875-.032.232.044-.23a.083.083,0,0,0,.1-.064.089.089,0,0,0-.059-.112l-2.755-.851.1-.931c1.279-12.079,1.943-18.518,1.98-19.138a.105.105,0,0,0-.026-.068C203.313,153.892,203.26,153.882,203.263,153.876Z" transform="translate(-200.612 -153.406)"/></g><g transform="translate(2.64 5.627)"><path class="t" d="M189.52,161.928a.338.338,0,0,1-.112-.034.326.326,0,0,1-.139-.439,6.094,6.094,0,0,1,8.979-2.133.326.326,0,0,1-.383.529,5.44,5.44,0,0,0-8.019,1.9A.324.324,0,0,1,189.52,161.928Z" transform="translate(-188.998 -157.937)"/><path class="t" d="M189.6,162.208a.575.575,0,0,1-.064,0,.536.536,0,0,1-.2-.06.547.547,0,0,1-.276-.325.575.575,0,0,1,.039-.43,6.327,6.327,0,0,1,9.324-2.213.56.56,0,0,1-.654.909,5.208,5.208,0,0,0-7.675,1.82A.561.561,0,0,1,189.6,162.208Zm5.092-3.759a5.757,5.757,0,0,0-1.328.154,5.928,5.928,0,0,0-3.844,3,.088.088,0,0,0-.007.07.08.08,0,0,0,.042.05l.034.012a.1.1,0,0,0,.091-.049,5.674,5.674,0,0,1,8.364-1.985.1.1,0,0,0,.127-.021.094.094,0,0,0-.021-.129A5.942,5.942,0,0,0,194.7,158.449Z" transform="translate(-189.042 -157.98)"/></g><g transform="translate(26.389 5.054)"><path class="t" d="M208.723,159.9a.317.317,0,0,1-.093-.069.325.325,0,0,1,.012-.46,6.091,6.091,0,0,1,9.181.936.326.326,0,0,1-.535.374,5.441,5.441,0,0,0-8.2-.838A.326.326,0,0,1,208.723,159.9Z" transform="translate(-208.306 -157.471)"/><path class="t" d="M217.6,161.1a.557.557,0,0,1-.46-.24,5.209,5.209,0,0,0-7.848-.8.563.563,0,0,1-.627.1.517.517,0,0,1-.165-.122.559.559,0,0,1,.025-.79,6.325,6.325,0,0,1,9.533.974.558.558,0,0,1-.458.879Zm-4.709-2.931a5.552,5.552,0,0,1,.555.027,5.746,5.746,0,0,1,4.078,2.4.1.1,0,0,0,.128.023.092.092,0,0,0,.021-.127,5.856,5.856,0,0,0-8.827-.9.105.105,0,0,0,0,.129l.028.018a.087.087,0,0,0,.1-.015A5.764,5.764,0,0,1,212.893,158.166Z" transform="translate(-208.35 -157.515)"/></g><g transform="translate(12.63 22.701)"><path class="z" d="M210.353,172.075a.438.438,0,0,1,.144.08.46.46,0,0,1,.07.649,8.645,8.645,0,0,1-13.091.433.463.463,0,1,1,.68-.627,7.722,7.722,0,0,0,11.691-.386A.466.466,0,0,1,210.353,172.075Z" transform="translate(-197.12 -171.817)"/><path class="z" d="M203.894,176.3a9.006,9.006,0,0,1-6.546-2.863.7.7,0,0,1,1.023-.948,7.486,7.486,0,0,0,11.338-.371.7.7,0,0,1,.76-.225h0a.763.763,0,0,1,.218.119.7.7,0,0,1,.106.979,9.006,9.006,0,0,1-6.625,3.3C204.079,176.3,203.985,176.3,203.894,176.3Zm-6.033-3.563a.227.227,0,0,0-.167.383,8.528,8.528,0,0,0,6.2,2.711c.087,0,.173,0,.263,0a8.522,8.522,0,0,0,6.272-3.129.224.224,0,0,0-.034-.32.225.225,0,0,0-.319.034,8.065,8.065,0,0,1-5.935,2.958c-.085,0-.172,0-.258,0a8.044,8.044,0,0,1-5.854-2.566A.232.232,0,0,0,197.86,172.74Z" transform="translate(-197.164 -171.861)"/></g><g transform="translate(28.753 17.789)"><path class="aa" d="M221.548,173.505a5.638,5.638,0,1,1-5.637-5.637A5.638,5.638,0,0,1,221.548,173.505Z" transform="translate(-210.272 -167.868)"/></g><g transform="translate(0 18.352)"><path class="aa" d="M198.172,173.964a5.638,5.638,0,1,1-5.637-5.638A5.637,5.637,0,0,1,198.172,173.964Z" transform="translate(-186.896 -168.326)"/></g></g><g transform="translate(60.808 10.916)"><path class="v" d="M224.36,167.812a4.019,4.019,0,0,1,.829-4.982,2.332,2.332,0,0,1,.887-.494,1.788,1.788,0,0,1,1.447.263,2.469,2.469,0,0,1,1.066,1.627,2.084,2.084,0,0,1-.38,1.647,1.452,1.452,0,0,1-1.683.453c-.752-.344-.923-1.305-1.006-1.768l.558-.1c.106.588.262,1.157.684,1.351a.892.892,0,0,0,1-.294,1.506,1.506,0,0,0,.261-1.2,1.882,1.882,0,0,0-.813-1.241,1.219,1.219,0,0,0-.989-.189,1.755,1.755,0,0,0-.669.379,3.428,3.428,0,0,0-.707,4.253Z" transform="translate(-223.837 -162.281)"/></g><g transform="translate(5.216 12.036)"><path class="v" d="M182.9,168.724a4.021,4.021,0,0,0-.829-4.983,2.307,2.307,0,0,0-.888-.493,1.786,1.786,0,0,0-1.445.262,2.469,2.469,0,0,0-1.066,1.627,2.08,2.08,0,0,0,.38,1.647,1.45,1.45,0,0,0,1.683.453c.752-.344.923-1.305,1.006-1.766l-.558-.1c-.106.587-.262,1.156-.684,1.351a.893.893,0,0,1-1-.294,1.5,1.5,0,0,1-.261-1.2,1.885,1.885,0,0,1,.813-1.241,1.223,1.223,0,0,1,.989-.189,1.78,1.78,0,0,1,.669.379,3.429,3.429,0,0,1,.707,4.255Z" transform="translate(-178.642 -163.191)"/></g></g><g transform="translate(27.034 138.505)"><path class="ab" d="M227.571,211.377s-6.378,7.3-14.972,7.524c-3.948.1-8.364-1.285-12.844-5.56,0,0-28.389,17.343-36,37.714,0,0,9.326,8.918,18.161,12.763-3.435,14.153-14.839,36.147-4.776,105.85,0,0,67.739,4.908,78.783-1.228,0,0-.868-82.616-16.9-108.467l19.635-11.29S233.134,211.7,227.571,211.377Z" transform="translate(-163.759 -211.377)"/><g transform="translate(25.154 30.318)"><path class="ac" d="M190.555,246.865a6.352,6.352,0,0,1-1.519-.183,6.439,6.439,0,0,1-4.694-4.84,9.324,9.324,0,0,1,.64-5.055,1.173,1.173,0,0,1,2.2.819,6.854,6.854,0,0,0-.541,3.763,4.108,4.108,0,0,0,2.961,3.037,4.384,4.384,0,0,0,4.143-1.268,4.672,4.672,0,0,0,1.037-4.3,1.173,1.173,0,0,1,2.267-.6,7.08,7.08,0,0,1-1.582,6.493A6.75,6.75,0,0,1,190.555,246.865Z" transform="translate(-184.209 -236.025)"/></g><g transform="translate(54.316 29.46)"><path class="ac" d="M214.576,246.852a6.436,6.436,0,0,1-5.156-2.577,9.279,9.279,0,0,1-1.5-4.87,1.172,1.172,0,0,1,1.092-1.248,1.222,1.222,0,0,1,1.247,1.091,6.836,6.836,0,0,0,1.057,3.648,4.132,4.132,0,0,0,3.95,1.55,4.374,4.374,0,0,0,3.251-2.862,4.677,4.677,0,0,0-.822-4.343,1.171,1.171,0,1,1,1.813-1.483,7.069,7.069,0,0,1,1.235,6.568,6.7,6.7,0,0,1-5.052,4.426A6.071,6.071,0,0,1,214.576,246.852Z" transform="translate(-207.918 -235.327)"/></g></g></g><g transform="translate(149.071 67.296)"><g transform="translate(7.057 134.621)"><path class="k" d="M289.791,238.158c-22.276,21.4-21.035,92.31-21.035,92.31a152.392,152.392,0,0,0,1.588,25.972,2.512,2.512,0,0,0,.536,1.437.877.877,0,0,0,1.342-.041,1.272,1.272,0,0,0,.1-.624q-.077-6.186-.154-12.375.742,5.559,1.486,11.119c.135,1.009.477,2.743,1.392,2.53.941-.1-.171-7.7-.256-11.543-.018-.819-.068-2.139.5-1.818.464-.193,1.046,7.055,1.381,10.733.093,1.03.359,2.84,1.3,2.626,1.221-.25-.849-14.074.448-13.94.305,6.669,1.006,13.961,1.925,14.041.9-.08,1.079-1.713,1.041-2.764-.139-3.9-.485-10-.624-13.9,1.337,3.233,1.66,9.5,2.4,9.657.932-.155,1.263-6.535-.16-10.931-.5-1.536-1.15-3.022-1.573-4.581-1-3.7-.662-7.624-.311-11.447,0,0,6.622-68.582,20.984-80.6Z" transform="translate(-268.711 -238.158)"/><g transform="translate(84.816)"><path class="k" d="M349.976,238.158c22.274,21.4,21.033,92.31,21.033,92.31a152.391,152.391,0,0,1-1.587,25.972,2.5,2.5,0,0,1-.538,1.437.875.875,0,0,1-1.341-.041,1.257,1.257,0,0,1-.1-.624q.076-6.186.154-12.375-.744,5.559-1.486,11.119c-.135,1.009-.477,2.743-1.392,2.53-.941-.1.17-7.7.256-11.543.018-.819.066-2.139-.5-1.818-.464-.193-1.046,7.055-1.381,10.733-.095,1.03-.359,2.84-1.3,2.626-1.223-.25.847-14.074-.449-13.94-.305,6.669-1,13.961-1.925,14.041-.9-.08-1.078-1.713-1.041-2.764.14-3.9.486-10,.625-13.9-1.338,3.233-1.662,9.5-2.4,9.657-.934-.155-1.264-6.535.159-10.931.5-1.536,1.151-3.022,1.573-4.581,1-3.7.662-7.624.311-11.447,0,0-6.621-68.582-20.983-80.6Z" transform="translate(-337.666 -238.158)"/></g></g><g transform="translate(31.299 247.551)"><path class="l" d="M321.96,348.566l-.406-17.7c-6.738-.247-33.134-.9-33.134-.9l2.118,15.816C300.917,347.408,311.5,348.887,321.96,348.566Z" transform="translate(-288.42 -329.969)"/><g transform="translate(2.118 15.816)"><path class="m" d="M290.142,342.827l24.466,182.736-3.23,2.128C271.923,551.027,325.8,530.9,325.8,530.9l-4.239-185.292C311.105,345.929,300.521,344.451,290.142,342.827Z" transform="translate(-290.142 -342.827)"/></g></g><g transform="translate(72.78 247.349)"><path class="l" d="M348.535,350.136l1.128-20.331-27.519,1.066.359,17.7C331.594,347.881,339.977,349.75,348.535,350.136Z" transform="translate(-322.144 -329.805)"/><g transform="translate(0.359 18.616)"><path class="m" d="M338.612,524.4l9.856-177.746c-8.559-.386-16.941-2.255-26.032-1.563l3.777,186.2,10.288,1.17C375.724,535.387,338.612,524.4,338.612,524.4Z" transform="translate(-322.436 -344.939)"/></g></g><path class="l" d="M322.764,129.391s-41.619-3.517-43.377,62.721-16.413,96.134-16.413,96.134H388.417S366.728,209.7,364.383,186.837,357.936,122.943,322.764,129.391Z" transform="translate(-262.974 -128.712)"/><g transform="translate(32.493 18.394)"><g transform="translate(15.319 44.468)"><g transform="translate(2.462)"><path class="o" d="M323.37,191.78c.411-6.757,1.1-11.962,1.1-11.962-8.591,7.568-20.623,6.108-20.623,6.108a21.285,21.285,0,0,1,1.684,7.359C311.744,193.493,317.981,193.476,323.37,191.78Z" transform="translate(-303.847 -179.818)"/></g><g transform="translate(0 11.962)"><path class="k" d="M305.991,191.049c.856,12.349-4.146,26.2-4.146,26.2,5.427,2.2,8.752,4.8,12.325,4.476,8.085-.743,11.641-5.865,11.641-5.865-2.581-5.983-2.518-17.476-1.98-26.314C318.442,191.239,312.2,191.256,305.991,191.049Z" transform="translate(-301.845 -189.543)"/></g></g><path class="k" d="M316.1,143.666s-3.85,13.677-26.646,16.37c0,0-2.586,37.812,25.673,36.962C345.453,196.086,338,154.212,338,154.212S321.393,158.491,316.1,143.666Z" transform="translate(-289.391 -143.666)"/></g><g transform="translate(43.059 30.709)"><g transform="translate(14.086)"><path class="ad" d="M312.936,175.681h-2.684a.819.819,0,0,1-.817-.883L311,154.437a.82.82,0,1,1,1.635.125l-1.5,19.477h1.8a.82.82,0,0,1,0,1.641Z" transform="translate(-309.433 -153.678)"/></g><g transform="translate(3.268 10.588)"><path class="l" d="M302.77,163.921c0,.9-.477,1.633-1.066,1.633s-1.065-.731-1.065-1.633.477-1.635,1.065-1.635S302.77,163.018,302.77,163.921Z" transform="translate(-300.638 -162.286)"/></g><g transform="translate(24.867 10.588)"><ellipse class="l" cx="1.066" cy="1.634" rx="1.066" ry="1.634"/></g><g transform="translate(0.383 4.847)"><path class="l" d="M299.465,161.278a1.157,1.157,0,0,1-.8-.312,1.17,1.17,0,0,1-.063-1.658,5.533,5.533,0,0,1,6.481-1.089,1.173,1.173,0,0,1-1.1,2.07,3.165,3.165,0,0,0-3.658.615A1.174,1.174,0,0,1,299.465,161.278Z" transform="translate(-298.293 -157.619)"/></g><g transform="translate(10.865 21.927)"><path class="ae" d="M311.691,176.329a6.015,6.015,0,0,1-4.611-2.172,1.172,1.172,0,1,1,1.813-1.486,3.592,3.592,0,0,0,5.932-.557,1.172,1.172,0,0,1,2.057,1.124,6.008,6.008,0,0,1-4.656,3.066C312.048,176.322,311.869,176.329,311.691,176.329Z" transform="translate(-306.814 -171.504)"/></g><g transform="translate(23.303 17.267)"><path class="af" d="M325.878,172.192a4.476,4.476,0,1,1-4.476-4.476A4.476,4.476,0,0,1,325.878,172.192Z" transform="translate(-316.926 -167.716)"/></g><g transform="translate(0 17.124)"><path class="af" d="M306.933,172.076a4.476,4.476,0,1,1-4.476-4.476A4.476,4.476,0,0,1,306.933,172.076Z" transform="translate(-297.981 -167.6)"/></g><g transform="translate(20.642 3.98)"><path class="l" d="M315.935,160.385a1.173,1.173,0,0,1-.64-2.156,8.438,8.438,0,0,1,8.267-.438,1.173,1.173,0,1,1-1.063,2.091,6.129,6.129,0,0,0-5.926.315A1.168,1.168,0,0,1,315.935,160.385Z" transform="translate(-314.763 -156.914)"/></g></g><g transform="translate(4.779 99.213)"><g transform="translate(18.276)"><path class="s" d="M305.213,209.875s11.748,9.464,26.76,0c0,0,10.769-1.632,16.316.979s13.706,88.439,16.969,146.2c0,0-29.043,11.095-83.542,0,0,0,4.242-133.8,6.527-141.305S305.213,209.875,305.213,209.875Z" transform="translate(-281.717 -209.371)"/></g><g transform="translate(0 2.614)"><path class="ag" d="M295.9,211.671s-10.443-7.506-29.044,76.038c0,0,11.422,10.769,23.17,5.221Z" transform="translate(-266.859 -211.496)"/></g><g transform="translate(84.848 1.483)"><path class="ag" d="M335.84,210.577s11.1,51.561,11.1,77.343c0,0,11.748,4.568,22.844-.653C369.78,287.266,360.316,210.577,335.84,210.577Z" transform="translate(-335.84 -210.577)"/></g><g transform="translate(41.31 0.504)"><path class="w" d="M300.905,209.781l3.073,2.148s-1.664,56.287,13.032,54.623,9.123-55.35,9.123-55.35l1.533-1.421s9.586,59.821-10.934,59.266S300.905,209.781,300.905,209.781Z" transform="translate(-300.443 -209.781)"/></g></g></g><g transform="translate(394.01 125.321)"><g transform="translate(0 114.924)"><g transform="translate(0 2.036)"><path class="k" d="M471.529,270.973c-18.165,24.979-4.472,94.569-4.472,94.569a152.425,152.425,0,0,0,6.13,25.288,2.5,2.5,0,0,0,.781,1.32.877.877,0,0,0,1.314-.276,1.277,1.277,0,0,0-.012-.631q-1.164-6.078-2.328-12.156,1.709,5.343,3.418,10.685c.31.969.952,2.617,1.815,2.245.909-.258-1.522-7.544-2.282-11.316-.162-.8-.443-2.095.173-1.878.422-.272,2.269,6.763,3.247,10.324.273,1,.852,2.733,1.744,2.355,1.159-.46-3.31-13.7-2.01-13.8,1.472,6.511,3.444,13.566,4.364,13.482.87-.236.759-1.876.538-2.9-.823-3.817-2.235-9.757-3.059-13.573,1.886,2.946,3.306,9.062,4.058,9.084.892-.316.1-6.656-2.079-10.732-.76-1.426-1.664-2.774-2.354-4.234-1.64-3.47-1.991-7.389-2.32-11.213,0,0-5.542-68.678,6.482-83.034Z" transform="translate(-462.107 -270.973)"/></g><g transform="translate(59.718)"><path class="k" d="M523.583,269.318c19.543,23.918,9.787,94.168,9.787,94.168a152.314,152.314,0,0,1-4.7,25.593,2.5,2.5,0,0,1-.7,1.362.876.876,0,0,1-1.327-.2,1.267,1.267,0,0,1-.023-.63q.821-6.135,1.641-12.267L525.445,388.2c-.255.986-.8,2.667-1.686,2.344-.923-.208,1.095-7.618,1.642-11.427.116-.812.323-2.116-.279-1.866-.437-.247-1.886,6.88-2.661,10.49-.218,1.011-.7,2.777-1.609,2.451-1.183-.395,2.533-13.87,1.23-13.893-1.1,6.583-2.677,13.739-3.6,13.707-.882-.187-.864-1.831-.7-2.868.608-3.857,1.684-9.867,2.29-13.725-1.716,3.047-2.791,9.234-3.54,9.3-.908-.264-.469-6.638,1.472-10.832.678-1.466,1.506-2.862,2.112-4.359,1.443-3.557,1.573-7.488,1.685-11.326,0,0,1.669-68.881-11.144-82.537Z" transform="translate(-510.658 -269.318)"/></g></g><g transform="translate(15.515 243.201)"><g transform="translate(3.276)"><path class="ah" d="M498.6,375.5c-1.039.017-21.213-1.9-21.213-1.9l1.231,17.284a155.017,155.017,0,0,0,20.042-1.661C498.793,380.757,498.8,375.5,498.6,375.5Z" transform="translate(-477.384 -373.607)"/></g><g transform="translate(0 15.624)"><path class="ai" d="M479.228,387.97,487.7,506.908l-7.3,7.433c-18.9,19.393,15.379.2,15.379.2s2.911-92.624,3.483-128.23A155.017,155.017,0,0,1,479.228,387.97Z" transform="translate(-474.721 -386.309)"/></g></g><g transform="translate(49.207 242.777)"><path class="ah" d="M525.895,373.262c-6.421,1.456-23.783,2.439-23.783,2.439l1.237,14.075a90.45,90.45,0,0,0,22.379-3.637Z" transform="translate(-502.112 -373.262)"/><g transform="translate(1.237 12.877)"><path class="ai" d="M525.5,383.731a90.45,90.45,0,0,1-22.379,3.637l11.324,128.743,4.22,2.673c27.246,19,5.18-6.48,5.18-6.48Z" transform="translate(-503.118 -383.731)"/></g></g><g transform="translate(6.683)"><path class="aj" d="M538.724,259.136l.327.792c-.6-16.2.273-33.126.6-49.337.119-5.892.288-11.881-1.256-17.57s-5.091-11.146-10.523-13.541-12.828-1.2-15.654,3.985a16.266,16.266,0,0,0-10.688-7.1,30.062,30.062,0,0,0-13.122.592c-5.245,1.257-10.454,3.453-14.1,7.4-5.434,5.888-6.437,14.481-6.674,22.452-.161,5.438-.092,10.88-.022,16.32q.236,18.491.474,36.983l71.084.761" transform="translate(-467.541 -175.886)"/><g transform="translate(5.881 14.714)"><path class="k" d="M532,205.056c-1.335-.455-3.258.3-4.519,1.75a26.352,26.352,0,0,0-.358-6.306s-12.978-4.279-15.079-12.652c0,0-13,15.57-34.33,14.068a49.371,49.371,0,0,1,.346,6.509,3.545,3.545,0,0,0-3.36-1.044c-2.135.665-2.988,4.023-1.9,7.5s3.694,5.755,5.829,5.089c.011,0,.018-.011.03-.015,1.245,8.664,1.836,16.084,10.76,20.172a24.117,24.117,0,0,0,10.859,1.986,27.21,27.21,0,0,0,11.721-2.83c9.864-5,12.1-14.16,14.255-23.049a2.873,2.873,0,0,0,1.5,1.305c2.117.721,4.785-1.488,5.958-4.936S534.113,205.777,532,205.056Z" transform="translate(-472.322 -187.848)"/><g transform="translate(3.039 51.435)"><g transform="translate(0 13.137)"><path class="k" d="M510.134,240.429c-5.769.812-11.688.135-17.009-.085,1.016,21.138-18.332,25.768-18.332,25.768a82.035,82.035,0,0,0,27.666,5.39c14.752.134,23.2-4.571,23.589-4.793-.389-.325-2.283-2.153-10.383-10.464C509.879,250.307,510.293,247.42,510.134,240.429Z" transform="translate(-474.793 -240.344)"/></g><g transform="translate(14.051)"><path class="k" d="M507.507,242.886a55.725,55.725,0,0,1,1.289-13.221,27.21,27.21,0,0,1-11.721,2.83c-4.3.121-6.194-.494-10.859-1.986A57.033,57.033,0,0,1,490.5,242.8C495.819,243.021,501.738,243.7,507.507,242.886Z" transform="translate(-486.216 -229.664)"/></g></g></g><g transform="translate(18.384 28.251)"><g transform="translate(15.716)"><path class="ak" d="M498.945,220.836h-.009l-2.979-.037a.7.7,0,0,1-.689-.786l2.431-20.539a.7.7,0,1,1,1.4.165L496.756,219.4l2.2.028a.7.7,0,0,1-.01,1.406Z" transform="translate(-495.264 -198.854)"/></g><g transform="translate(12.237 22.376)"><path class="ae" d="M497.789,221.461a10.885,10.885,0,0,1-4.684-1.038,1.172,1.172,0,1,1,1.007-2.116,8.873,8.873,0,0,0,9.1-1.01,1.172,1.172,0,1,1,1.447,1.844A11.171,11.171,0,0,1,497.789,221.461Z" transform="translate(-492.436 -217.045)"/></g><g transform="translate(0 4.146)"><path class="aj" d="M483.307,204.889a.82.82,0,0,1-.338-1.567,12.5,12.5,0,0,1,8.771-.552.82.82,0,1,1-.485,1.566,10.848,10.848,0,0,0-7.609.48A.813.813,0,0,1,483.307,204.889Z" transform="translate(-482.487 -202.225)"/></g><g transform="translate(25.096 3.634)"><path class="aj" d="M512.22,205a.818.818,0,0,1-.536-.2,5.978,5.978,0,0,0-7.449-.077.821.821,0,1,1-1.048-1.263,7.575,7.575,0,0,1,9.568.1A.82.82,0,0,1,512.22,205Z" transform="translate(-502.89 -201.808)"/></g><g transform="translate(28.21 9.375)"><path class="l" d="M507.7,208.235c-.012.963-.533,1.738-1.161,1.729s-1.127-.8-1.114-1.759.531-1.738,1.16-1.731S507.71,207.271,507.7,208.235Z" transform="translate(-505.422 -206.475)"/></g><g transform="translate(5.606 9.084)"><path class="l" d="M489.321,208c-.012.963-.533,1.738-1.16,1.731s-1.128-.8-1.116-1.76.531-1.738,1.16-1.729S489.333,207.035,489.321,208Z" transform="translate(-487.045 -206.239)"/></g></g></g><g transform="translate(5.073 105.053)"><path class="ae" d="M528.054,261.869s-8.519,4.952-23.626,4.814a82.035,82.035,0,0,1-27.666-5.39s-10.413,8.127-10.53,17.207l12.223,3.839s-7.506,38.908-9.7,118.215c0,0,38.144,10.428,71.623-3.293,0,0-3.454-74.972-12.476-119.113l10.108-1.506S536.179,266.31,528.054,261.869Z" transform="translate(-466.232 -261.293)"/><g transform="translate(6.524 0.576)"><g transform="translate(55.261)"><path class="o" d="M516.5,261.761l-.037.021C516.643,261.933,516.5,261.761,516.5,261.761Z" transform="translate(-516.463 -261.761)"/></g><g transform="translate(10.988 17.251)"><path class="al" d="M485.256,283.053a4.711,4.711,0,0,1-3.568-1.606,6.243,6.243,0,0,1-1.2-4.567,1.192,1.192,0,0,1,1.248-1.092,1.173,1.173,0,0,1,1.092,1.249,4.031,4.031,0,0,0,.648,2.9,2.378,2.378,0,0,0,2.308.711,2.9,2.9,0,0,0,1.935-1.749,5.971,5.971,0,0,0,.314-1.781,1.194,1.194,0,0,1,1.232-1.108,1.172,1.172,0,0,1,1.108,1.234,8.088,8.088,0,0,1-.47,2.506,5.233,5.233,0,0,1-3.57,3.178A4.651,4.651,0,0,1,485.256,283.053Z" transform="translate(-480.469 -275.786)"/></g><g transform="translate(37.887 16.638)"><path class="al" d="M507.245,282.858a4.648,4.648,0,0,1-3.1-1.151,6.222,6.222,0,0,1-1.8-4.364,1.172,1.172,0,0,1,1.09-1.25,1.2,1.2,0,0,1,1.25,1.09,4.029,4.029,0,0,0,1.034,2.784,2.373,2.373,0,0,0,2.384.391,2.894,2.894,0,0,0,1.679-2,6,6,0,0,0,.071-1.811,1.17,1.17,0,0,1,1.076-1.261,1.185,1.185,0,0,1,1.258,1.078,8.03,8.03,0,0,1-.125,2.541,5.238,5.238,0,0,1-3.107,3.633A4.7,4.7,0,0,1,507.245,282.858Z" transform="translate(-502.338 -275.288)"/></g><g transform="translate(11.149 40.163)"><path class="am" d="M487.048,297.637a3.224,3.224,0,1,1-3.224-3.224A3.224,3.224,0,0,1,487.048,297.637Z" transform="translate(-480.6 -294.413)"/></g><g transform="translate(51.014 6.716)"><path class="am" d="M519.459,270.445a3.225,3.225,0,1,1-3.224-3.224A3.224,3.224,0,0,1,519.459,270.445Z" transform="translate(-513.01 -267.221)"/></g><g transform="translate(28.717 59.757)"><path class="am" d="M501.331,313.567a3.224,3.224,0,1,1-3.224-3.224A3.224,3.224,0,0,1,501.331,313.567Z" transform="translate(-494.883 -310.343)"/></g><g transform="translate(29.054 84.757)"><path class="am" d="M501.606,333.892a3.225,3.225,0,1,1-3.225-3.224A3.224,3.224,0,0,1,501.606,333.892Z" transform="translate(-495.157 -330.668)"/></g><g transform="translate(26.014 115.5)"><path class="am" d="M499.134,358.887a3.224,3.224,0,1,1-3.224-3.225A3.225,3.225,0,0,1,499.134,358.887Z" transform="translate(-492.685 -355.662)"/></g><g transform="translate(53.041 73.271)"><path class="am" d="M521.107,324.554a3.225,3.225,0,1,1-3.224-3.224A3.225,3.225,0,0,1,521.107,324.554Z" transform="translate(-514.658 -321.33)"/></g><g transform="translate(1.352 6.716)"><path class="am" d="M479.083,270.445a3.224,3.224,0,1,1-3.224-3.224A3.223,3.223,0,0,1,479.083,270.445Z" transform="translate(-472.635 -267.221)"/></g><g transform="translate(50 102.324)"><path class="am" d="M518.635,348.175a3.225,3.225,0,1,1-3.225-3.225A3.225,3.225,0,0,1,518.635,348.175Z" transform="translate(-512.186 -344.95)"/></g><g transform="translate(48.65 123.947)"><path class="am" d="M517.536,365.753a3.224,3.224,0,1,1-3.224-3.224A3.224,3.224,0,0,1,517.536,365.753Z" transform="translate(-511.088 -362.529)"/></g><g transform="translate(0 128.676)"><path class="am" d="M477.985,369.6a3.225,3.225,0,1,1-3.225-3.224A3.224,3.224,0,0,1,477.985,369.6Z" transform="translate(-471.536 -366.374)"/></g><g transform="translate(46.96 46.919)"><path class="am" d="M516.163,303.13a3.224,3.224,0,1,1-3.224-3.224A3.225,3.225,0,0,1,516.163,303.13Z" transform="translate(-509.714 -299.906)"/></g><g transform="translate(2.704 96.92)"><path class="am" d="M480.182,343.78a3.224,3.224,0,1,1-3.224-3.224A3.224,3.224,0,0,1,480.182,343.78Z" transform="translate(-473.734 -340.556)"/></g><g transform="translate(6.419 70.568)"><path class="am" d="M483.2,322.356a3.224,3.224,0,1,1-3.224-3.224A3.223,3.223,0,0,1,483.2,322.356Z" transform="translate(-476.755 -319.132)"/></g><g transform="translate(31.759 29.99)"><path class="am" d="M503.8,289.368a3.224,3.224,0,1,1-3.224-3.225A3.224,3.224,0,0,1,503.8,289.368Z" transform="translate(-497.356 -286.143)"/></g><g transform="translate(22.637 12.085)"><path class="am" d="M496.389,274.81a3.225,3.225,0,1,1-3.225-3.224A3.225,3.225,0,0,1,496.389,274.81Z" transform="translate(-489.94 -271.586)"/></g></g></g></g><g transform="translate(487.152 59.495)"><g transform="translate(0 106.079)"><g transform="translate(0 0.214)"><path class="k" d="M562.778,208.786c-26.361,25.321-24.893,109.243-24.893,109.243a180.333,180.333,0,0,0,1.88,30.737,2.969,2.969,0,0,0,.635,1.7,1.037,1.037,0,0,0,1.588-.048,1.5,1.5,0,0,0,.117-.737q-.092-7.323-.183-14.646.88,6.579,1.759,13.159c.16,1.194.565,3.247,1.648,2.994,1.113-.113-.2-9.106-.3-13.659-.022-.97-.08-2.531.592-2.151.55-.23,1.237,8.351,1.635,12.7.112,1.219.426,3.363,1.542,3.109,1.445-.3-1-16.657.53-16.5.36,7.892,1.191,16.523,2.278,16.616,1.063-.093,1.276-2.028,1.231-3.271-.165-4.619-.573-11.832-.738-16.449,1.583,3.824,1.966,11.245,2.836,11.427,1.1-.182,1.5-7.733-.188-12.936-.589-1.818-1.362-3.576-1.861-5.421-1.189-4.385-.784-9.023-.369-13.546,0,0,7.836-81.166,24.833-95.387Z" transform="translate(-537.831 -208.786)"/></g><g transform="translate(65.545)"><path class="k" d="M605.687,208.612c26.361,25.32,24.892,109.242,24.892,109.242a180.337,180.337,0,0,1-1.878,30.737,2.962,2.962,0,0,1-.636,1.7,1.036,1.036,0,0,1-1.588-.048,1.49,1.49,0,0,1-.116-.737q.09-7.323.182-14.646-.878,6.579-1.759,13.159c-.159,1.194-.563,3.247-1.648,2.994-1.112-.113.2-9.106.3-13.659.021-.969.079-2.531-.593-2.151-.549-.229-1.237,8.351-1.635,12.7-.111,1.218-.424,3.362-1.541,3.108-1.446-.3,1-16.657-.531-16.5-.36,7.892-1.19,16.522-2.278,16.615-1.063-.093-1.276-2.028-1.231-3.271.165-4.618.574-11.832.739-16.449-1.583,3.824-1.966,11.245-2.837,11.427-1.1-.182-1.5-7.733.187-12.936.589-1.818,1.363-3.576,1.862-5.421,1.188-4.385.783-9.022.369-13.546,0,0-7.836-81.166-24.833-95.387Z" transform="translate(-591.119 -208.612)"/></g></g><g transform="translate(22.814 222.218)"><g transform="translate(3.886)"><path class="an" d="M585.223,303.226c-6.732-.386-25.685-.077-25.685-.077l.707,11.375c8.2.961,16.682,1.528,24.946,1.936Z" transform="translate(-559.538 -303.032)"/></g><g transform="translate(0 11.492)"><path class="ao" d="M560.972,312.375l13.341,214.734-3.273,2.06c-39.928,22.519,14.354,3.5,14.354,3.5l.524-218.362C577.654,313.9,569.174,313.336,560.972,312.375Z" transform="translate(-556.379 -312.375)"/></g></g><g transform="translate(59.648 222.435)"><g transform="translate(0.21)"><path class="an" d="M613.1,303.288l-26.586-.08-.015,15.021a106.6,106.6,0,0,0,25.954-4.693Z" transform="translate(-586.496 -303.208)"/></g><g transform="translate(0 10.329)"><path class="ao" d="M598.864,527.255l13.625-215.65a106.6,106.6,0,0,1-25.954,4.693l-.21,217.594s23.923,21.151,29.238,19.229S598.864,527.255,598.864,527.255Z" transform="translate(-586.325 -311.605)"/></g></g><g transform="translate(12.26 82.667)"><path class="l" d="M599.325,189.578s0,10.807-10.92,9.4-10.2-9.239-10.2-9.239S561.894,194.13,551,219.381c-.977,2.263-2.374,4.289-3.2,6.529l15.7,2.844s-3.422,29.961-11.516,100.461l75.448.228S618.3,247.89,614.172,226.4l16.407-1.8a61.476,61.476,0,0,0-3.4-5.817C622.73,211.929,611.559,194.446,599.325,189.578Z" transform="translate(-547.799 -189.578)"/></g><g transform="translate(22.508)"><g transform="translate(20.152 63.216)"><g transform="translate(0 12.142)"><path class="k" d="M592.331,183.97a37.687,37.687,0,0,1-17.06-.335,41.807,41.807,0,0,1-2.747,7.472s-.722,7.832,10.2,9.239,10.92-9.4,10.92-9.4A35.244,35.244,0,0,1,592.331,183.97Z" transform="translate(-572.514 -183.635)"/></g><g transform="translate(2.757)"><path class="ao" d="M591.815,186.24a56.624,56.624,0,0,1,.348-12.476c-5.159,1.244-10.476,2.118-16.126.59a35.729,35.729,0,0,1-1.283,11.551A37.687,37.687,0,0,0,591.815,186.24Z" transform="translate(-574.755 -173.764)"/><g transform="translate(12.101 1.053)"><path class="ao" d="M584.593,181.231s7.049-8.812,17.956-6.09A18.588,18.588,0,0,1,584.593,181.231Z" transform="translate(-584.593 -174.62)"/></g><g transform="translate(12.137 6.412)"><path class="ao" d="M584.622,180.82s10.036-5.159,18.876,1.786A18.589,18.589,0,0,1,584.622,180.82Z" transform="translate(-584.622 -178.977)"/></g></g></g><g transform="translate(3.641)"><path class="l" d="M563.121,164.721c-4.052-5.28-4.929-12.587-3.169-19.005s5.921-11.993,10.95-16.354c3.638-3.156,7.881-5.8,12.614-6.694s10.009.2,13.4,3.611c3-2.139,7.367-1.362,10.252.926s4.569,5.748,5.888,9.187c1.68,4.38,2.934,9.028,2.653,13.711s-2.276,9.429-6.062,12.2" transform="translate(-559.09 -122.37)"/></g><g transform="translate(0 8.472)"><path class="k" d="M617.729,158.064a2.729,2.729,0,0,0-1.027-1.278,2.944,2.944,0,0,0-1.277-.354,6.9,6.9,0,0,0-3.21.515,74.419,74.419,0,0,0-.535-13.2,4.23,4.23,0,0,0-.449-1.629,4.885,4.885,0,0,0-1.916-1.53,20.3,20.3,0,0,1-5.924-5.278c-1.161-1.517-2.759-5.808-4.905-6.046-2-.223-3.92,3.7-5.247,5.043a29.392,29.392,0,0,1-7.108,5.251c-6.9,3.657-14.875,4.792-22.684,4.977a70.773,70.773,0,0,0-.341,14.693,4.721,4.721,0,0,0-3.834-.282,5.158,5.158,0,0,0-3.108,5.3,5.735,5.735,0,0,0,4.116,4.684,8.352,8.352,0,0,0,4.282-.112c.344,1.563.723,3.119,1.173,4.656.9,3.047,2.047,6.119,4.2,8.453,4.392,4.755,11.666,5.24,18.128,4.864,6.686-.387,14.011-1.7,18.233-6.9,2.151-2.649,3.215-6.007,4-9.328.24-1.014.454-2.033.652-3.057a2.885,2.885,0,0,0,1.016.122,5.42,5.42,0,0,0,2.859-1.347C617.257,164.315,618.994,160.921,617.729,158.064Z" transform="translate(-556.13 -129.258)"/></g><g transform="translate(13.109 23.486)"><g transform="translate(15.878)"><path class="ap" d="M586.379,165.381h-5.862a.82.82,0,0,1-.814-.907l2.344-22.275a.8.8,0,0,1,.9-.731.819.819,0,0,1,.728.9l-2.249,21.368h4.951a.821.821,0,0,1,0,1.642Z" transform="translate(-579.697 -141.464)"/></g><g transform="translate(12.861 24.316)"><path class="aq" d="M583.661,165.276a19.257,19.257,0,0,1-5.845-1.03.821.821,0,0,1,.5-1.565,16.654,16.654,0,0,0,6.063.932,8.5,8.5,0,0,0,5.363-2.154.82.82,0,1,1,1.13,1.188,10.116,10.116,0,0,1-6.392,2.6C584.211,165.269,583.939,165.276,583.661,165.276Z" transform="translate(-577.244 -161.233)"/></g><g transform="translate(0 6.607)"><path class="l" d="M567.608,150.249a.821.821,0,0,1-.41-1.531,14.25,14.25,0,0,1,10.613-1.435.821.821,0,1,1-.412,1.589,12.567,12.567,0,0,0-9.38,1.268A.826.826,0,0,1,567.608,150.249Z" transform="translate(-566.788 -146.836)"/></g><g transform="translate(24.992 5.639)"><path class="l" d="M587.928,148.46a.82.82,0,0,1-.258-1.6,16.084,16.084,0,0,1,10.015-.026.82.82,0,1,1-.508,1.558,14.458,14.458,0,0,0-8.989.025A.83.83,0,0,1,587.928,148.46Z" transform="translate(-587.107 -146.049)"/></g><g transform="translate(6.958 10.805)"><path class="l" d="M574.488,152.178c0,1.066-.458,1.93-1.022,1.93s-1.021-.863-1.021-1.93.458-1.929,1.021-1.929S574.488,151.112,574.488,152.178Z" transform="translate(-572.445 -150.249)"/></g><g transform="translate(27.836 10.579)"><path class="l" d="M591.462,151.994c0,1.065-.458,1.929-1.021,1.929s-1.022-.863-1.022-1.929.458-1.929,1.022-1.929S591.462,150.928,591.462,151.994Z" transform="translate(-589.419 -150.065)"/></g></g></g></g></g></g></g><g transform="translate(49.305 38.08)"><g class="c"><g transform="translate(37.237 171.842)"><g transform="translate(633.418 50.628)"><g transform="translate(40.053)"><path class="d" d="M627.651,486.24l-1.006-.557a414.864,414.864,0,0,0,46.3-266.551l1.134-.185A416.018,416.018,0,0,1,627.651,486.24Z" transform="translate(-626.645 -218.947)"/></g><g transform="translate(0 30.312)"><g transform="translate(48.232)"><path class="ar" d="M676.877,265.259s-9.234-28.07-43.583-20.314C633.294,244.945,647.7,279.3,676.877,265.259Z" transform="translate(-633.294 -243.59)"/></g><g transform="translate(39.604 40.202)"><path class="ar" d="M678.491,302.234S667.429,268.606,626.28,277.9C626.28,277.9,643.536,319.047,678.491,302.234Z" transform="translate(-626.28 -276.274)"/></g><g transform="translate(32.341 93.84)"><path class="ar" d="M670.7,350.443s-7.707-35.185-50.322-30.049C620.375,320.394,633.572,363.834,670.7,350.443Z" transform="translate(-620.375 -319.882)"/></g><g transform="translate(9.899 138.726)"><path class="ar" d="M661.992,386.137s-12.683-38.555-59.862-27.9C602.13,358.235,621.915,405.414,661.992,386.137Z" transform="translate(-602.13 -356.374)"/></g><g transform="translate(0 169.219)"><path class="ar" d="M648.121,423.034s-3.975-41.822-54.039-41.87C594.082,381.164,603.252,433.318,648.121,423.034Z" transform="translate(-594.082 -381.164)"/></g><g transform="translate(91 0.896)"><path class="ar" d="M668.064,266.338s8.929-28.169,43.361-20.785C711.425,245.553,697.393,280.056,668.064,266.338Z" transform="translate(-668.064 -244.319)"/></g><g transform="translate(90.311 37.414)"><path class="ar" d="M667.5,303.342s8.164-34.446,49.954-28.684C717.458,274.658,703.76,317.124,667.5,303.342Z" transform="translate(-667.504 -274.008)"/></g><g transform="translate(81.264 99.514)"><path class="ar" d="M660.149,350.166s11.9-34,53.586-23.746C713.735,326.42,695.383,367.947,660.149,350.166Z" transform="translate(-660.149 -324.494)"/></g><g transform="translate(70.05 143.939)"><path class="ar" d="M651.032,387.23s15.459-37.528,61.736-23.464C712.768,363.766,689.6,409.378,651.032,387.23Z" transform="translate(-651.032 -360.612)"/></g><g transform="translate(53.802 193.505)"><path class="ar" d="M637.823,418.559s25.02-33.748,67.9-7.913C705.725,410.646,670.918,450.554,637.823,418.559Z" transform="translate(-637.823 -400.908)"/></g></g></g><g transform="translate(298.031 85.801)"><g transform="translate(26.919)"><path class="ar" d="M343.975,427.181l-.675-.374a278.825,278.825,0,0,0,31.117-179.139l.761-.124A279.582,279.582,0,0,1,343.975,427.181Z" transform="translate(-343.3 -247.543)"/></g><g transform="translate(0 20.371)"><g transform="translate(32.415)"><path class="ar" d="M377.06,278.669s-6.207-18.866-29.292-13.653C347.768,265.015,357.45,288.1,377.06,278.669Z" transform="translate(-347.768 -264.105)"/></g><g transform="translate(26.618 27.019)"><path class="ar" d="M378.144,303.516s-7.434-22.6-35.089-16.354C343.055,287.162,354.652,314.817,378.144,303.516Z" transform="translate(-343.055 -286.071)"/></g><g transform="translate(21.736 63.067)"><path class="ar" d="M372.905,335.917s-5.18-23.647-33.819-20.2C339.086,315.721,347.954,344.917,372.905,335.917Z" transform="translate(-339.086 -315.377)"/></g><g transform="translate(6.653 93.234)"><path class="ar" d="M367.056,359.906s-8.524-25.912-40.232-18.752C326.824,341.154,340.121,372.861,367.056,359.906Z" transform="translate(-326.824 -339.903)"/></g><g transform="translate(0 113.726)"><path class="ar" d="M357.733,384.7s-2.672-28.107-36.318-28.139C321.415,356.563,327.579,391.615,357.733,384.7Z" transform="translate(-321.415 -356.563)"/></g><g transform="translate(61.158 0.603)"><path class="ar" d="M371.136,279.393s6-18.931,29.141-13.969C400.276,265.424,390.847,288.612,371.136,279.393Z" transform="translate(-371.136 -264.595)"/></g><g transform="translate(60.694 25.146)"><path class="ar" d="M370.759,304.262s5.487-23.149,33.572-19.277C404.331,284.985,395.126,313.525,370.759,304.262Z" transform="translate(-370.759 -284.548)"/></g><g transform="translate(54.614 66.88)"><path class="ar" d="M365.816,335.73s8-22.846,36.014-15.958C401.83,319.772,389.5,347.681,365.816,335.73Z" transform="translate(-365.816 -318.478)"/></g><g transform="translate(47.078 96.737)"><path class="ar" d="M359.689,360.639s10.39-25.22,41.491-15.768C401.18,344.872,385.607,375.525,359.689,360.639Z" transform="translate(-359.689 -342.751)"/></g><g transform="translate(36.159 130.048)"><path class="ar" d="M350.812,381.694s16.814-22.68,45.635-5.317C396.447,376.377,373.055,403.2,350.812,381.694Z" transform="translate(-350.812 -369.833)"/></g></g></g><g transform="translate(0 0)"><g transform="translate(50.768)"><path class="ar" d="M175.807,463.883l1.076-.6a444.058,444.058,0,0,1-49.558-285.3l-1.213-.2A445.284,445.284,0,0,0,175.807,463.883Z" transform="translate(-120.392 -177.787)"/></g><g transform="translate(0 32.445)"><g transform="translate(51.857)"><path class="ar" d="M121.277,227.358s9.883-30.046,46.65-21.743C167.927,205.615,152.509,242.381,121.277,227.358Z" transform="translate(-121.277 -204.165)"/></g><g transform="translate(51.857 43.03)"><path class="ar" d="M121.277,266.933s11.84-35.993,55.884-26.048C177.161,240.885,158.691,284.928,121.277,266.933Z" transform="translate(-121.277 -239.147)"/></g><g transform="translate(61.652 100.441)"><path class="ar" d="M129.241,318.534s8.25-37.661,53.863-32.164C183.1,286.371,168.978,332.868,129.241,318.534Z" transform="translate(-129.241 -285.822)"/></g><g transform="translate(75.462 148.485)"><path class="ar" d="M140.468,356.738s13.576-41.267,64.073-29.864C204.541,326.875,183.365,377.372,140.468,356.738Z" transform="translate(-140.468 -324.882)"/></g><g transform="translate(92.29 181.123)"><path class="ar" d="M154.149,396.232s4.256-44.765,57.841-44.816C211.99,351.416,202.175,407.239,154.149,396.232Z" transform="translate(-154.149 -351.416)"/></g><g transform="translate(6.319 0.959)"><path class="ar" d="M130.666,228.512s-9.557-30.15-46.411-22.247C84.255,206.265,99.274,243.2,130.666,228.512Z" transform="translate(-84.255 -204.944)"/></g><g transform="translate(0 40.046)"><path class="ar" d="M132.586,268.12s-8.739-36.869-53.468-30.7C79.118,237.417,93.779,282.871,132.586,268.12Z" transform="translate(-79.118 -236.722)"/></g><g transform="translate(5.795 106.513)"><path class="ar" d="M141.185,318.238s-12.742-36.388-57.356-25.417C83.829,292.821,103.471,337.27,141.185,318.238Z" transform="translate(-83.829 -290.759)"/></g><g transform="translate(9.074 154.065)"><path class="ar" d="M152.574,357.908S136.028,317.74,86.5,332.794C86.5,332.794,111.3,381.614,152.574,357.908Z" transform="translate(-86.495 -329.418)"/></g><g transform="translate(19.865 207.117)"><path class="ar" d="M167.948,391.441s-26.78-36.122-72.68-8.47C95.268,382.971,132.524,425.687,167.948,391.441Z" transform="translate(-95.268 -372.549)"/></g></g></g></g></g></g></g></svg>