<svg xmlns="http://www.w3.org/2000/svg" width="802.427" height="475.56" viewBox="0 0 802.427 475.56"><defs><style>.a{fill:#bddbf2;}.b{fill:#40c7a1;}.c{fill:#158280;}.d{fill:#2a7d77;}.e,.s{fill:none;stroke:#290920;}.e{stroke-miterlimit:10;}.f{fill:#290920;}.g{fill:#42a3e8;}.h{fill:#209e9b;}.i{fill:#ffb41b;}.j{fill:#004b80;}.k{fill:#24b0ad;}.l{fill:#158a87;}.m{fill:#4bcfcc;}.n{fill:#ff6168;}.o{fill:#69aaeb;}.p{fill:#def0ff;}.q{fill:#fa9778;}.r{fill:#fa7c55;}.s{stroke-linecap:round;stroke-linejoin:round;}.t{fill:#fff;}</style></defs><g transform="translate(249.829 880.927)"><path class="a" d="M-189.591-533.867c28.375-.338,56.75-.484,85.125-.731l85.125-.418c28.375-.18,56.75-.147,85.125-.214l85.125-.136,85.125.133c28.375.072,56.75.029,85.125.212l85.125.418c28.375.249,56.75.4,85.125.736-28.375.34-56.75.486-85.125.735l-85.125.418c-28.375.183-56.75.141-85.125.212l-85.125.133-85.125-.136c-28.375-.067-56.75-.034-85.125-.214l-85.125-.417C-132.841-533.384-161.216-533.53-189.591-533.867Z"/><path class="b" d="M257.742-522.117s-20-16.334-12.333-25.667S257.742-522.117,257.742-522.117Z"/><path class="b" d="M260.409-524.784s-2-19.333,8.333-22-6,23-6,23Z"/><path class="b" d="M296.742-524.117s-17-16.667-11.667-22.334,14.334,20.334,14.334,20.334Z"/><path class="b" d="M304.075-526.784s2.667-20.667,11.334-21-6.667,22.667-6.667,22.667Z"/><path class="b" d="M353.075-526.784s-4-24.333-14.666-23,12.333,24.333,12.333,24.333Z"/><path class="b" d="M357.075-525.784s4.667-26.333,14.334-23.333-10.667,25-10.667,25Z"/><path class="b" d="M357.075-525.784s1.667-27-6.333-29.667-3.333,23.667,2.333,30Z"/><path class="c" d="M260.409-524.784s9.666-22.667-.667-30.333-4,29.333-4,29.333Z"/><path class="d" d="M319.075-528.117s-.666-17.667,5.667-18.334-2,20-2,20Z"/><rect class="a" width="124" height="42.667" rx="2.333" transform="translate(243.075 -528.451)"/><line class="e" x2="114.75" transform="translate(247.159 -520.117)"/><line class="e" x2="114.75" transform="translate(247.159 -508.367)"/><line class="e" x2="114.75" transform="translate(247.159 -496.617)"/><line class="e" x2="1.25" y2="23.625" transform="translate(257.659 -553.242)"/><line class="e" x2="6" y2="15.875" transform="translate(246.909 -545.367)"/><line class="e" x1="6.25" y2="15" transform="translate(263.659 -544.492)"/><line class="e" x2="9" y2="14.5" transform="translate(287.159 -544.367)"/><line class="e" x1="7.75" y2="15.375" transform="translate(307.284 -545.117)"/><line class="e" x2="3.625" y2="23.75" transform="translate(350.534 -553.367)"/><path class="e" d="M369.659-546.742c-.125.625-8.5,17.375-8.5,17.375"/><rect class="a" width="143.333" height="15.576" transform="translate(-81.534 -777.453)"/><rect class="a" width="180.667" height="15.576" transform="translate(-100.201 -676.208)"/><path class="a" d="M-41.019-791.867-112.6-485.618h12.54l71.583-306.25Z"/><path class="a" d="M21.284-791.867H8.744l71.583,306.25h12.54Z"/><rect class="a" width="212" height="15.576" transform="translate(-115.867 -574.964)"/><path class="f" d="M63.117-559.367H75.575l3.292,13.958H66.284Z"/><path class="f" d="M39.471-660.555h12.5L54.6-649.617H41.971Z"/><path class="f" d="M15.721-761.8H28.284l2.375,10.188h-12.5Z"/><path class="f" d="M-82.883-559.367H-95.341l-3.292,13.958h12.583Z"/><path class="f" d="M-59.237-660.555h-12.5l-2.625,10.938h12.625Z"/><path class="f" d="M-35.487-761.8H-48.05l-2.375,10.188h12.5Z"/><path class="g" d="M65.763-574.867H48.906L46.4-602.962H68.268Z"/><path class="h" d="M38.4-639.713a.374.374,0,0,0-.479.526,50.717,50.717,0,0,1,5.056,10.976,22.525,22.525,0,0,0,1.933,5.626,6.342,6.342,0,0,0,1.25,1.489,3.461,3.461,0,0,0,5.622-1.931c.953-4.242-1.074-8.675-4.138-11.732C44.925-637.473,41.817-638.245,38.4-639.713Z"/><path class="b" d="M48.757-630.293c-1.158-4.529-.983-9.273-1.2-13.943a29.916,29.916,0,0,0-2.249-11.179.664.664,0,0,1,.959-.843c4.378,2.8,8.586,5.935,11.686,10.079A26.884,26.884,0,0,1,63.1-633.257a16.366,16.366,0,0,1-.661,7.527c-1.154,3.136-4.218,6.929-7.654,4.865C51.6-622.778,49.641-626.833,48.757-630.293Z"/><path class="b" d="M77.337-631a.271.271,0,0,0-.46-.23,36.742,36.742,0,0,1-6.645,5.687,16.282,16.282,0,0,0-3.536,2.456,4.59,4.59,0,0,0-.79,1.164,2.5,2.5,0,0,0,2.454,3.534c3.141-.174,5.828-2.46,7.352-5.2C77.065-626.015,76.99-628.332,77.337-631Z"/><path class="b" d="M49.846-617.756a28.277,28.277,0,0,0-22.1-10.273,1.1,1.1,0,0,0-.847,1.79c2.974,3.706,11.033,12.027,22.284,10.262A1.1,1.1,0,0,0,49.846-617.756Z"/><path class="h" d="M81.874-615.666a18.962,18.962,0,0,0-16.212,2.1.739.739,0,0,0,.161,1.318c3.014,1.035,10.565,2.864,16.311-2.168A.736.736,0,0,0,81.874-615.666Z"/><line class="e" x2="13.5" transform="translate(50.409 -577.617)"/><path class="e" d="M51.075-647.2s8.5,27.667,7.5,44.334"/><path class="e" d="M80.575-615.534s-17.354-.729-21.854,9.1"/><path class="e" d="M42.909-635.7l15.833,31.167c.5-13.167,16.667-23,16.833-23.5"/><path class="e" d="M32.742-625.7s24.386,8.219,25.886,22.052"/><path class="c" d="M8.38-607.752S-14.648-672.3,2.717-680.609,15.175-607,15.175-607Z"/><path class="c" d="M11.148-607.122S-5.213-638.973-8.689-663.068A6.624,6.624,0,0,0-21.2-665c-.039.081-.077.163-.115.246-3.775,8.305,8.054,49.83,29.949,58.387Z"/><path class="c" d="M12.658-608.884s3.524-46.307,19.127-45.8S19.453-619.706,18.95-607.626Z"/><path class="c" d="M8.38-607.752s-20.138-37.2-32.388-34.7,1.5,29.25,27.5,36.5Z"/><path class="i" d="M25.8-607.706a1.188,1.188,0,0,0-1.195-1.161H-11.515a1.188,1.188,0,0,0-1.194,1.161c-.121,5.542-.125,29.183,8.471,32.749a1.253,1.253,0,0,0,.477.09H16.853a1.257,1.257,0,0,0,.477-.09C25.926-578.523,25.922-602.164,25.8-607.706Z"/><line class="e" x2="34" transform="translate(-11.341 -604.367)"/><path class="e" d="M-25.425-638.2s12.5,23.167,25.667,28.334"/><path class="e" d="M-15.091-666.367s6.5,44,22,55"/><path class="e" d="M4.242-678.034s10.833,48,6.667,67.5"/><path class="e" d="M32.075-651.867c-.166.5-17.333,41.833-17.333,41.833"/><path class="b" d="M24.055-704.26s-12.049-44.1-.585-48.666,4.1,49.134,4.1,49.134Z"/><path class="b" d="M24.055-704.26s-4.562-38.722-11.815-40.36,1.053,34.394,9.242,41.179Z"/><path class="b" d="M19.844-702.973s-3.159-22.461-14.507-24.684,12.4,25.62,12.4,25.62Z"/><path class="b" d="M26.98-704.26s3.626-37.9,12.049-37.084S29.9-703.09,29.9-703.09Z"/><path class="b" d="M30.255-704.026s7.6-24.45,17.431-23.28-13.8,24.45-13.8,24.45Z"/><path class="j" d="M39.245-704.6a41.968,41.968,0,0,0-26.116.019,2.183,2.183,0,0,0-1.534,2.068c-.022,4.69.289,18.693,4.6,25.073a2.125,2.125,0,0,0,1.766.911H34.67a2.158,2.158,0,0,0,2.044-1.45c1.308-3.774,4.553-14.331,3.965-24.682A2.173,2.173,0,0,0,39.245-704.6Z"/><line class="e" x1="12" y1="18.667" transform="translate(4.575 -725.867)"/><line class="e" x1="8.833" y1="32.833" transform="translate(11.575 -742.034)"/><line class="e" x1="0.167" y1="40.833" transform="translate(24.242 -750.201)"/><line class="e" y1="29.667" x2="8.333" transform="translate(30.242 -738.867)"/><line class="e" y1="17.167" x2="12.833" transform="translate(34.909 -725.701)"/><line class="e" x2="24.333" transform="translate(13.575 -701.034)"/><line class="e" x2="16" transform="translate(17.909 -678.867)"/><path class="k" d="M-57.322-809.6s-2.054-2.867-.438-9.58a.2.2,0,0,1,.331-.1c1,.983,3.6,4.079,3.83,6.679C-53.338-809.6-57.322-809.6-57.322-809.6Z"/><path class="l" d="M-54.083-814.444a11.114,11.114,0,0,0,2.173-5.13.323.323,0,0,1,.6-.138c1.249,2.065,3.773,7.186.549,10.589Z"/><path class="l" d="M-59.976-802.943s-4.774-3.879-3.2-14.667a.441.441,0,0,1,.683-.3c1.828,1.254,5.532,4.484,6.034,9.217C-55.857-803.029-59.976-802.943-59.976-802.943Z"/><path class="k" d="M-52.424-804.488a32.4,32.4,0,0,1,3.818-9.8.4.4,0,0,1,.711.094c.7,2.271,2.662,8.937,2.166,10.568C-46.33-801.656-52.424-804.488-52.424-804.488Z"/><path class="k" d="M-58.174-806.291l-7.606-6.972a.442.442,0,0,0-.74.278c-.217,2.108-.471,7.47,2.338,8.84C-60.663-802.428-58.6-803.973-58.174-806.291Z"/><path class="m" d="M-49.517-804.112a26.909,26.909,0,0,1,5.9-4.463.471.471,0,0,1,.687.379c.162,2.073.324,8.413-3.417,10.976l-5.712-1.864Z"/><path class="m" d="M-56.553-798.427a9.171,9.171,0,0,1-1.725-7.136c.784-4.156,3.215-7.607,4-9.645.526-1.368,6.666,11.292,5.646,14.821a18.183,18.183,0,0,1-3.607,6.352S-55.3-794.427-56.553-798.427Z"/><path class="m" d="M-63.642-797.128a14.817,14.817,0,0,1-6.067-8.65.371.371,0,0,1,.391-.47c1.628.165,6.6.857,9.083,3.319C-57.234-799.959-63.642-797.128-63.642-797.128Z"/><path class="l" d="M-61.521-797.794s-1.8-4.336,2.748-10.133a.369.369,0,0,1,.611.047c.824,1.492,3.219,6.247,2.649,10.172Z"/><path class="l" d="M-55-798.4a16.4,16.4,0,0,1,3.434-6.093,16.037,16.037,0,0,0,2.149-2.708.365.365,0,0,1,.662.068c.706,2.085,2.1,7.313-.752,9.42Z"/><path class="g" d="M-62.269-777.367h13.392a17.993,17.993,0,0,0,7.491-11.9c1.259-7.438-2.975-10.07-2.975-10.07H-66.785s-4.234,2.632-2.975,10.07A17.99,17.99,0,0,0-62.269-777.367Z"/><line class="e" x2="23.667" transform="translate(-67.091 -798.034)"/><line class="e" y1="5.5" x2="3" transform="translate(-46.841 -806.534)"/><line class="e" y1="4.583" x2="2.75" transform="translate(-51.675 -804.951)"/><line class="e" y1="5.083" x2="0.75" transform="translate(-59.175 -805.451)"/><line class="e" x2="3.583" y2="3.75" transform="translate(-67.174 -804.201)"/><line class="e" x2="2.917" y2="4.917" transform="translate(-65.258 -810.284)"/><line class="e" y1="7.917" x2="0.583" transform="translate(-54.508 -812.117)"/><path class="c" d="M43.061-786.383s-8.166-14.174-.925-21.262,14.02,1.387,14.483,4.314-6.009,17.256-6.009,17.256Z"/><path class="c" d="M45.68-805.642s-.154-12.633-6.625-15.1-11.247,6.933-8.32,10.476,13.558,5.393,13.558,5.393Z"/><path class="c" d="M35.665-819.97s-1.386-9.4,3.852-10.785c2.245-.594,3.471.283,4.14,1.48a4.711,4.711,0,0,1-.726,5.426l-4.646,5.112Z"/><path class="n" d="M41.469-778.487a1.138,1.138,0,0,0-.045.3,1.124,1.124,0,0,0,.291.742h1.7a1.124,1.124,0,0,0,.291-.742,1.159,1.159,0,0,0-.034-.265h5.849a1.159,1.159,0,0,0-.034.265,1.12,1.12,0,0,0,.292.742h1.7a1.124,1.124,0,0,0,.291-.742,1.113,1.113,0,0,0-.049-.313c4.17-1.906,3.024-6.781,2.521-8.366a.727.727,0,0,0-.695-.506H39.613a.727.727,0,0,0-.695.506C38.413-785.279,37.262-780.383,41.469-778.487Z"/><path class="e" d="M47.659-810.284s-6.334,4.417-6.667,11.25a22.322,22.322,0,0,0,2.5,11.583"/><path class="e" d="M51.742-808.951a15.82,15.82,0,0,1,1.167,8.5c-.75,4.5-3.25,13.084-3.25,13.084"/><line class="e" x1="3.167" y2="22.5" transform="translate(46.325 -809.951)"/><path class="e" d="M30.075-813.951s5.084,7,10.917,6.167"/><path class="e" d="M34.409-820.451s7.666-.083,9.5,10.667"/><line class="e" x2="9.917" y2="9.167" transform="translate(32.409 -818.117)"/><path class="e" d="M36.909-822.034s.166-7.333,5-8.583"/><path class="e" d="M38.825-821.2a11.1,11.1,0,0,0,4.25-8.333"/><path class="b" d="M462.983-504.866S375.031-658.472,369.25-682.421s16.93-13.627,28.9-2.891S478.261-600.663,462.983-504.866Z"/><path class="h" d="M462.363-506.724s-47.9-130.483-109.836-140.393S462.363-506.724,462.363-506.724Z"/><path class="h" d="M464.222-550.287S477.848-726.6,519.14-736.1,464.222-550.287,464.222-550.287Z"/><path class="h" d="M465.667-576.3s-10.736-159.387-52.441-188.292c-27-18.711-17.138,26.947-6.827,61.477a324.62,324.62,0,0,0,22.8,56.392Z"/><path class="b" d="M459.886-511.06s30.969-111.9,67.306-117.682,27.666,33.447,11.149,49.138S459.886-511.06,459.886-511.06Z"/><path class="b" d="M463.6-695.222s.826-118.921,23.124-118.1S463.6-695.222,463.6-695.222Z"/><path class="b" d="M463.809-690.68s0-92.907-24.776-99.926S463.809-690.68,463.809-690.68Z"/><path class="h" d="M456.789-463.367c-.016-13.007.089-26.014.158-39.021.044-13.007.218-26.014.361-39.021l.438-39.021.6-39.021c.474-26.014.888-52.028,1.561-78.042s1.635-52.028,3.078-78.042h1.239c1.443,26.014,2.4,52.028,3.078,78.042s1.086,52.028,1.561,78.042l.6,39.021.437,39.021c.143,13.007.317,26.014.361,39.021.069,13.007.174,26.014.158,39.021Z"/><path class="o" d="M510.752-472.03a341.128,341.128,0,0,0-44.924-2.626A341.132,341.132,0,0,0,420.9-472.03a6.508,6.508,0,0,0-5.637,7.441c4.252,26.741,19.819,49.243,25.425,56.643a6.519,6.519,0,0,0,5.2,2.579h39.869a6.518,6.518,0,0,0,5.2-2.579c5.606-7.4,21.173-29.9,25.426-56.643A6.509,6.509,0,0,0,510.752-472.03Z"/><line class="e" x2="44.5" transform="translate(442.409 -410.367)"/><line class="e" x2="93.333" transform="translate(418.742 -466.201)"/><line class="e" x2="111" y2="123" transform="translate(344.076 -639.534)"/><path class="e" d="M548.409-614.2c-.334,1-78.334,90.334-78.334,90.334"/><line class="e" x2="83" y2="154.667" transform="translate(370.409 -690.867)"/><path class="e" d="M522.075-728.2c-.333,1-48.666,147.667-48.666,147.667"/><path class="e" d="M399.075-761.867c0,1,56.667,159,56.667,159"/><path class="e" d="M489.742-805.2c0,1-20,85.334-20,85.334"/><line class="e" x2="24" y2="70.333" transform="translate(433.076 -782.867)"/><line class="e" x2="7.375" y2="31" transform="translate(361.659 -642.867)"/><line class="e" x2="5.25" y2="34.25" transform="translate(371.409 -637.867)"/><line class="e" x2="4.125" y2="39" transform="translate(405.034 -606.367)"/><line class="e" x1="0.25" y2="38" transform="translate(394.034 -684.867)"/><line class="e" x1="2.125" y2="42.75" transform="translate(401.784 -675.617)"/><line class="e" x1="1.5" y2="45.75" transform="translate(512.909 -618.617)"/><path class="e" d="M503.159-607.492c0,.375.375,45.25.375,45.25"/><line class="e" x2="7.125" y2="25.625" transform="translate(503.909 -720.117)"/><line class="e" x2="7.625" y2="33" transform="translate(497.909 -711.367)"/><line class="e" x2="8.125" y2="27.625" transform="translate(483.284 -662.992)"/><line class="e" x1="3.25" y2="33.75" transform="translate(411.409 -760.867)"/><path class="e" d="M420.909-752.867c0,.375-3.25,43.625-3.25,43.625"/><line class="e" x1="4.375" y2="50.875" transform="translate(437.409 -705.242)"/><path class="e" d="M447.784-689.367c0,.375-5.125,50.25-5.125,50.25"/><line class="e" x1="1.625" y2="28.5" transform="translate(442.534 -783.867)"/><path class="e" d="M450.409-773.867c0,.375-1.5,36.5-1.5,36.5"/><line class="e" x2="5.625" y2="20.75" transform="translate(478.659 -802.242)"/><path class="a" d="M264.146-799.457l-1.975-.32,13.159-81.149,9.2,80.571-1.986.227-7.554-66.179Z"/><path class="a" d="M296.285-800.245l-21.177-70.085L251.69-800.715l-1.9-.638,25.416-75.553L298.2-800.823Z"/><path class="n" d="M280.474-773.2H267.843c-7.7,0-14.235-4.107-15.311-9.63l-3.873-19.87h51l-3.873,19.87C294.709-777.308,288.18-773.2,280.474-773.2Z"/><rect class="a" width="51.75" height="2" transform="translate(248.159 -801.492)"/><path class="h" d="M279.051-802.742c.152-.746.317-1.488.514-2.221a37.088,37.088,0,0,1,2.288-6.256,33.06,33.06,0,0,1,3.426-5.7l1.039-1.309,1.122-1.243,1.18-1.2c.423-.368.84-.747,1.255-1.136-.478.3-.954.611-1.424.932l-1.349,1.049-1.249,1.17-1.172,1.253a25.316,25.316,0,0,0-3.731,5.754,27.484,27.484,0,0,0-2.131,6.511c-.154.792-.263,1.592-.349,2.393Z"/><path class="h" d="M288.678-820.819s1.3-6.267,3.869-5.317S291.75-821.57,288.678-820.819Z"/><path class="h" d="M278.654-803.307s9.747-1.153,7.978-6.451S278.07-805.339,278.654-803.307Z"/><path class="h" d="M274.664-804.216c.177.486.343.977.491,1.474h.661a16.631,16.631,0,0,0-.414-1.716,53.883,53.883,0,0,0-2.232-5.88,33.2,33.2,0,0,0-3.021-5.541,16.682,16.682,0,0,0-4.421-4.473c2.991,2.947,4.868,6.637,6.528,10.418C273.081-808.038,273.94-806.132,274.664-804.216Z"/><path class="h" d="M266.091-820.071s-4.848-3.64-7.08-.353S266.091-820.071,266.091-820.071Z"/><path class="h" d="M265.809-820.271s4.46,4.592,2.234,6.185S264.709-817.306,265.809-820.271Z"/><path class="h" d="M272.833-810.368s7.241-6.625,2.713-9.894S271.172-811.677,272.833-810.368Z"/><path class="h" d="M274.137-807.311s-6.269-7.552-9.752-3.186S272.75-805.715,274.137-807.311Z"/><path class="h" d="M267.838-804.272a24.7,24.7,0,0,1,2.22,1.53h.565a26.728,26.728,0,0,0-2.523-1.941,19.833,19.833,0,0,0-10.373-3.427,16.577,16.577,0,0,0-10.433,3.373,13.438,13.438,0,0,0-3.621,4.272,15.453,15.453,0,0,0-1.593,5.36,40.315,40.315,0,0,0,.845,10.955,81.362,81.362,0,0,1,1.3,10.747,37.273,37.273,0,0,1-.98,10.716A25.893,25.893,0,0,1,238.559-753a25.163,25.163,0,0,0,5.156-9.558,37.7,37.7,0,0,0,1.276-10.868,71.379,71.379,0,0,0-1.168-10.874,39.6,39.6,0,0,1-.75-10.693,14.479,14.479,0,0,1,1.446-5.033,12.513,12.513,0,0,1,3.336-4,16.232,16.232,0,0,1,9.867-3.322A19.28,19.28,0,0,1,267.838-804.272Z"/><path class="h" d="M240.887-756.16s-6.055-.284-6.054,3.688S240.887-756.16,240.887-756.16Z"/><path class="h" d="M240.7-756.114s4.46,4.591,2.234,6.185S239.6-753.15,240.7-756.114Z"/><path class="h" d="M243.409-762.034s.625,5.937,3.875,5.875S247.284-762.6,243.409-762.034Z"/><path class="h" d="M243.362-761.791s-5.412-2.521-7.032.3S241.849-758.18,243.362-761.791Z"/><path class="h" d="M244.534-769.659s4.687,7.062,7.5,4.75S249.6-771.972,244.534-769.659Z"/><path class="h" d="M244.941-769.583s-8.342-1.5-8.619,2.128S243.108-764.328,244.941-769.583Z"/><path class="h" d="M244.346-777.784s5.5,5.625,8.75,2.437S247.221-781.159,244.346-777.784Z"/><path class="h" d="M244.517-777.837s-7.714-1.541-8.6,2.924S244.048-773.428,244.517-777.837Z"/><path class="h" d="M242.971-786.909s7.125,6.75,10.063,2S244.159-788.659,242.971-786.909Z"/><path class="h" d="M243.156-786.917s-9.809-.339-8.864,5.166S243.425-784.819,243.156-786.917Z"/><path class="h" d="M243.659-799.909s2.625,9.312,8.312,7.625S249.784-802.659,243.659-799.909Z"/><path class="h" d="M243.993-799.979s-9.4-2.3-10.728,3.486S243.374-793.294,243.993-799.979Z"/><path class="h" d="M251.531-806.7s.627,9.655,6.542,9.19S258.1-808.112,251.531-806.7Z"/><path class="h" d="M251.937-806.584s-4.654-8.483-9.815-5.559S246.587-802.526,251.937-806.584Z"/><path class="h" d="M264.8-806.287s-4.6,8.514.663,11.26S271.114-804,264.8-806.287Z"/><path class="h" d="M265.956-805.729s2.494-9.349-3.259-10.8S259.286-806.489,265.956-805.729Z"/><path class="h" d="M300.123-763.52a37.277,37.277,0,0,1-.98-10.717,81.531,81.531,0,0,1,1.3-10.746,40.321,40.321,0,0,0,.845-10.956,15.485,15.485,0,0,0-1.592-5.36,13.45,13.45,0,0,0-3.622-4.271,16.571,16.571,0,0,0-10.433-3.373,19.815,19.815,0,0,0-10.373,3.427,27.033,27.033,0,0,0-3.447,2.774h.463a25.547,25.547,0,0,1,3.247-2.364,19.267,19.267,0,0,1,10.116-3.071,16.219,16.219,0,0,1,9.866,3.322,12.516,12.516,0,0,1,3.337,4,14.5,14.5,0,0,1,1.445,5.032,39.592,39.592,0,0,1-.75,10.693,71.393,71.393,0,0,0-1.168,10.875,37.689,37.689,0,0,0,1.276,10.867,25.16,25.16,0,0,0,5.156,9.559A25.9,25.9,0,0,1,300.123-763.52Z"/><path class="h" d="M302.478-756.993s6.056-.285,6.054,3.688S302.478-756.993,302.478-756.993Z"/><path class="h" d="M302.666-756.948s-4.461,4.592-2.234,6.185S303.766-753.983,302.666-756.948Z"/><path class="h" d="M299.956-762.867s-.625,5.937-3.875,5.875S296.081-763.43,299.956-762.867Z"/><path class="h" d="M300-762.625s5.412-2.52,7.031.3S301.516-759.013,300-762.625Z"/><path class="h" d="M298.831-770.492s-4.687,7.062-7.5,4.75S293.769-772.8,298.831-770.492Z"/><path class="h" d="M298.424-770.416s8.342-1.5,8.619,2.127S300.258-765.161,298.424-770.416Z"/><path class="h" d="M299.019-778.617s-5.5,5.625-8.75,2.437S296.144-781.992,299.019-778.617Z"/><path class="h" d="M298.848-778.67s7.714-1.542,8.6,2.924S299.318-774.262,298.848-778.67Z"/><path class="h" d="M300.394-787.742s-7.125,6.75-10.063,2S299.206-789.492,300.394-787.742Z"/><path class="h" d="M300.209-787.75s9.809-.339,8.864,5.165S299.94-785.652,300.209-787.75Z"/><path class="h" d="M299.706-800.742s-2.625,9.312-8.312,7.625S293.581-803.492,299.706-800.742Z"/><path class="h" d="M299.372-800.812s9.4-2.3,10.728,3.486S299.991-794.127,299.372-800.812Z"/><path class="h" d="M291.834-807.532s-.627,9.655-6.542,9.189S285.27-808.946,291.834-807.532Z"/><path class="h" d="M291.429-807.417s4.653-8.483,9.815-5.56S296.778-803.36,291.429-807.417Z"/><path class="h" d="M278.563-807.121s4.6,8.515-.663,11.261S272.251-804.833,278.563-807.121Z"/><path class="h" d="M277.409-806.563s-2.494-9.348,3.259-10.8S284.08-807.322,277.409-806.563Z"/><path class="e" d="M252.474-806.422a56.214,56.214,0,0,1,3.665,4.942"/><path class="e" d="M244.694-799.291a36.47,36.47,0,0,1,4.34,3.673"/><path class="e" d="M236.247-783.31c2.26-.2,3.929-2.351,6.164-2.74"/><path class="e" d="M245.043-777.906l4.367,1.033"/><path class="e" d="M238.682-767.564a20.485,20.485,0,0,1,4.969-1.479"/><path class="e" d="M244.211-761.185a10.68,10.68,0,0,1,2.678,3.079"/><path class="e" d="M277.286-804.493q.07,2.688.143,5.375"/><path class="e" d="M278.248-808a27.024,27.024,0,0,1,1.534-6.5"/><path class="e" d="M273.014-813.064a22.544,22.544,0,0,0,1.862-5.061"/><path class="e" d="M292.121-795.79c-.161.01-.086-.258.041-.358l6.213-4.857"/><path class="e" d="M300.886-786.821l6.061,3"/><path class="e" d="M292.036-777.685a22.153,22.153,0,0,0,5.091-.8"/><path class="e" d="M300.016-769.561q2.306.719,4.548,1.619"/><path class="e" d="M296.474-758.658q1.418-2.076,2.973-4.055"/><path class="k" d="M-159.6-738.866h0a9.517,9.517,0,0,0-7.393,3.593c-12,15.421-14.421,47.944-9.477,56.377,5.826,9.939-.192,13.509,1.212,22.494,1.14,7.3,11.4,12.838,15.209,14.658a3.259,3.259,0,0,0,2.83-.009c3.942-1.9,14.821-7.78,15.747-15.156,1.133-9.024-4.989-12.411.536-22.52,4.688-8.578,1.288-41.014-11.166-56.068A9.519,9.519,0,0,0-159.6-738.866Z"/><path class="h" d="M-74.892-650.227h0a9.519,9.519,0,0,0-7.917-2.21c-19.205,3.6-42.576,26.342-44.464,35.934-2.225,11.3-9.1,9.988-14,17.647-3.985,6.222.029,17.169,1.674,21.056a3.254,3.254,0,0,0,2.125,1.868c4.212,1.19,16.254,4,21.836-.911,6.829-6.006,4.491-12.6,15.328-16.508,9.2-3.316,28.149-29.856,28.8-49.384A9.518,9.518,0,0,0-74.892-650.227Z"/><path class="h" d="M-246.954-629.288h0a7.92,7.92,0,0,0-2.873,6.2c.384,16.248,15.933,38.477,23.555,41.309,8.982,3.338,6.983,8.8,12.615,13.855,4.576,4.1,14.1,2.272,17.51,1.441a2.708,2.708,0,0,0,1.819-1.494c1.539-3.3,5.455-12.81,2.171-18.049-4.017-6.41-9.743-5.372-11.5-14.791-1.493-7.993-20.747-27.1-36.692-30.249A7.918,7.918,0,0,0-246.954-629.288Z"/><path class="c" d="M-102.477-592.986h0a6.9,6.9,0,0,0-5.863-1.029c-13.584,3.959-28.807,22.015-29.485,29.061-.8,8.3-5.844,7.846-8.834,13.714-2.429,4.768,1.243,12.372,2.705,15.055a2.36,2.36,0,0,0,1.665,1.2c3.12.557,12,1.724,15.671-2.211,4.494-4.815,2.339-9.4,9.871-12.988,6.391-3.044,18.16-23.52,17.24-37.639A6.9,6.9,0,0,0-102.477-592.986Z"/><path class="h" d="M-204.094-690.265h0a7.922,7.922,0,0,0-5.02,4.642c-5.835,15.169.073,41.645,6.041,47.167,7.033,6.509,3.1,10.8,6.386,17.616,2.667,5.538,12.17,7.473,15.64,8a2.71,2.71,0,0,0,2.251-.689c2.68-2.464,9.924-9.765,8.884-15.86-1.273-7.457-6.963-8.679-5-18.058,1.665-7.959-8.858-32.963-22.4-41.946A7.92,7.92,0,0,0-204.094-690.265Z"/><path class="h" d="M-109.712-686.7h0a7.917,7.917,0,0,0-6.832-.268c-14.851,6.6-29.395,29.5-29.08,37.624.371,9.575-5.443,9.831-7.941,16.972-2.03,5.8,3.321,13.889,5.4,16.719a2.708,2.708,0,0,0,2.078,1.1c3.638.153,13.923.112,17.5-4.933,4.373-6.173,1.214-11.06,9.234-16.3,6.805-4.45,17.044-29.571,13.82-45.5A7.918,7.918,0,0,0-109.712-686.7Z"/><path class="c" d="M-162.26-683.144h0a7.919,7.919,0,0,0-6.259,2.753c-10.458,12.44-13.5,39.4-9.655,46.562,4.53,8.445-.584,11.222.3,18.735.717,6.1,9.072,11.03,12.18,12.663a2.708,2.708,0,0,0,2.352.081c3.337-1.456,12.564-6,13.566-12.1,1.226-7.465-3.755-10.474,1.156-18.7,4.167-6.982,2.364-34.05-7.513-46.955A7.919,7.919,0,0,0-162.26-683.144Z"/><path class="c" d="M-205.774-561.814h0a6.213,6.213,0,0,0-2.647,4.664c-.75,12.725,9.967,31.107,15.742,33.814,6.806,3.19,4.89,7.333,8.965,11.646,3.312,3.5,10.875,2.688,13.6,2.259a2.126,2.126,0,0,0,1.518-1.051c1.417-2.479,5.093-9.66,2.864-13.968-2.726-5.271-7.269-4.829-8.035-12.306-.65-6.345-14.465-22.527-26.725-26.018A6.215,6.215,0,0,0-205.774-561.814Z"/><path class="i" d="M-142.026-405.534h-37.284L-202-491.989h82.673Z"/><line class="e" x2="66" transform="translate(-194.341 -484.867)"/><path class="e" d="M-160.57-491.909s22.979-76.958,58.479-98.708"/><path class="e" d="M-204.341-559.117s40,47.25,43.25,67.25"/><path class="e" d="M-77.091-648.367-128.5-592.86a106.329,106.329,0,0,0-27.68,60.619l-4.662,40.311"/><path class="e" d="M-161.258-491.867s-26-93-83.666-135.667"/><line class="e" x2="2.229" y2="186.542" transform="translate(-162.924 -678.534)"/><path class="e" d="M-110.925-684.534s-51.416,72.5-50.416,132.167"/><path class="e" d="M-204.341-687.867s41.75,115.25,43,138.25"/><line class="e" x2="2" y2="53.25" transform="translate(-160.341 -736.367)"/><line class="e" x2="15" y2="6.333" transform="translate(-203.758 -545.367)"/><line class="e" x2="26.167" y2="10.667" transform="translate(-243.091 -611.034)"/><line class="e" x2="17.5" y2="22.333" transform="translate(-208.258 -671.867)"/><line class="e" x1="9" y2="32" transform="translate(-161.924 -657.867)"/><line class="e" x1="3.667" y2="26.833" transform="translate(-132.424 -675.534)"/><path class="e" d="M-101.925-640.2c0,.5-6.333,25.167-6.333,25.167"/><line class="e" x1="22.333" y2="13.167" transform="translate(-132.591 -569.034)"/><path class="p" d="M86.409-416.867c0,3.175-39.809,6-92,6s-71-2.575-71-5.75,42.309-5.75,94.5-5.75S86.409-420.043,86.409-416.867Z"/><path class="q" d="M46.732-441.424c7.787,8.669,12.654,14.071,12.654,14.071l7.715-5.4c-3.288-6-6.532-11.848-9.7-17.485Q52.145-445.746,46.732-441.424Z"/><path class="n" d="M59.239-427.935l-7.681,11.853.919,1.549,16.789-10.581a2.667,2.667,0,0,0,.741-3.792l-2.882-4Z"/><path class="q" d="M-42.382-446.481c1.65,13.647,2.724,22.379,2.724,22.379h9.42q1.253-11.328,2.128-21.33Q-35.248-445.93-42.382-446.481Z"/><path class="n" d="M-39.5-424.1l-12.818,5.932-.049,1.8H-32.52a2.666,2.666,0,0,0,2.648-2.812l-.305-4.921Z"/><path class="g" d="M-46.668-648.476S-61.853-623.135-61.261-604.5s19.819,174.526,19.819,174.526h13.607l5.029-150.27,17.627,79.6a22.933,22.933,0,0,0,5.34,10.378l54.238,60.3,12.128-7.987L22.452-512.5s-7.592-108.335-35.4-135.972C-13.593-649.119-46.668-648.476-46.668-648.476Z"/><path class="e" d="M-9.091-629.367s23,116,28,122,41.5,69,41.5,69"/><path class="f" d="M-22.81-580.274-34.258-603.7-23.4-562.8Z"/><path class="q" d="M-63.457-639.891c-3.8-2.449-8.325-4.228-12.432-6.5A513.39,513.39,0,0,1-109.8-582.534l5.811,4.48c19.494-16.53,33.908-39.479,43.816-59.675Q-61.8-638.823-63.457-639.891Z"/><path class="q" d="M-103.846-578.41s-4.309,9.789-7.177,11.6c-.64.405-.339-1.072.427-2.919,0,0-3.274,4-3.861,4.271s2.9-6.5,2.9-6.5-4.805,6.495-5.527,6.346,3.3-6.774,3.3-6.774-3.9,5.193-4.593,5,4.146-7.929,4.146-7.929-3.674.478-3.512-.544,3.457-2.919,4.818-3.443,4.434-5.12,4.434-5.12Z"/><path class="n" d="M-48.147-704.877s-7.318,6.072-9.772,10.924-22.767,55.731-22.767,55.731l17.551,9.861,22.679-48.315Z"/><path class="f" d="M-49.258-658.034l-3.667-19.833,2.25,22.833Z"/><rect class="q" width="12.644" height="16.764" transform="translate(-31.665 -705.563) rotate(171.225)"/><path class="f" d="M-46.224-717.052l.812,5.262s7.624-2,9.9-6.28Z"/><path class="q" d="M-38.832-687.212c4.309-.374,7.492-5.356,9.329-8.785a32.311,32.311,0,0,0,2.734-7.69c.168-.687.381-1.381.6-2.077a10.577,10.577,0,0,1-6.02-3.055l-12.48,1.926c-.723,1.476-1.491,3.985-3.317,5.776C-47.1-695.142-44.967-686.68-38.832-687.212Z"/><path class="n" d="M-46.668-648.476h33.722c-1.183-6.8,3.55-38.356,2.465-46.442s-6.8-12.226-11.931-11.536-9.78-2.365-9.78-2.365L-42.625-693.34l-2.17-13.459h0a4.332,4.332,0,0,0-3.9,2.777c-1.216,3.16-3.375,8.362-5.469,11.372-2.829,4.067-2.563,16.467.888,23.566S-46.668-648.476-46.668-648.476Z"/><path class="e" d="M-46.758-704.534s1.833,14.667,3.333,15.833,12.5-18.666,12.5-18.666"/><path class="i" d="M-53.369-587.323l-29.309,18.59a3.22,3.22,0,0,1-4.476-1.048c-5.383-8.83-13.006-27.685-15.676-34.445a3.214,3.214,0,0,1,1.271-3.9l13.278-8.422,7.372-4.676a3.211,3.211,0,0,1,4.06.5c4.885,5.178,18.3,19.653,24.432,28.885A3.221,3.221,0,0,1-53.369-587.323Z"/><path class="i" d="M-82.056-582.544l-2.683,11.99-39.093-12.481,1.092-4.879Z"/><path class="i" d="M-121.908-587.47l-.917,4.1-7.923,3.351,3.1-13.859Z"/><path class="i" d="M-79.746-617.931a22.959,22.959,0,0,1,1.532-3.419,22.188,22.188,0,0,1,2.047-3.146,13.543,13.543,0,0,1,6.366-4.747,9.476,9.476,0,0,1,4.277-.327,10.3,10.3,0,0,1,2.036.531,10.433,10.433,0,0,1,1.88.918,8.939,8.939,0,0,1,2.982,3.072,12.955,12.955,0,0,1,1.427,3.7c1.1,4.976.568,9.7.276,14.324-.16,2.315-.308,4.611-.3,6.874a17.267,17.267,0,0,0,.313,3.318,5.744,5.744,0,0,0,1.3,2.819l-.658.753a6.593,6.593,0,0,1-1.991-3.211,18.8,18.8,0,0,1-.705-3.565,65.927,65.927,0,0,1-.294-7.061c-.014-2.33-.02-4.638-.147-6.906a28.361,28.361,0,0,0-.911-6.525,6.988,6.988,0,0,0-3.111-4.511,6.906,6.906,0,0,0-1.276-.54,7.811,7.811,0,0,0-1.34-.306,6,6,0,0,0-2.605.26,10.91,10.91,0,0,0-4.659,3.464,27.854,27.854,0,0,0-3.521,5.38Z"/><path class="q" d="M-9.165-650.361c-21.484,13.793-38.93,22.75-41.851,24.232a.036.036,0,0,1-.022.011l-.007,0c-1.571.668-3.808,1.521-4.723,1.391-1.856-.272-6.907-.895-6.907.4,0,1.584,2.25,3.209,2.25,3.209s-1.666,1.166-.666,2.5a1.665,1.665,0,0,0,.5,1.833s-.029.041-.072.116a1.834,1.834,0,0,0,1.917,2.7c.411-.073.907-.173,1.454-.3,0,.085,0,.171,0,.256.374-.171.76-.363,1.149-.562,2.5-.726,5.607-2.077,7.391-4.538l0,.017c17.581-2.97,34.63-9.891,49.724-17.985.4-.214.79-.435,1.188-.651Q-3.434-644.106-9.165-650.361Z"/><path class="n" d="M-28.087-694.13l14.683-8.456s21.689,28.352,28.24,50.2c0,0,4.607,10.141-19.443,19.514l-9.2-15.871,7.2-4.193Z"/><path class="f" d="M-6.613-652.937-21.5-681.824l7.941,33.232Z"/><line class="e" y1="13.167" x2="21.833" transform="translate(-100.258 -619.201)"/><line class="e" y1="19.333" x2="30" transform="translate(-84.424 -591.034)"/><line class="e" y1="3.167" x2="0.667" transform="translate(-123.258 -587.201)"/><path class="q" d="M-31.328-735.958c-.068,0-.135,0-.2,0l-.4-2.6a11.444,11.444,0,0,0-13.054-9.568,11.4,11.4,0,0,0-7.487,4.55,11.391,11.391,0,0,0-2.08,8.51l1.418,9.191a11.322,11.322,0,0,0,1.382,3.947,11.441,11.441,0,0,0,11.679,5.621,11.435,11.435,0,0,0,9.682-11.268,6.773,6.773,0,0,0,2.471-4.641A3.576,3.576,0,0,0-31.328-735.958Z"/><path class="f" d="M-30.093-733.709a7.909,7.909,0,0,0-1.859,1.164,3.215,3.215,0,0,0-.641.81,4.529,4.529,0,0,0-.382,1.041,2.073,2.073,0,0,1,0-1.2,2.3,2.3,0,0,1,.66-1.048,2.976,2.976,0,0,1,1.05-.609A2.822,2.822,0,0,1-30.093-733.709Z"/><path class="f" d="M-30.96-729.687a8.435,8.435,0,0,0-.4-1.627,2.652,2.652,0,0,0-.39-.659,3.9,3.9,0,0,0-.629-.572,1.467,1.467,0,0,1,.9.264,1.7,1.7,0,0,1,.611.764,2.187,2.187,0,0,1,.15.939A1.991,1.991,0,0,1-30.96-729.687Z"/><path class="f" d="M-41.623-726.348a3.587,3.587,0,0,1-2.421,1.957,2.67,2.67,0,0,1-1.641-.154,2.918,2.918,0,0,1-1.236-.985,6.685,6.685,0,0,0,1.392.485,3,3,0,0,0,1.347,0A7.156,7.156,0,0,0-41.623-726.348Z"/><path class="f" d="M-46.073-733.2a14.436,14.436,0,0,1,.463,1.672,3.311,3.311,0,0,1,.093.907,2.529,2.529,0,0,1-.247.913c-.247.535-.636,1.022-.578,1.428.085.432.636.781,1.164.958a1.542,1.542,0,0,1-1.56-.848,1.37,1.37,0,0,1,.115-.991c.121-.277.265-.527.375-.773a2.677,2.677,0,0,0,.232-1.537A15.748,15.748,0,0,1-46.073-733.2Z"/><path class="f" d="M-38.4-735.175a4.843,4.843,0,0,0-1.208-.393,5.176,5.176,0,0,0-1.251-.075,6.421,6.421,0,0,0-1.218.238c-.4.114-.795.271-1.214.412l-.031.01a.567.567,0,0,1-.718-.356.568.568,0,0,1,.2-.634,4.633,4.633,0,0,1,2.973-.88,4.532,4.532,0,0,1,1.548.323,4.088,4.088,0,0,1,1.338.831.334.334,0,0,1,.022.472.334.334,0,0,1-.4.073Z"/><path class="f" d="M-42.383-731.457a1.283,1.283,0,0,0,1.465,1.073,1.283,1.283,0,0,0,1.073-1.465,1.283,1.283,0,0,0-1.465-1.073A1.283,1.283,0,0,0-42.383-731.457Z"/><path class="f" d="M-39.3-732.754a1.949,1.949,0,0,1-.4.464,1.186,1.186,0,0,1-.644.28l-.078.008a.35.35,0,0,1-.383-.315.351.351,0,0,1,.314-.384.368.368,0,0,1,.159.021.951.951,0,0,0,.763-.283l.012-.01a.17.17,0,0,1,.24.017A.17.17,0,0,1-39.3-732.754Z"/><path class="f" d="M-53.209-733.349a4.112,4.112,0,0,1,1.025-1.2,4.532,4.532,0,0,1,1.379-.774,4.638,4.638,0,0,1,3.1-.059.566.566,0,0,1,.349.721.568.568,0,0,1-.544.381h-.034c-.442-.008-.864-.04-1.281-.026a6.307,6.307,0,0,0-1.234.14,5.119,5.119,0,0,0-1.17.449,4.809,4.809,0,0,0-1.033.738l-.033.032a.333.333,0,0,1-.472,0A.332.332,0,0,1-53.209-733.349Z"/><path class="f" d="M-47.737-730.631a1.285,1.285,0,0,1-1.073,1.466,1.286,1.286,0,0,1-1.466-1.074A1.285,1.285,0,0,1-49.2-731.7,1.284,1.284,0,0,1-47.737-730.631Z"/><path class="f" d="M-50.874-731.218a.95.95,0,0,0,.813.04.351.351,0,0,1,.493.059.351.351,0,0,1-.059.493.347.347,0,0,1-.143.067l-.078.016a1.187,1.187,0,0,1-.7-.073,1.931,1.931,0,0,1-.519-.322.17.17,0,0,1-.02-.24.169.169,0,0,1,.2-.046Z"/><path class="r" d="M-48.024-725.26a2.985,2.985,0,0,1-2.492,3.4,2.945,2.945,0,0,1-1.238-.073,11.322,11.322,0,0,1-1.382-3.947l-.127-.824a2.946,2.946,0,0,1,1.838-1.05A2.984,2.984,0,0,1-48.024-725.26Z"/><path class="r" d="M-41.4-726.283a2.981,2.981,0,0,0,3.4,2.491,2.98,2.98,0,0,0,2.491-3.4,2.98,2.98,0,0,0-3.4-2.491A2.981,2.981,0,0,0-41.4-726.283Z"/><path class="f" d="M-39.15-739.683s2,6.877,3.7,8.208l2.687-3.072a2.77,2.77,0,0,1,4.161-.081,2.461,2.461,0,0,1,.325.491c.814,1.627.579,4.244-2.114,6.559l-3.469,6.314a5.91,5.91,0,0,0-.713,3.308l.676,8.667s6.725,1.2,10.969-1.062a2.915,2.915,0,0,0,1.5-2.8c-.445-6.057-2.45-27.054-9.137-32.227,0,0-10.132-9.762-20.633-1.849s-4.585,32.538-4.215,35.053c.148,1.006.343,2.083.524,3.013a2.9,2.9,0,0,0,2.986,2.345l7.139-.329-1.454-9.908a12.763,12.763,0,0,1-6.459-6.584l-1.7-10.427S-46.545-732.954-39.15-739.683Z"/><path class="i" d="M-16.508-738.859l-12.087-7.359h-.031a10.775,10.775,0,0,0-10.741-10.048l-3.841,0a10.777,10.777,0,0,0-10.749,10.04H-54l-13.617,7.408a.805.805,0,0,0,.272,1.506c15.2,2.084,42.156.51,50.475-.054A.8.8,0,0,0-16.508-738.859Z"/><line class="e" x2="22" transform="translate(-52.591 -746.367)"/><path class="p" d="M234.409-457.367c0,3.175-31.139,6-71.963,6s-55.537-2.575-55.537-5.75,33.094-5.75,73.918-5.75S234.409-460.543,234.409-457.367Z"/><path class="i" d="M154.3-464.323l-12.657,5.932v1.8H161.49a2.583,2.583,0,0,0,2.573-2.812l-.439-4.92Z"/><path class="q" d="M152.534-476.982c1.2,7.966,1.925,12.715,1.925,12.715h9.048q.55-6.584.981-12.715Z"/><path class="i" d="M177.6-464.323l12.657,5.932v1.8H170.407a2.583,2.583,0,0,1-2.573-2.812l.439-4.92Z"/><path class="q" d="M167.468-476.982q.435,6.137.981,12.715h9.3s.716-4.749,1.9-12.715Z"/><path class="j" d="M194.793-674.063l-29,.072-29-.072s-12.7,11.906-8.357,41.881S152.487-466.53,152.487-466.53h12.621l.681-60.15.68,60.15H179.09s19.721-135.677,24.059-165.652S194.793-674.063,194.793-674.063Z"/><line class="e" y1="64.75" transform="translate(165.909 -586.117)"/><rect class="q" width="12.644" height="16.221" transform="translate(159.763 -763.632)"/><path class="f" d="M172.409-760.867v2.218a11.352,11.352,0,0,1-6.319,1.911,11.3,11.3,0,0,1-6.324-1.917v-2.218a11.3,11.3,0,0,0,6.324,1.916A11.359,11.359,0,0,0,172.409-760.867Z"/><path class="i" d="M159.118-752.526s7.247,9.244,13.755,0c0,0,13.9,5.251,16.787,5.7s5.177,14.716,5.177,20.114.37,52.654.37,52.654-39.343,3.993-58.422,0c0,0-1.257-54.724,2.366-65.6,0,0,2-7.173,6.286-8.283S156.53-748.458,159.118-752.526Z"/><path class="e" d="M158.909-749.992s8,10,15-.625"/><path class="q" d="M97.258-759.44a8.682,8.682,0,0,0-1.7,5.066c.133,1.869,2.539,8.149,2.539,8.149l7.592-.532s-1.22-6.508-2.329-7.765S100.031-760.4,97.258-759.44Z"/><path class="q" d="M134.573-706.309c-2.635-3.307-5.211-6.654-7.963-9.866-.959-1.121-1.92-2.243-2.854-3.386-1.162,2.67-2.368,5.554-3.587,8.626-8.714-19.429-13.944-34.172-14.826-36.692-.011-.036-.023-.077-.035-.118-.065-.178-.1-.267-.1-.267l-7.1,1.781-.018.006c.722,20.44,6.68,40.875,14.01,58.617l.1.25a9.972,9.972,0,0,0,18.561-.433c.065-.178.131-.355.2-.533,1.83-4.951,3.8-9.989,5.892-15.039Q135.734-704.845,134.573-706.309Z"/><path class="i" d="M145.437-747.941s-8.874,2.367-12.424,7.691-11.98,24.848-11.98,24.848l12.424,22.186S158.009-735.073,145.437-747.941Z"/><path class="s" d="M122.909-694.617l-2.75-16.375,4.125,11.25"/><path class="a" d="M97.01-785.369l2.975-2.563a.6.6,0,0,1,.78,0l2.93,2.564a8.76,8.76,0,0,1,2.991,6.593V-768.4a2.811,2.811,0,0,1-2.81,2.811h-7.1a2.811,2.811,0,0,1-2.81-2.811v-10.33A8.763,8.763,0,0,1,97.01-785.369Z"/><path class="g" d="M100.327-751.49h0a1.134,1.134,0,0,1-1.134-1.134V-776.19a1.134,1.134,0,0,1,1.134-1.134h0a1.134,1.134,0,0,1,1.134,1.134v23.566A1.134,1.134,0,0,1,100.327-751.49Z"/><rect class="j" width="3.944" height="11.438" rx="0.789" transform="translate(98.355 -760.66)"/><path class="q" d="M99.254-762.583s-2.662-.851-2.07.924c0,0-1.4.851-.185,2.847a1.937,1.937,0,0,0-.37,3.069s2.588,1.258,3.18.074-1.035-2.477-1.035-2.477,1.553,1.146,1.959.518-.554-2.774-.554-2.774,1.331.185,1.4-.665S99.254-762.583,99.254-762.583Z"/><path class="q" d="M103.913-753.191s-.665-5.547-2.144-5.7c-.852-.085-.772,1.939-.551,3.671a2.343,2.343,0,0,0,2.695,2.024Z"/><path class="g" d="M195.406-681.181l-9.283-9.521-5.473-59.161-5.324-2.071-2.219,25H160.043l-2.219-25-5.325,2.071L147.027-690.7l-9.283,9.521a7.988,7.988,0,0,0-2.269,5.539l-.428,87.88H198.1l-.428-87.88A7.992,7.992,0,0,0,195.406-681.181Z"/><line class="e" x2="58" transform="translate(136.659 -591.367)"/><path class="c" d="M171.364-696.835a44.525,44.525,0,0,0-.912-8.062,43.681,43.681,0,0,0-2.36-7.823,32.163,32.163,0,0,0-4.065-7.076,26.583,26.583,0,0,0-5.972-5.585l.285-.46a27.338,27.338,0,0,1,6.42,5.448,33.23,33.23,0,0,1,4.564,7.123,45.228,45.228,0,0,1,2.839,7.982,46.221,46.221,0,0,1,1.359,8.424Z"/><path class="c" d="M182.846-722.55a18.561,18.561,0,0,0-2.106,2.8,37.309,37.309,0,0,0-3.165,6.649,71.945,71.945,0,0,0-2.184,7.006c-.612,2.375-1.137,4.739-1.552,7.2l2.618.32c.221-2.329.569-4.718,1-7.058a70.015,70.015,0,0,1,1.628-6.961,36.131,36.131,0,0,1,2.58-6.62A17.6,17.6,0,0,1,183.456-722,4.353,4.353,0,0,1,182.846-722.55Z"/><rect class="t" width="22.112" height="5.477" rx="1.15" transform="translate(162.288 -701.538)"/><rect class="t" width="18.867" height="15.621" rx="1.014" transform="translate(163.911 -699.104)"/><path class="c" d="M158.941-725.273s-9.129-11.023-13.457-8.453S155.425-725.273,158.941-725.273Z"/><path class="c" d="M161.781-722.5s-3.246-12.239.879-13.051S161.781-722.5,161.781-722.5Z"/><path class="c" d="M162.254-722.568s-14.1-.513-14,3.786C148.392-713.237,162.254-722.568,162.254-722.568Z"/><path class="c" d="M165.906-718.173s-4.733-11.022,1.352-14.336C170.37-734.2,165.906-718.173,165.906-718.173Z"/><path class="c" d="M165.771-718.849s-13.254,2.1-12.646,5.477S162.795-711.546,165.771-718.849Z"/><path class="c" d="M168.679-713.237s.338-15.485,3.313-14.741S172.2-716.482,168.679-713.237Z"/><path class="c" d="M169.828-710.058s-12.239.4-11.9,4.53S169.828-710.058,169.828-710.058Z"/><path class="c" d="M170.775-706.677s-.338-9.67,3.043-10.482S170.775-706.677,170.775-706.677Z"/><path class="c" d="M181.594-719.864s7.98-3.584,10.617-1.352S183.014-718.714,181.594-719.864Z"/><path class="c" d="M179.5-715.941s10.887-3.855,12.645-1.218S182.406-713.575,179.5-715.941Z"/><path class="c" d="M181.594-720s.947-7.709-2.7-9.129S178.146-720.81,181.594-720Z"/><path class="c" d="M179.5-715.941s-2.029-7.912-4.6-7.507S177-715.4,179.5-715.941Z"/><path class="c" d="M176.793-707.556s9.67-7.709,13.66-4.4S179.363-706.745,176.793-707.556Z"/><line class="e" x2="16.25" transform="translate(164.659 -696.617)"/><path class="q" d="M235.232-709.479l-.118-.131c-6.608-7.325-13.138-13.723-18.9-18.988l-13.035,13.035c4.484,3.981,8.844,8.045,13.025,12.118-17.825,5.454-30.048,8.2-30.048,8.2l1.006,7.271a154.927,154.927,0,0,0,41.312-3.047l.706-.142A11.117,11.117,0,0,0,235.232-709.479Z"/><path class="q" d="M187.507-688.132s-9.934,3.964-13.251,3.248c-.74-.159.509-1,2.35-1.783,0,0-5.141.562-5.747.342s6.621-2.6,6.621-2.6-7.98,1.267-8.391.655,7.1-2.521,7.1-2.521-6.422.971-6.783.351,8.514-2.752,8.514-2.752-2.956-2.233-2.125-2.849,4.512.34,5.851.92,6.75-.546,6.75-.546Z"/><path class="i" d="M183.892-748.532c-.051.012-.1.025-.148.038v19.438c7.644,8.634,19.663,19.376,22.629,18.091,4.437-1.923,16.122-12.424,16.122-12.424C204.3-745.87,183.892-748.532,183.892-748.532Z"/><path class="s" d="M224.659-702.867l-8.875-.5,7.875-2.875"/><path class="q" d="M179.279-776.972a3.549,3.549,0,0,0-1.784.1v-2.753a11.4,11.4,0,0,0-11.4-11.4h0a11.4,11.4,0,0,0-11.4,11.4v2.753a3.548,3.548,0,0,0-1.784-.1,3.562,3.562,0,0,0-2.785,4.2c.39,1.929,2.6,4.806,4.528,4.415a1.834,1.834,0,0,0,.218-.067,11.4,11.4,0,0,0,11.225,9.466h0a11.4,11.4,0,0,0,11.226-9.466,1.82,1.82,0,0,0,.217.067c1.929.391,4.139-2.486,4.529-4.415A3.563,3.563,0,0,0,179.279-776.972Z"/><path class="f" d="M151.573-774.57a2.816,2.816,0,0,1,1.178-.019,2.982,2.982,0,0,1,1.126.441,2.281,2.281,0,0,1,.808.931,2.06,2.06,0,0,1,.184,1.177,4.592,4.592,0,0,0-.535-.967,3.17,3.17,0,0,0-.754-.7A7.856,7.856,0,0,0,151.573-774.57Z"/><path class="f" d="M153.038-770.742a1.985,1.985,0,0,1-.373-.841,2.178,2.178,0,0,1,.005-.947,1.7,1.7,0,0,1,.486-.845,1.46,1.46,0,0,1,.847-.4,3.822,3.822,0,0,0-.532.658,2.685,2.685,0,0,0-.284.708A8.435,8.435,0,0,0,153.038-770.742Z"/><path class="f" d="M180.57-774.57a7.856,7.856,0,0,0-2.007.864,3.17,3.17,0,0,0-.754.7,4.592,4.592,0,0,0-.535.967,2.06,2.06,0,0,1,.184-1.177,2.281,2.281,0,0,1,.808-.931,2.982,2.982,0,0,1,1.126-.441A2.816,2.816,0,0,1,180.57-774.57Z"/><path class="f" d="M179.1-770.742a8.359,8.359,0,0,0-.149-1.663,2.685,2.685,0,0,0-.284-.708,3.87,3.87,0,0,0-.532-.658,1.46,1.46,0,0,1,.847.4,1.7,1.7,0,0,1,.486.845,2.178,2.178,0,0,1,0,.947A1.985,1.985,0,0,1,179.1-770.742Z"/><path class="r" d="M174.968-769.186a2.97,2.97,0,0,1-2.97,2.969,2.969,2.969,0,0,1-2.969-2.969A2.969,2.969,0,0,1,172-772.155,2.97,2.97,0,0,1,174.968-769.186Z"/><path class="r" d="M163.107-769.186a2.969,2.969,0,0,1-2.969,2.969,2.969,2.969,0,0,1-2.969-2.969,2.969,2.969,0,0,1,2.969-2.969A2.969,2.969,0,0,1,163.107-769.186Z"/><path class="f" d="M163.168-769.075a7.128,7.128,0,0,0,2.717.892,3.02,3.02,0,0,0,1.327-.2,6.782,6.782,0,0,0,1.3-.69,2.9,2.9,0,0,1-1.067,1.157,2.663,2.663,0,0,1-1.592.4A3.578,3.578,0,0,1,163.168-769.075Z"/><path class="f" d="M165.782-776.5a14.432,14.432,0,0,1,.2,1.716,3.256,3.256,0,0,1-.046.907,2.517,2.517,0,0,1-.381.862c-.325.489-.782.909-.787,1.317.018.439.507.866,1,1.121a1.535,1.535,0,0,1-1.407-1.072,1.362,1.362,0,0,1,.263-.958c.162-.255.341-.478.487-.705a2.661,2.661,0,0,0,.462-1.477A15.471,15.471,0,0,1,165.782-776.5Z"/><path class="f" d="M158.166-777.729a4.072,4.072,0,0,1,1.191-1.021,4.523,4.523,0,0,1,1.476-.553,4.609,4.609,0,0,1,3.06.414.563.563,0,0,1,.234.762.564.564,0,0,1-.593.292l-.034-.006c-.434-.075-.844-.17-1.257-.22a6.3,6.3,0,0,0-1.235-.05,5.118,5.118,0,0,0-1.221.264,4.85,4.85,0,0,0-1.13.57l-.036.027a.333.333,0,0,1-.465-.075A.333.333,0,0,1,158.166-777.729Z"/><circle class="f" cx="1.28" cy="1.28" r="1.28" transform="translate(160.582 -775.5)"/><path class="f" d="M173.02-777.277a4.85,4.85,0,0,0-1.13-.57,5.121,5.121,0,0,0-1.22-.264,6.315,6.315,0,0,0-1.236.05c-.413.05-.823.145-1.257.22l-.033.006a.564.564,0,0,1-.652-.46.566.566,0,0,1,.292-.594,4.611,4.611,0,0,1,3.061-.414,4.518,4.518,0,0,1,1.475.553,4.072,4.072,0,0,1,1.191,1.021.333.333,0,0,1-.05.468.332.332,0,0,1-.4.011Z"/><path class="f" d="M168.537-774.221a1.28,1.28,0,0,0,1.279,1.28,1.28,1.28,0,0,0,1.28-1.28,1.28,1.28,0,0,0-1.28-1.279A1.279,1.279,0,0,0,168.537-774.221Z"/><path class="f" d="M157.417-779.888s-.222,4.955-1.035,5.1-1.627-1.849-1.627-1.849c-1.775-1.035-3.772.666-3.772.666-2.884-5.177-.517-8.431-.517-8.431s-2.662-8.726,5.916-11.832,22.259,5.99,22.259,5.99c4.511,3.328,3.032,15.012,3.032,15.012a3.771,3.771,0,0,0-4.178-1.646s-1.22,2.977-2.255,2.681-.74-5.1-.74-5.1-7.617-.222-11.906-3.55Z"/><path class="p" d="M411.909-413.867c0,3.175-31.139,6-71.963,6s-55.537-2.575-55.537-5.75,33.094-5.75,73.918-5.75S411.909-417.043,411.909-413.867Z"/><path class="f" d="M334.333-422.463l12.907,5.932.076,1.8H327.471a2.715,2.715,0,0,1-2.691-2.812l.231-4.92Z"/><path class="q" d="M322.583-446.387q1.006,11.141,2.484,23.99l9.366-.025s1.119-9.411,2.818-23.965Z"/><path class="f" d="M361.054-422.463l12.907,5.932.076,1.8H354.192a2.715,2.715,0,0,1-2.691-2.812l.231-4.92Z"/><path class="q" d="M349.953-446.387q.736,11.1,1.982,23.916l9.221.148s1.112-9.466,2.8-24.064Z"/><path class="j" d="M322.813-431.892h13.849l20.345-199.965-38.159.181s-7.691,11.947-5.325,35.611C315.669-574.609,321.7-454.181,322.813-431.892Z"/><path class="j" d="M363.784-431.892c2.035-20.109,14.98-147.773,16.887-160.032,2.071-13.311-3.188-39.933-3.188-39.933H357.007l-10.649.591,2.335,199.374Z"/><path class="e" d="M328.076-616.867l-7.333,16.333L326.076-435.2"/><line class="e" y1="40.333" x2="2.333" transform="translate(347.076 -577.201)"/><path class="q" d="M401.147-632.348l-5.395-6.135c-1.231,1.721-1.917,2.644-1.917,2.644l.252.222-5.946,4.351,7.69,6.508,3.5-6.226,0,0Q400.251-631.656,401.147-632.348Z"/><path class="a" d="M429.846-661.97a14.3,14.3,0,0,1-3.561,6.164c-4.686,4.875-18.577,19.269-24.316,24.392l-.822-.934-5.395-6.135-.29-.326,16.269-25.143-41.265-19.524-2.218-20.854s49.547,19.967,59.457,31.5A11.9,11.9,0,0,1,429.846-661.97Z"/><path class="f" d="M378.221-679.742l-2.312-8.625,7.5,11.125Z"/><rect class="q" width="12.644" height="16.764" transform="translate(343.472 -721.255)"/><path class="f" d="M356.112-717.735v5.325s-5.374.788-10.526-4.832"/><path class="a" d="M343.614-710.759h13.245s2.366,4.358,6.951,5.246,10.058,2.662,11.685,7.691,3.254,16.861,2.81,25.883-.822,40.263-.822,40.263H318.848s-1.331-62.449,5.62-71.323c0,0,1.775-2.366,6.952-3.4S340.723-708.166,343.614-710.759Z"/><path class="a" d="M420.5-604.046c9.97,2.778,37.241,11.167,46.375,22.084l-46.3-14.568-16.327-.3,2.419-5.928,6.562-1.475A14.916,14.916,0,0,1,420.5-604.046Z"/><path class="n" d="M348.816-608.831h0a3.09,3.09,0,0,1,3.535-2.57l50.113,7.922a3.09,3.09,0,0,1,2.57,3.535h0a3.091,3.091,0,0,1-3.535,2.57L351.386-605.3A3.09,3.09,0,0,1,348.816-608.831Z"/><rect class="i" width="7.572" height="5.408" rx="0.791" transform="translate(407.083 -603.578) rotate(97.055)"/><path class="a" d="M417.7-597.963c8.544,5.842,32.517,21.312,46.751,21.275l-40.954-26.058-10.739-12.3-2.979,5.668,3.1,5.971A14.9,14.9,0,0,0,417.7-597.963Z"/><path class="n" d="M367.889-649.743h0a3.089,3.089,0,0,0,.309,4.359l38.319,33.252a3.091,3.091,0,0,0,4.36-.309h0a3.089,3.089,0,0,0-.309-4.359l-38.319-33.252A3.091,3.091,0,0,0,367.889-649.743Z"/><rect class="i" width="7.572" height="5.408" rx="0.791" transform="matrix(0.68, -0.733, 0.733, 0.68, 405.452, -612.214)"/><path class="f" d="M419.075-601.242a1.291,1.291,0,0,1-1.291,1.291,1.291,1.291,0,0,1-1.292-1.291,1.291,1.291,0,0,1,1.292-1.292A1.291,1.291,0,0,1,419.075-601.242Z"/><line class="e" x1="23.75" y1="10.5" transform="translate(421.909 -599.451)"/><path class="q" d="M394.648-636.167s-7.516,2-6.748,3.666c1.807,3.916,8.375-2.591,8.375-2.591Z"/><path class="q" d="M386.29-629.664s2.077-1.233,3.115-.455-.779,2.272-.779,2.272,2.272-1.687,2.921-1.3-.52,2.726-.52,2.726,1.493-1.493,2.272-1.169-.649,3.115-.649,3.115,1.428-1.168,1.947-.973-.065,3.115-1.1,3.44-2.337.064-2.531-.909a1.452,1.452,0,0,1-1.558-1.752s-2.077-.13-2.012-1.558C387.393-626.225,384.6-627.523,386.29-629.664Z"/><path class="a" d="M364.994-614.008l-.409.627-4.874,7.478-.438.668s-2.461-1.029-6.236-2.627c-.012-.005-.018-.011-.029-.011q-1.083-.462-2.3-.977c-11.95-5.076-32.615-13.95-36.491-16.3a17.065,17.065,0,0,1-8.187-13.507c-.3-4.632,5.129-43.288,8.779-53.245s14.885-14,14.885-14a7.731,7.731,0,0,1,6.117,7.2l-10.554,59.357Z"/><path class="q" d="M378.428-607.182l1.479.172c-.567-3.87-7.592-2.834-7.592-2.834l-4.458-1.661c-.585-.331-1.7-.96-3.272-1.876l-4.874,7.478q2.785.746,5.608,1.354s4.728,3.283,5.813,3.9a2.435,2.435,0,0,0,2.255-.074,2.331,2.331,0,0,0,2.921.074c2.589,2.022,3.7.616,3.7.616,3.426,1.11,3.747-.123,3.747-.123Z"/><path class="s" d="M314.659-637.117l10.5-1.75-3.5,5.25"/><path class="e" d="M331.909-675.367l-6.75,36.5,12.75,7.25"/><path class="q" d="M358.462-745.021a11.413,11.413,0,0,0-8.093-3.355,11.446,11.446,0,0,0-11.448,11.448v2.634c-.066.01-.132.017-.2.03a3.576,3.576,0,0,0-2.8,4.215,6.778,6.778,0,0,0,3.149,4.209,11.441,11.441,0,0,0,11.294,9.66,11.447,11.447,0,0,0,10.679-7.336,11.306,11.306,0,0,0,.763-4.112v-9.3A11.41,11.41,0,0,0,358.462-745.021Z"/><path class="f" d="M337.845-731.853a2.836,2.836,0,0,1,1.182-.019,2.992,2.992,0,0,1,1.131.443,2.29,2.29,0,0,1,.811.934,2.068,2.068,0,0,1,.184,1.182,4.539,4.539,0,0,0-.537-.971,3.191,3.191,0,0,0-.756-.7A7.933,7.933,0,0,0,337.845-731.853Z"/><path class="f" d="M339.315-728.01a2.011,2.011,0,0,1-.374-.844,2.2,2.2,0,0,1,.005-.951,1.7,1.7,0,0,1,.488-.848,1.456,1.456,0,0,1,.85-.4,3.9,3.9,0,0,0-.534.661,2.648,2.648,0,0,0-.285.711A8.481,8.481,0,0,0,339.315-728.01Z"/><path class="f" d="M350.363-726.337a7.142,7.142,0,0,0,2.727.9,3.012,3.012,0,0,0,1.332-.2,6.775,6.775,0,0,0,1.3-.692,2.919,2.919,0,0,1-1.071,1.162,2.677,2.677,0,0,1-1.6.4A3.587,3.587,0,0,1,350.363-726.337Z"/><path class="f" d="M353.715-733.792a15.621,15.621,0,0,1,.207,1.718,2.672,2.672,0,0,0,.464,1.483c.146.227.327.452.489.708a1.365,1.365,0,0,1,.264.961,1.539,1.539,0,0,1-1.412,1.076c.495-.256.986-.684,1-1.125,0-.41-.463-.832-.789-1.322a2.537,2.537,0,0,1-.384-.865,3.36,3.36,0,0,1-.046-.911A14.587,14.587,0,0,1,353.715-733.792Z"/><path class="f" d="M345.342-735.024a4.088,4.088,0,0,1,1.195-1.025,4.533,4.533,0,0,1,1.481-.555,4.641,4.641,0,0,1,3.073.415.568.568,0,0,1,.235.766.569.569,0,0,1-.6.293l-.034-.006c-.435-.075-.847-.171-1.262-.221a6.277,6.277,0,0,0-1.24-.05,5.1,5.1,0,0,0-1.225.265,4.827,4.827,0,0,0-1.134.572l-.037.027a.334.334,0,0,1-.467-.075A.334.334,0,0,1,345.342-735.024Z"/><path class="f" d="M350.335-731.5a1.284,1.284,0,0,1-1.284,1.284,1.284,1.284,0,0,1-1.285-1.284,1.285,1.285,0,0,1,1.285-1.285A1.284,1.284,0,0,1,350.335-731.5Z"/><path class="f" d="M360.252-734.57a4.827,4.827,0,0,0-1.134-.572,5.115,5.115,0,0,0-1.225-.265,6.29,6.29,0,0,0-1.241.05c-.414.05-.826.146-1.261.221l-.033.005a.567.567,0,0,1-.655-.461.57.57,0,0,1,.293-.6,4.64,4.64,0,0,1,3.073-.415,4.528,4.528,0,0,1,1.48.555,4.092,4.092,0,0,1,1.2,1.025.334.334,0,0,1-.05.47.335.335,0,0,1-.406.011Z"/><circle class="f" cx="1.284" cy="1.284" r="1.284" transform="translate(355.752 -732.787)"/><path class="r" d="M361.811-728.462v.834a11.306,11.306,0,0,1-.763,4.112,2.948,2.948,0,0,1-1.213.26,2.979,2.979,0,0,1-2.976-2.981,2.979,2.979,0,0,1,2.976-2.982A2.935,2.935,0,0,1,361.811-728.462Z"/><circle class="r" cx="2.98" cy="2.98" r="2.98" transform="translate(344.196 -729.219)"/><path class="f" d="M340.028-733.843a3.885,3.885,0,0,1,2.115,3.038s1.109-.221,1.479-3.919a11.46,11.46,0,0,0,2.514-5.99s10.649,5.768,15.678,4.807v2.958a12.554,12.554,0,0,0,2.218-9.688c-1.183-5.4-8.578-10.575-17.748-8.652s-11.684,4.363-11.758,8.726c0,0-5.482,7.8,1.4,12.514a3.738,3.738,0,0,1,1.838-3.834A2.394,2.394,0,0,1,340.028-733.843Z"/></g></svg>