<svg xmlns="http://www.w3.org/2000/svg" width="396.705" height="539.91" viewBox="0 0 396.705 539.91"><defs><style>.a{fill:#516784;opacity:0.1;}.b{fill:#667482;}.c,.i,.s{fill:#fff;}.d{fill:#bf9e6c;}.e{fill:#41352b;}.f{fill:#30383a;}.g{fill:#534741;}.h{fill:#333;}.i{opacity:0.22;}.j{fill:#1a1a1a;}.k{fill:#932c2a;}.l{fill:#a6cedc;}.m{opacity:0.96;}.n{fill:#715e59;}.o{fill:#58a092;}.p{fill:#5f8074;}.q{fill:#489586;}.r,.t,.u{fill:#c5955f;}.r{opacity:0.44;}.s{opacity:0.5;}.u{opacity:0.31;}</style></defs><g transform="translate(-211.999 -72.591)"><g transform="translate(211.999 573.799)"><ellipse class="a" cx="198.352" cy="19.351" rx="198.352" ry="19.351"/></g><g transform="translate(231.35 72.591)"><g transform="translate(0 120.684)"><path class="b" d="M318.983,297.178c-9.632-.753-22.3,4.141-28.72,11.454-4.749,5.411-7.726,12.151-10.63,18.774-8.178,18.647-12.28,36.075-16.82,55.861-2.9,12.617-5.61,25.181-7.864,37.733a396.427,396.427,0,0,0-5.429,41.629c-.11,1.531-.6,5.8-1,10.914-.828,10.707-1.23,25.06,3.186,25.791a4.326,4.326,0,0,0,2.392-.531c5.836-2.57,10.5-6.056,15.674-9.054a54.313,54.313,0,0,1,5.725-2.92,70.482,70.482,0,0,1,12.751-3.993c-7.326.066-8.174-1.351-8.174-1.351s7.778-26.643,13.437-49.867c2.917-11.969,5.272-23.03,5.708-29.067,1.313-18.154,6.24-78.085,6.24-78.085l12.1-22.474,2.047.11-.439-.072C319.654,302.109,319.138,297.583,318.983,297.178Z" transform="translate(-247.999 -297.102)"/><path class="b" d="M464.863,494.723c-.612-11.953-1.268-23.906-2.186-35.838-1.831-23.8-4.7-47.591-10.31-70.8-2.142-8.866-4.678-17.628-7.213-26.386q-4.63-16-9.26-32c-3.836-13.255-10.875-22.784-23.709-27.926a48.411,48.411,0,0,0-7.219-2.228,8.018,8.018,0,0,0-.189.826,6.858,6.858,0,0,1-1.44,3.5l8.551.459s20.365,86.84,20.6,101.663c.09,5.635.672,17.952,1.351,30.931,1.075,20.54,2.394,42.737,2.394,42.737s-10.607-.211-25.987.278c1.135.023,2.271.042,3.4.082,10.666.373,21.523,5.466,31.6,8.9.725.247,1.445.486,2.161.714,4.109,1.305,7.357,4.536,10.706,7.105C463.063,500.536,465.238,502.048,464.863,494.723Z" transform="translate(-319.836 -298.233)"/><g transform="translate(32.079 4.891)"><path class="c" d="M389.6,440c-.679-12.978-1.262-25.3-1.351-30.931-.237-14.823-20.6-101.663-20.6-101.663l-8.551-.459a3.059,3.059,0,0,1-.312.3,2.664,2.664,0,0,1-.943.495,5.009,5.009,0,0,1-2.19-.036l-8.44-1.394-2.047-.11-12.1,22.474s-4.927,59.931-6.24,78.085c-.436,6.037-2.791,17.1-5.708,29.067-5.66,23.224-13.437,49.868-13.437,49.868s.848,1.416,8.174,1.35c4.529-.041,11.53-.647,22.351-2.509.416-.033.827-.063,1.241-.1,8.425-.649,16.487-1.063,23.657-1.324q1.48-.053,2.909-.1c15.38-.489,25.987-.277,25.987-.277S390.677,460.541,389.6,440Z" transform="translate(-307.676 -306.2)"/></g></g><g transform="translate(97.691 133.86)"><g transform="translate(95.533 39.157)"><path class="d" d="M608.183,397.71l8.323,1.219,5.952-4.471,1.584.754-.884,1.976,6-2.326,4.931,1.6,2,6.535-2.588,6.629-6.8,1.35-7.766-2.6-11.473-1.18Z" transform="translate(-607.457 -394.458)"/></g><path class="b" d="M531.166,363.285q.5-3.278,1.113-6.538c-11.68-1.3-23.437-2.425-35.083-3.575-9.409-.929-20.431-3.531-28.342-8.853-8.751-5.886-14.346-15.869-23.643-20.849-4.03-2.159-12.905-3.492-15.1,2.173-1.14,2.941.627,8.217,1.22,11.254a111.36,111.36,0,0,0,2.92,11.612,45.072,45.072,0,0,0,4.413,10.408,56.46,56.46,0,0,0,8.5,9.949,38.6,38.6,0,0,0,8.061,6.721c3.59,2.021,7.727,2.838,11.814,3.358,20.625,2.628,38.07,5.223,62.222,2.5Q529.786,372.329,531.166,363.285Z" transform="translate(-429.735 -321.614)"/></g><g transform="translate(22.002 295.491)"><path class="e" d="M411.061,1036.24v7.076l18.145,9.073,9.073-9.073-9.073-9.073h-1.171l-.292,2Z" transform="translate(-345.411 -812.807)"/><path class="e" d="M319.046,1034.243h-1.253l-9.073,9.073,9.073,9.073,18.145-9.073v-7.076H319.255Z" transform="translate(-298.082 -812.807)"/><path class="f" d="M392.438,629.806c-10.218-2.989-21.288-7.6-31.96-7.5-1.133.01-2.268.041-3.4.068q-1.424.108-2.9.227c-7.152.575-15.187,1.343-23.575,2.361-.412.051-.822.1-1.236.15-10.73,2.335-17.7,3.248-22.219,3.488a70.517,70.517,0,0,0-12.563,4.549,54.381,54.381,0,0,0-5.592,3.169l-.056,11.659L309.387,846h16.772v2.016h.1L344.7,715.188l.077-.748,10.1,133.577h.1V846h16.854L393.2,697.254Z" transform="translate(-288.93 -622.3)"/></g><g transform="translate(32.442 47.12)"><g transform="translate(17.699)"><g transform="translate(36.25 11.229)"><path class="g" d="M416.818,192.133a31.263,31.263,0,0,1,3.806,13.9c.064,1.288.161,2.777,1.191,3.533,1.1.81.149,2.6.977,1.508s3.638-4.893,3.756-6.269a51.794,51.794,0,0,0-.076-9.7c-.285-2.8-.868-5.725-2.684-7.852a15.6,15.6,0,0,0-3.92-3,19.822,19.822,0,0,0-6.5-2.927c-4.039-.745-6.5.738-2.925,3.581A24.959,24.959,0,0,1,416.818,192.133Z" transform="translate(-408.715 -181.139)"/></g><g transform="translate(4.715 12.179)"><path class="d" d="M364.978,248.1l16.657,1.5a103.845,103.845,0,0,0,1.384-14.8c4.827-.866,10.5-2.482,12.12-7.637a17.151,17.151,0,0,0,.518-5.113q.007-10.7.016-21.4a21,21,0,0,0-.854-7.293c-1.484-4.01-5.2-6.386-8.845-7.876-9.293-3.8-20.095-3.6-28.614,1.913a15.719,15.719,0,0,0-5.7,5.895c-2,3.927-1.712,8.763-1.368,13.282q.475,6.257.95,12.514c.364,4.8,1.109,10.319,4.791,12.836,1.954,1.336,4.471,1.572,6.159,3.305C365.171,238.289,363.856,243.76,364.978,248.1Z" transform="translate(-350.049 -182.906)"/></g><g transform="translate(4.857 44.931)"><path class="g" d="M397.462,247.378c-.087-1.322-.68-5.195-2.62-2.75a4.028,4.028,0,0,0-.654,2.388,9.149,9.149,0,0,1-.24,2.521c-.591,1.836-2.58,2.679-4.357,2.655a4.212,4.212,0,0,1-2.055-.483,6.457,6.457,0,0,1-1.567-1.45l-3.447-3.976c-1.975-2.278-5.857-1.271-8.5-.907a16.729,16.729,0,0,0-8.554,3.415c-.249.207-.493.424-.737.641a9.091,9.091,0,0,1-1.89,1.4c-2.344,1.175-5.263-.026-6.925-2.195-.762-.994-1.474-2.275-2.648-2.437A2.4,2.4,0,0,0,351,247.622a7.089,7.089,0,0,0-.642,2.93,21.838,21.838,0,0,0,1.907,10.741c3.451,7.069,10.04,7.908,16.655,7.718l7.845-.226c4.78-.137,9.833-.363,13.843-3.208,3.536-2.51,5.621-6.759,6.458-11.2A27.954,27.954,0,0,0,397.462,247.378ZM380.034,257.5a9.02,9.02,0,0,1-8.093.994c-1.195-.36-.7-2.4.5-2.038a7.252,7.252,0,0,0,6.612-.771C380.1,254.961,381.078,256.781,380.034,257.5Z" transform="translate(-350.314 -243.835)"/></g><path class="g" d="M394.033,170.073a38.545,38.545,0,0,0,.986-5.272,10.1,10.1,0,0,1-5.069.465q-.015-1.538-.032-3.076c-.013-.853-11.364-1.4-12.287-1.469-8.636-.679-16.535-1.327-24.31,3.421-6.641,4.056-10.877,10.085-11.85,17.911-.929,7.477,1.539,17.225,5.829,23.407-.037-1.989-1.193-6.676-.744-8.569a17.045,17.045,0,0,1,1.779-5.416,22.08,22.08,0,0,1,7.641-8.26,42.084,42.084,0,0,1,16.779-5.841c5.378-.788,11.932-1.522,17.259-.1,2.56.684,2.989,1.335,4.52-1.3a44.974,44.974,0,0,0,2.187-5.877Z" transform="translate(-341.278 -160.249)"/></g><g transform="translate(21.016 34.532)"><path class="h" d="M353.52,242.8c2.2-.874,4.521-1.244,6.463-3.09a16,16,0,0,0,3.93-6.33,25.744,25.744,0,0,1,1.536-4.08c1.971-3.54,6.428-5.077,10.469-4.775a10.511,10.511,0,0,1,5.881,2.093c3.714,3.017,4.011,8.862,7.614,12.01,2.557,2.234,6.478,2.814,8.374,5.631a10.969,10.969,0,0,1,1.4,5.36,13.082,13.082,0,0,1-.479,5.877c-1.378,3.459-4.525,4.493-7.779,5.429a63.9,63.9,0,0,1-11.575,2.236,76.488,76.488,0,0,1-24.988-1.68c-5.121-1.213-7-6.055-6.915-10.847a7.712,7.712,0,0,1,1.6-4.743,12.006,12.006,0,0,1,4.47-3.09Z" transform="translate(-347.449 -224.49)"/><path class="i" d="M398.425,258.531a56.889,56.889,0,0,1-14.074-10.087c-2.592-2.515-4.956-4.465-8.824-3.8s-6.638,3.66-8.964,6.575c-4.4,5.51-8.762,9.554-16.139,10.237-1.212.112-1.109,2,.108,1.891a21.719,21.719,0,0,0,10.736-3.732c3.548-2.5,5.6-6.267,8.563-9.33,3.126-3.231,7.385-5.308,11.472-2.185,1.7,1.3,3.1,3.087,4.72,4.487a56.224,56.224,0,0,0,11.543,7.628A.948.948,0,0,0,398.425,258.531Z" transform="translate(-348.427 -233.751)"/></g><path class="j" d="M434.733,209.687c-.538-1.09-2.112-.034-1.578,1.048,3.449,7,6.477,19.27-1.121,24.553a3.692,3.692,0,0,0-.677-.483c-1.164-.607-1.712.271-2.65,1.231a.41.41,0,0,0-.065.683l2.306,2.655a.262.262,0,0,0,.148.106.268.268,0,0,0,.169-.056l1.59-.982a1.3,1.3,0,0,0,.461-1.729C441.664,230.811,438.6,217.518,434.733,209.687Z" transform="translate(-363.911 -182.9)"/><path class="j" d="M356.5,246.416a3.034,3.034,0,0,0-1.714-.406,2.1,2.1,0,0,0-.89.3c-5.435-4.076-7.769-10.25-8.323-16.866-.1-1.2-2-1.273-1.894-.06.621,7.411,3.219,14.1,9.328,18.621.009.006.017.009.025.015,0,.026,0,.053,0,.079,0,3.794,2.736,1.845,3.9-.208a1.178,1.178,0,0,0,.208-.764A1.131,1.131,0,0,0,356.5,246.416Z" transform="translate(-324.687 -191.815)"/><g transform="translate(0 52.891)"><g transform="translate(66.421)"><path class="j" d="M432.912,276.244c1.357.991,4.032.67,5.45.729.378.016,4.749.395,4.837.062.577-2.578.288-5.04.384-7.68,0,.126-6.089-.5-6.692-.534-1.848-.111-3.911.056-4.692,2.1a6.969,6.969,0,0,0-.232,2.979,4.268,4.268,0,0,0,.342,1.651A1.955,1.955,0,0,0,432.912,276.244Z" transform="translate(-431.916 -263.338)"/><path class="h" d="M449.792,258.647l12.848.741c2.52.146,2.467,4.322,2.65,5.957a36.39,36.39,0,0,1-.019,8.262c-.235,2.017-.492,8.564-3.935,8.365l-12.848-.741c-3.275-.189-2.312-6.176-2.26-8.22a84.2,84.2,0,0,1,.7-8.918C447.151,262.424,447.31,258.5,449.792,258.647Z" transform="translate(-438.455 -258.643)"/></g><g transform="translate(0 0.988)"><path class="j" d="M347.716,276.092c-1.236,1.139-3.929,1.125-5.331,1.345-.374.059-4.674.933-4.8.612-.867-2.5-.86-4.974-1.256-7.586.019.125,5.994-1.188,6.588-1.293,1.824-.321,3.893-.389,4.9,1.549a6.972,6.972,0,0,1,.57,2.933,4.246,4.246,0,0,1-.152,1.679A1.952,1.952,0,0,1,347.716,276.092Z" transform="translate(-321.29 -264.418)"/><path class="h" d="M323.035,260.512l-12.68,2.2c-2.487.431-1.958,4.575-1.954,6.219a36.356,36.356,0,0,0,.96,8.206c.463,1.977,1.464,8.452,4.862,7.863l12.68-2.2c3.233-.561,1.594-6.4,1.31-8.423a84.185,84.185,0,0,0-1.713-8.78C326.089,263.964,325.485,260.088,323.035,260.512Z" transform="translate(-308.351 -260.48)"/></g><path class="k" d="M314.256,288.079c1.052.5,1.407-.568,1.434-1.407A28,28,0,0,0,314,277.264a2.845,2.845,0,0,0-.513-1.051.991.991,0,0,0-1.057-.326c-.519.207-.619.888-.622,1.447a27.419,27.419,0,0,0,.694,6.275c.2.858.336,1.7.5,2.552A2.722,2.722,0,0,0,314.256,288.079Z" transform="translate(-309.948 -266.594)"/><path class="k" d="M476.055,270.174c-.929-.7-1.493.271-1.689,1.087a28,28,0,0,0-.245,9.556,2.846,2.846,0,0,0,.29,1.133.992.992,0,0,0,.97.533c.55-.1.786-.745.9-1.291a27.435,27.435,0,0,0,.59-6.286c-.019-.88.015-1.736.023-2.6A2.719,2.719,0,0,0,476.055,270.174Z" transform="translate(-384.88 -263.864)"/></g></g><g transform="translate(125.125 27.315)"><path class="l" d="M659.131,285.286h0a17.883,17.883,0,0,1-15.778-19.765l2.1-18.727,2.295.257A13.323,13.323,0,0,0,662.5,235.988a13.118,13.118,0,0,0-11.511-14.972l-88.328-9.908a13.323,13.323,0,0,0-14.748,11.064,13.118,13.118,0,0,0,11.511,14.972l2.607.292-2.1,18.727a17.883,17.883,0,0,1-19.765,15.778h0a34.585,34.585,0,0,0-38.225,30.514L480.99,489.207A34.585,34.585,0,0,0,511.5,527.433l118.969,13.344A34.585,34.585,0,0,0,668.7,510.263l20.948-186.752A34.585,34.585,0,0,0,659.131,285.286Z" transform="translate(-480.771 -163.925)"/><g class="m" transform="translate(12.955 198.87)"><g transform="translate(19.119)"><path class="n" d="M643.492,604.6s-18.778,17.565-31.214,70.179l13.712,3.727s7.93-46.757,24.209-70.016Z" transform="translate(-573.661 -544.811)"/><g transform="translate(69.376)"><path class="o" d="M759.271,493.8s-48.689-4.047-71.94,12.657-17.093,51.306-17.093,51.306,30.828,16.879,54.079.175S759.271,493.8,759.271,493.8Z" transform="translate(-669.5 -493.369)"/><path class="p" d="M670.384,578.569s1.779.97,4.783,2.211l51.189-42.423L669.815,573.33C670.033,576.573,670.384,578.569,670.384,578.569Z" transform="translate(-669.646 -514.174)"/></g><g transform="translate(0 4.116)"><path class="o" d="M540.781,501.027s-3.447,43.466,11.54,64.159,45.846,15.08,45.846,15.08S613.125,552.7,598.139,532,540.781,501.027,540.781,501.027Z" transform="translate(-540.439 -501.027)"/><path class="p" d="M616.793,605.581s.86-1.591,1.957-4.276l-38.034-45.539,31.4,50.341C615.014,605.9,616.793,605.581,616.793,605.581Z" transform="translate(-559.066 -526.342)"/></g><path class="q" d="M670.874,585.831s52.759,4.62,77.451-31.771C748.326,554.06,726.736,615.606,670.874,585.831Z" transform="translate(-600.76 -521.436)"/></g><path class="r" d="M540.46,704.745c11.783-3.253,25.064-3.654,36.3,1.314,5.54,2.449,10.509,6.146,16.453,7.55,14.64,3.46,28.159-7.9,43.114-9.134,6.254-.516,13.6,1.461,16.143,6.74,1.193,2.479,1.134,5.3,2.232,7.817,2.88,6.592,12.533,8.981,15.852,15.407,2.272,4.4.862,9.781-2.431,13.495s-8.166,6-13.142,7.574c-16.5,5.23-34.725,3.643-52.211,1.512q-24.07-2.933-47.963-7.079c-14.711-2.552-38.058-6.16-47.687-18.252C496.127,717.88,528.354,708.087,540.46,704.745Z" transform="translate(-504.871 -589.996)"/></g><path class="s" d="M575.274,604.658c-6.555-.559-13.3-1.079-19.215-4.232-5.236-2.791-9.8-7.177-13.738-11.563-4.009-4.468-7.349-9.464-8.94-15.312-1.689-6.208-1.989-12.809-2.164-19.207-.376-13.787.514-27.648,1.344-41.405q1.264-20.971,3.37-41.881,2.423-24.055,5.956-47.979c.874-5.944-8.4-6.976-9.269-1.04q-6.578,44.707-9.326,89.861c-.892,14.79-1.745,29.65-1.271,44.47.217,6.766.665,13.573,2.555,20.105a46.22,46.22,0,0,0,9.8,17.469c4.645,5.339,10.034,10.488,16.2,14.029,7.3,4.193,15.409,5.252,23.663,5.955C580.206,614.436,581.269,605.168,575.274,604.658Z" transform="translate(-499.784 -259.676)"/><path class="s" d="M653.478,766.816c-2.726-2-6.065-.646-8.161,1.519a9.162,9.162,0,0,0-2.575,5.717c-.183,2.866,2.2,5.673,5.26,5.141a5.949,5.949,0,0,0,5.069-1.307C656.29,775.184,657.154,769.512,653.478,766.816Z" transform="translate(-555.672 -420.505)"/><path class="t" d="M640.547,132.118c7.908-4.971,17.378-6.764,26.661-7.8,9.855-1.1,19.9-1.463,29.631.434s19.2,6.19,26.07,13.341l-10.792,36.527c-1.648,5.576-1.67,9.6-7.515,11.649-4.568,1.6-9.555,1.51-14.328,1.395-8-.192-16.052-.39-23.882-2.036-6.1-1.282-14.6-3.632-19.037-8.358-3.808-4.057-2.865-11.377-3.49-16.732Q642.205,146.326,640.547,132.118Z" transform="translate(-554.661 -123.406)"/><path class="u" d="M655.894,297.216a8.912,8.912,0,0,0,.526,4.049,6.749,6.749,0,0,0,1.929,2.214c7.14,5.874,16.037,7.563,24.74,8.587,6.679.785,18.387,1.467,22.818-5.8,2.587-4.244,3.269-12.362,4.283-17.3q1.894-9.221,3-18.594c-.2,1.707-13.416,2.232-14.938,2.255a77.939,77.939,0,0,1-14.973-1.359c-9.238-1.663-18.221-4.967-27.5-6.192-.954,4.316.4,8.952.32,13.354C655.994,284.69,656.049,290.954,655.894,297.216Z" transform="translate(-561.55 -188.922)"/></g><g transform="translate(43.798 160.747)"><g transform="translate(95.533 39.157)"><path class="d" d="M507.924,447.73l8.323,1.219,5.952-4.471,1.584.754-.884,1.976,6-2.326,4.931,1.6,2,6.535-2.588,6.629-6.8,1.35-7.766-2.6-11.473-1.18Z" transform="translate(-507.199 -444.478)"/></g><path class="b" d="M430.908,413.3q.5-3.278,1.113-6.538c-11.681-1.3-23.438-2.426-35.083-3.575-9.408-.928-20.43-3.531-28.342-8.853-8.751-5.886-14.346-15.869-23.643-20.849-4.03-2.159-12.9-3.492-15.1,2.173-1.14,2.941.627,8.217,1.22,11.254a111.455,111.455,0,0,0,2.92,11.612,45.068,45.068,0,0,0,4.414,10.409,56.5,56.5,0,0,0,8.5,9.949,38.607,38.607,0,0,0,8.06,6.721c3.591,2.021,7.727,2.838,11.815,3.358,20.625,2.628,38.07,5.223,62.222,2.5Q429.528,422.349,430.908,413.3Z" transform="translate(-329.477 -371.634)"/></g><path class="h" d="M568.406,110.831c-3.783-9.777-7.873-20.085-13.616-28.9-5.268-8.089-13.613-10.18-22.833-9.055-18.423,2.247-33.359,15.333-42.315,30.995-10.472,18.312-13.7,39.4-18.145,59.709-2.21,10.092-4.477,20.644-9.474,29.785-4.693,8.586-12.087,14.76-20.812,19a76,76,0,0,1-14.627,5.22c-4.624,1.168-9.8,2.022-14.451.524-10.258-3.3-8.682-16.217-7.2-24.506.656-3.668-4.961-5.243-5.622-1.55-1.386,7.751-2.614,16.672,1.447,23.869,4.513,8,13.773,9.55,22.154,8.33,18.036-2.624,36.387-12.692,44.851-29.291,4.747-9.31,7.134-19.691,9.355-29.835,2.4-10.948,4.374-22,7.382-32.806,5.219-18.752,14.186-37.842,31.656-48a44.2,44.2,0,0,1,14.36-5.38c4.921-.886,11.166-1.256,15.463,1.765s6.575,8.994,8.826,13.53q4.41,8.887,7.978,18.147C564.125,115.843,569.764,114.339,568.406,110.831Z" transform="translate(-317.365 -72.591)"/></g></g></svg>