<svg xmlns="http://www.w3.org/2000/svg" width="530.206" height="486.184" viewBox="0 0 530.206 486.184"><defs><style>.a{fill:#e8c3af;}.b{fill:#ffb78f;}.c{fill:#fff;}.d{fill:#95cfe5;}.e{fill:#74b9ce;}.f{fill:#e6e6e6;}.g{fill:#f66e62;}.h{fill:#ed473e;}.i{fill:#7d911e;}.j{opacity:0.5;}</style></defs><g transform="translate(613.897 -67.75)"><g transform="translate(-599.569 493.601)"><g transform="translate(43.863)"><path class="a" d="M-551.244,398.579l-9.5-11.329-9.5,11.329v48.65h18.993Z" transform="translate(570.238 -387.25)"/></g><path class="a" d="M-584.154,398.579l-9.5-11.329-9.5,11.329v48.65h18.993Z" transform="translate(603.147 -387.25)"/><g transform="translate(131.59)"><path class="a" d="M-485.426,398.579l-9.5-11.329-9.5,11.329v48.65h18.993Z" transform="translate(504.42 -387.25)"/></g><g transform="translate(87.727)"><path class="a" d="M-518.335,398.579l-9.5-11.329-9.5,11.329v48.65h18.993Z" transform="translate(537.329 -387.25)"/></g><g transform="translate(219.317)"><path class="a" d="M-419.608,398.579l-9.5-11.329-9.5,11.329v48.65h18.993Z" transform="translate(438.601 -387.25)"/></g><g transform="translate(175.454)"><path class="a" d="M-452.517,398.579l-9.5-11.329-9.5,11.329v48.65h18.993Z" transform="translate(471.51 -387.25)"/></g><g transform="translate(307.044)"><path class="a" d="M-353.79,398.579l-9.5-11.329-9.5,11.329v48.65h18.993Z" transform="translate(372.783 -387.25)"/></g><g transform="translate(263.181)"><path class="a" d="M-386.7,398.579l-9.5-11.329-9.5,11.329v48.65H-386.7Z" transform="translate(405.692 -387.25)"/></g><g transform="translate(394.771)"><path class="a" d="M-287.972,398.579l-9.5-11.329-9.5,11.329v48.65h18.993Z" transform="translate(306.965 -387.25)"/></g><g transform="translate(350.908)"><path class="a" d="M-320.881,398.579l-9.5-11.329-9.5,11.329v48.65h18.993Z" transform="translate(339.874 -387.25)"/></g><g transform="translate(482.498)"><path class="a" d="M-222.153,398.579l-9.5-11.329-9.5,11.329v48.65h18.993Z" transform="translate(241.147 -387.25)"/></g><g transform="translate(438.634)"><path class="a" d="M-255.063,398.579l-9.5-11.329-9.5,11.329v48.65h18.993Z" transform="translate(274.056 -387.25)"/></g></g><g transform="translate(-488.636 67.75)"><g transform="translate(6.22)"><g transform="translate(42.95 24.808)"><path d="M-404.83,188.725c-2.211,8-5.855,15.736-11.512,21.811s-13.463,10.375-21.751,10.823-16.929-3.323-21.413-10.308-4.048-17.055,1.731-23.012c-3.8,5.649-12.61,6.4-18.142,2.428s-7.819-11.415-6.923-18.162,4.522-12.854,8.866-18.095c7.785-9.39,17.93-16.508,26.487-25.2s15.789-19.917,15.283-32.1c9.9-1.118,18.635-5.136,27-10.546,4.48,7.04,11.629,11.617,19.416,14.618s15.992,5.033,23.328,9.01a49.9,49.9,0,0,1,25.55,40.463,49.9,49.9,0,0,1-21.174,42.916" transform="translate(483.028 -86.362)"/></g><g transform="translate(171.959 438.158)"><path d="M-302.41,396.483l6.85,47.673h-90.667c-.227-6.508,3.579-12.4,8.524-15.684s10.7-4.5,16.3-5.874,11.337-3.056,15.856-7.056a25.146,25.146,0,0,0,7.967-18.323" transform="translate(386.237 -396.483)"/></g><g transform="translate(0 199.204)"><g transform="translate(0 2.868)"><path class="b" d="M-479.6,219.357l5.839,28.939s-32.255,1.543-34.635-1.791c-1.425-2,.136-3.14.136-3.14s-3.247.55-4.406-1.034a2.621,2.621,0,0,1,.136-3.14s-2.871.064-2.711-2.574c.175-2.884,8.7-7.074,17.361-10.6" transform="translate(515.252 -219.357)"/></g><g transform="translate(2.254 16.45)"><path d="M-512.633,236.49l-.928-1.384a47.213,47.213,0,0,1,12.678-5.559l.443,1.606A46.4,46.4,0,0,0-512.633,236.49Z" transform="translate(513.561 -229.547)"/></g><g transform="translate(6.649 22.412)"><path d="M-509.587,239.245l-.676-1.523a77.168,77.168,0,0,1,10.532-3.7l.414,1.614A76.826,76.826,0,0,0-509.587,239.245Z" transform="translate(510.263 -234.02)"/></g><g transform="translate(21.419 9.282)"><path d="M-490.329,231.028a10.636,10.636,0,0,1-8.853-6.187l1.525-.672a8.93,8.93,0,0,0,7.435,5.2Z" transform="translate(499.182 -224.169)"/></g><g transform="translate(8.758)"><path class="b" d="M-500.072,226.731c-4.553-.781-10.343-4.215-8.117-7.833,2.33-3.785,6.584-.149,11.652.614s14.746.561,14.746.561" transform="translate(508.681 -217.205)"/></g></g><g transform="translate(116.294 39.786)"><path class="b" d="M-388.141,138.294l-.026,15.651-37.866,7.016,1.593-12.534L-428,120.894-406.438,97.6Z" transform="translate(428.001 -97.6)"/></g><g transform="translate(116.403 56.932)"><path d="M-413.054,112.758A32.467,32.467,0,0,1-425.7,134.645l-2.223-17.2,6.423-6.979C-418.666,111.229-415.938,112-413.054,112.758Z" transform="translate(427.919 -110.464)"/></g><g transform="translate(85.821)"><path class="b" d="M-398.774,93.366l-.205,1.73-3.769,32.474s-11.227,19.412-30.289,9.618c-10.58-5.451-18.143-25.047-17.815-41.976.013-.541.031-1.074.056-1.6l.011-.239c0-.105.009-.216.019-.325,0-.051,0-.105.008-.16.043-.617.095-1.234.164-1.845.036-.439.085-.862.149-1.289.069-.556.157-1.11.248-1.654.981-5.793,3.114-10.895,6.643-14.487a17.17,17.17,0,0,1,2.618-2.21,15.441,15.441,0,0,1,1.354-.844c.372-.213.761-.411,1.153-.594a18.489,18.489,0,0,1,3.3-1.164c.107-.023.216-.056.328-.079,10.021-2.438,17.474.011,22.916,4.145,6.874,5.216,10.535,13.143,12.125,17.458.056.156.113.3.165.451l.073.213.14.425c.132.4.245.752.336,1.041.128.4.205.678.245.816C-398.781,93.333-398.774,93.366-398.774,93.366Z" transform="translate(450.864 -67.75)"/></g><g transform="translate(100.583 35.72)"><path d="M-434.29,109.872a3.509,3.509,0,0,1-1.918-.569,3.514,3.514,0,0,1-1.538-2.35l-2.042-12.126,1.643-.277,2.042,12.128a1.815,1.815,0,0,0,.805,1.23,1.812,1.812,0,0,0,1.451.244l.407,1.617A3.537,3.537,0,0,1-434.29,109.872Z" transform="translate(439.788 -94.549)"/></g><g transform="translate(110.493 32.818)"><path d="M-432.282,94.326c.227.9.933,1.5,1.578,1.341s.984-1.025.757-1.927-.933-1.5-1.578-1.341S-432.509,93.424-432.282,94.326Z" transform="translate(432.353 -92.372)"/></g><g transform="translate(92.752 37.275)"><path d="M-445.593,97.67c.227.9.933,1.5,1.578,1.341s.984-1.025.756-1.927-.933-1.5-1.577-1.341S-445.82,96.768-445.593,97.67Z" transform="translate(445.664 -95.716)"/></g><g transform="translate(105.946 26.12)"><path d="M-429.041,87.347a5.029,5.029,0,0,1,1.546.192c.465.156.838.457.857.818.031.594-.848,1.065-1.665,1.342a15.472,15.472,0,0,1-5.593.781,2.434,2.434,0,0,1-1.709-.53c-.706-.905,1.1-1.69,1.857-1.929A15.827,15.827,0,0,1-429.041,87.347Z" transform="translate(435.765 -87.347)"/></g><g transform="translate(88.384 30.233)"><path d="M-443.424,90.513a4.107,4.107,0,0,1,1.352-.04.953.953,0,0,1,.837.628c.1.54-.6,1.089-1.268,1.454a12.946,12.946,0,0,1-4.71,1.485,2,2,0,0,1-1.533-.248c-.717-.728.74-1.693,1.361-2.015A13.179,13.179,0,0,1-443.424,90.513Z" transform="translate(448.941 -90.432)"/></g><g transform="translate(130.919 22.971)"><path class="b" d="M-417.028,89.036a6.11,6.11,0,0,1,4.752-3.941,8.631,8.631,0,0,1,6.164,1.443A11.192,11.192,0,0,1-402,99.6a11.192,11.192,0,0,1-11.957,6.675" transform="translate(417.028 -84.984)"/></g><g transform="translate(134.645 28.069)"><path d="M-410,97.662a9.441,9.441,0,0,0-4.232-6.278l.257-1.518,4.7-1.057.365,1.625-2.95.664a11.146,11.146,0,0,1,3.5,6.276Z" transform="translate(414.233 -88.809)"/></g><g transform="translate(85.916)"><path d="M-399.782,90.322a32.323,32.323,0,0,1-20.925-1.169A32.322,32.322,0,0,1-436.424,75a36.13,36.13,0,0,1-14.368,18.042c0-.051,0-.105.008-.16.043-.617.095-1.234.164-1.845.036-.439.085-.862.149-1.289.069-.556.157-1.11.248-1.654.981-5.793,3.114-10.895,6.643-14.487a17.17,17.17,0,0,1,2.618-2.21,15.441,15.441,0,0,1,1.354-.844c.372-.213.761-.411,1.153-.594a18.489,18.489,0,0,1,3.3-1.164c.107-.023.216-.056.328-.079,10.021-2.438,17.474.011,22.916,4.145C-405.033,78.08-401.372,86.008-399.782,90.322Z" transform="translate(450.792 -67.75)"/></g><g transform="translate(31.869 80.608)"><path class="c" d="M-306.675,209.822a37.186,37.186,0,0,0-12.986,2.928,47.689,47.689,0,0,0-4.5,2.05c-8.669,4.456-19.129,12.913-27.894,28.943-6.45,11.795-19.321,23.969-33.444,34.874-3.787,2.919-7.664,5.753-11.528,8.457-23.76,16.64-87.649-3.206-87.649-3.206l-6.664-39.986,52.65-10.226s3.208-59.133,6.418-67.842,28.879-27.5,28.879-27.5c17.419,16.044,36.213-10.086,36.213-10.086Z" transform="translate(491.342 -128.227)"/></g><g transform="translate(12.078 409.757)"><path d="M-409.924,390.114l-15,45.765-81.262-40.211c2.683-5.934,8.708-9.526,14.6-10.278s11.588.714,17.214,1.966,11.517,2.29,17.342.708a25.147,25.147,0,0,0,15.265-12.889" transform="translate(506.19 -375.175)"/></g><g transform="translate(47.966 163.115)"><path class="d" d="M-253.767,473.642h-75.24l-20.161-146.979-6.486,14.989-53.353,123.281-70.258-33.885,78.217-164.577,7.677-16.158,2.458-5.17,54.934-55.013a41.605,41.605,0,0,1,7.8,4.067c11.877,7.815,21.9,22.176,30.355,40.421C-260.23,315.761-253.767,473.642-253.767,473.642Z" transform="translate(479.265 -190.129)"/></g><g transform="translate(133.86 163.115)"><path class="e" d="M-319.278,234.616c-29.791,27.894-84.785,36.979-84.785,36.979l-6.908-13.582-3.851-7.7,2.458-5.17,54.934-55.013a41.6,41.6,0,0,1,7.8,4.067C-337.756,202.01-327.731,216.372-319.278,234.616Z" transform="translate(414.822 -190.129)"/></g><g transform="translate(118.961 138.366)"><path class="f" d="M-353.709,196.31-411.1,256.493-426,226.46l49.649-40.986,3.461-13.914S-351.028,197.355-353.709,196.31Z" transform="translate(426 -171.561)"/></g><g transform="translate(171.183 249.477)"><path class="e" d="M-379.939,305.09v0l-6.486,14.99-.394-65.161Z" transform="translate(386.82 -254.923)"/></g><g transform="translate(109.956 47.614)"><path class="c" d="M-428.223,103.473a3.183,3.183,0,0,1-.032,4.5,3.183,3.183,0,0,1-4.5-.031" transform="translate(432.756 -103.473)"/></g></g><g transform="translate(0 209.095)"><g transform="translate(55.032 8.86)"><path class="g" d="M-389.141,304.573c-10.256,15.279-21.492,25.7-25.091,23.289l-6.962-5.238-9.223-6.94-48.212-36.274,32.318-48.137,51.049,30.425,9.09,5.418,9.088,5.415C-373.487,274.95-378.882,289.3-389.141,304.573Z" transform="translate(478.63 -231.273)"/></g><g transform="translate(49.222 4.959)"><ellipse class="h" cx="28.99" cy="6.831" rx="28.99" ry="6.831" transform="matrix(0.557, -0.83, 0.83, 0.557, 0, 48.137)"/></g><g transform="translate(2.193 88.342)"><path class="g" d="M-518.273,292.529c9.683-4.749,22.375,1.274,28.347,13.453s2.964,25.9-6.719,30.649" transform="translate(518.273 -290.906)"/></g><g transform="translate(103.077)"><path class="g" d="M-434.967,254.254a13.417,13.417,0,0,1-4.817-4.405,16.39,16.39,0,0,1-2.5-6.151,13.886,13.886,0,0,1-.225-1.679l-.061-.85c-.027-.285,0-.572,0-.857l.027-.862c.013-.288.063-.574.093-.862l.113-.866c.053-.287.124-.573.188-.86a15.166,15.166,0,0,1,3.226-6.428,16.16,16.16,0,0,1,5.835-4.289,18.365,18.365,0,0,1,6.955-1.515,17.64,17.64,0,0,1,7.111,1.346l.849.392a7.022,7.022,0,0,1,.832.432l.81.489.4.248c.129.091.255.189.383.285a16.255,16.255,0,0,1,2.73,2.506,20.577,20.577,0,0,1,3.585,5.958,29.037,29.037,0,0,1,1.7,6.233c.176,1.03.3,2.059.391,3.068s.139,1.983.187,2.954c.1,1.933.105,3.8.189,5.6a49.252,49.252,0,0,0,.421,5.2c.055.42.133.83.207,1.237s.153.8.259,1.186c.088.4.215.782.325,1.174.137.379.251.774.4,1.146a12.981,12.981,0,0,0,5.935,7.195l-1.009,3.176a13.183,13.183,0,0,1-3.118-1.057,14.9,14.9,0,0,1-2.762-1.81,18.769,18.769,0,0,1-4.148-4.976,21.481,21.481,0,0,1-1.426-2.879c-.211-.494-.392-1-.566-1.506s-.323-1-.456-1.5a45.542,45.542,0,0,1-1.189-5.941c-.255-1.942-.468-3.825-.67-5.635-.108-.9-.217-1.794-.355-2.654s-.268-1.689-.452-2.5c-.083-.412-.191-.805-.287-1.206-.113-.391-.215-.786-.336-1.166a19.3,19.3,0,0,0-.8-2.2,13.755,13.755,0,0,0-2.242-3.625,9.777,9.777,0,0,0-1.413-1.293c-.06-.047-.115-.1-.176-.144l-.2-.117-.393-.245a2.2,2.2,0,0,0-.415-.22l-.425-.207a10.226,10.226,0,0,0-3.864-.842,10.5,10.5,0,0,0-7.416,2.658,8.948,8.948,0,0,0-2.19,3.324c-.063.165-.135.328-.193.5l-.143.52c-.044.175-.108.345-.141.525l-.093.541c-.025.181-.084.361-.092.546l-.051.557a8.184,8.184,0,0,0-.036,1.13,12.268,12.268,0,0,0,3.431,8.5Z" transform="translate(442.583 -224.626)"/></g><g transform="translate(0 89.68)"><path class="h" d="M-517.725,292.2c3.991-1.957,12.066,6.33,18.039,18.508s7.579,23.637,3.589,25.594-12.066-6.328-18.039-18.508S-521.716,294.152-517.725,292.2Z" transform="translate(519.918 -291.909)"/></g><g transform="translate(26.849 72.512)"><path class="g" d="M-499.774,304.446l48.8-25.417,27.594,20.762-71.587,17.064Z" transform="translate(499.774 -279.029)"/></g><g transform="translate(103.244 39.285)"><path class="c" d="M-398.214,259.518a120.323,120.323,0,0,1-35.021,55.507l-9.223-6.94A144.894,144.894,0,0,0-407.3,254.1Z" transform="translate(442.458 -254.1)"/></g></g><g transform="translate(179.634 477.692)"><rect class="c" width="88.172" height="1.666"/></g><g transform="translate(23.245 422.978)"><rect class="c" width="1.666" height="87.534" transform="translate(0 1.498) rotate(-64.077)"/></g><g transform="translate(204.833 198.949)"><path class="c" d="M-322.2,282.628a24.515,24.515,0,0,1-13.657-4.261c-9.139-6.011-17.031-18.128-23.46-36.013a176.358,176.358,0,0,1-6.922-25.045l1.639-.3c.083.458,8.544,46.075,29.659,59.962a22.648,22.648,0,0,0,18.18,3.344l.377,1.622A25.588,25.588,0,0,1-322.2,282.628Z" transform="translate(366.24 -217.014)"/></g><g transform="translate(110.228 79.713)"><g transform="translate(0 122.791)"><g transform="translate(3.711)"><path class="b" d="M-424.412,231.2c-5.355,2.357-9.166,1.586-9.984-1.35-.67-2.413,7.655-5.529,15.111-7.1a93.284,93.284,0,0,0,10.554-3.062" transform="translate(434.435 -219.681)"/></g><path class="b" d="M-407.805,219.681l13.719,26.142s-30.529,10.526-33.748,7.991c-1.927-1.519-.75-3.052-.75-3.052s-2.962,1.438-4.518.243a2.62,2.62,0,0,1-.75-3.052s-2.738.866-3.324-1.711c-.641-2.816,6.364-9.226,13.693-15.043" transform="translate(437.219 -219.681)"/><g transform="translate(2.725 18.844)"><path d="M-433.894,243.778l-1.28-1.068a47.3,47.3,0,0,1,10.611-8.892l.876,1.418A46.33,46.33,0,0,0-433.894,243.778Z" transform="translate(435.174 -233.819)"/></g><g transform="translate(8.097 23.937)"><path d="M-430.068,245.419l-1.076-1.273a77.253,77.253,0,0,1,9.072-6.506l.85,1.433A76.669,76.669,0,0,0-430.068,245.419Z" transform="translate(431.144 -237.64)"/></g></g><g transform="translate(22.682)"><path class="c" d="M-374.82,186.209l5.5,17.419-50.882,42.63,19.253,37.588s83.887-16.044,92.6-60.05c7.492-37.849-35.6-92.546-42.63-94.888-8.252-2.75-39.881-.458-39.881-.458" transform="translate(420.201 -127.556)"/></g></g></g><g transform="translate(-613.897 323.55)"><g transform="translate(355.869 13.912)"><path class="i" d="M-283.174,305.18a8.145,8.145,0,0,0,2.9.864c-3.106,14.471-8.941,28.579-8.508,43.348.331,11.183,4.269,21.97,5.2,33.115a38,38,0,0,1-.577,10.276c-.64,3.372-2.8,9.21-5.341,14.639-7.621,14.167-21.379,26.54-34.721,33.891l-.191.167C-340.251,430.9-349,410.8-346.469,392a10.246,10.246,0,0,0,9.063-2.446,10.053,10.053,0,0,0,2.079-11.363,9.8,9.8,0,0,0-5.188-4.712c3.925-8.433,8.706-16.568,11.376-25.474,3.532-11.807,3.188-24.371,4.308-36.645.173-1.91.4-3.839.673-5.758.98-7.151,4.465-21.5,12.089-28.157,7.371-6.435,18.711-10.356,26.471-4.392,4.958,3.812,6.848,10.2,7.128,16.6a7.561,7.561,0,0,0-1.9.076C-287.936,291.014-290.215,301.507-283.174,305.18Z" transform="translate(346.901 -270.105)"/><g transform="translate(14.623 38)"><rect width="180.095" height="1.666" transform="translate(0 177.994) rotate(-81.238)"/></g></g><g transform="translate(0 129.289)"><path class="i" d="M-567.413,457.409s-14.186-108.5-40.955-100.3c-20.659,6.331,23.237,100.3,23.237,100.3" transform="translate(613.897 -356.668)"/><g transform="translate(13.358 16.883)"><rect width="1.666" height="86.743" transform="translate(0 0.442) rotate(-15.378)"/></g></g><g transform="translate(279.975 96.748)"><path class="c" d="M-363.765,359.593a22.272,22.272,0,0,1-15.83,15.592,20.289,20.289,0,0,1-20.687-7.447c-4.414-6.093-4.5-14.806-1.486-22.068l8.9,6.674-4.974-13.227a18.378,18.378,0,0,1,10.7-6.552,20.675,20.675,0,0,1,19.116,6.979A22.385,22.385,0,0,1-363.765,359.593Z" transform="translate(403.842 -332.253)"/><g transform="translate(3.726 15.603)"><rect width="118.831" height="1.666" transform="translate(0 117.557) rotate(-81.602)"/></g></g><g transform="translate(302.215 133.444)"><path class="g" d="M-343,395.442l-12.824,14.764,11.383-3.419c-2.057,10.834-13.842,39.513-19.539,49.584H-386.9c-2.43-33.827,12.25-75.8,39.042-96.586A90.7,90.7,0,0,1-343,395.442Z" transform="translate(387.156 -359.785)"/><g transform="translate(11.202 22.371)"><path d="M-377.1,450.875l-1.655-.181c2.2-20.048,10.428-54.616,19.171-74.125l1.521.682C-366.739,396.617-374.909,430.954-377.1,450.875Z" transform="translate(378.752 -376.569)"/></g></g><g transform="translate(162.448 85.269)"><g transform="translate(34.043)"><path class="i" d="M-462.412,468.4H-422.5a127.53,127.53,0,0,0,10.92-41.908l-13.222,4.353,13.674-16.6a138.241,138.241,0,0,0-1.842-21.03,131.859,131.859,0,0,0-3.471-15.359l-13.357,7.531,9.786-18.184a134.812,134.812,0,0,0-27.043-43.562C-465.881,363.918-471.065,424.795-462.412,468.4Z" transform="translate(466.476 -323.641)"/><g transform="translate(21.881 23.64)"><path d="M-448.418,462.641l-1.642-.285c6.578-37.945,7.081-83.078,1.352-120.728l1.646-.251C-441.306,379.2-441.812,424.528-448.418,462.641Z" transform="translate(450.06 -341.377)"/></g></g><g transform="translate(0 30.755)"><path class="g" d="M-491.794,388.8l15.135,17.427-13.435-4.036c2.429,12.788,16.338,46.641,23.063,58.528h27.055c2.868-39.927-14.459-89.467-46.084-114.007A107.054,107.054,0,0,0-491.794,388.8Z" transform="translate(492.018 -346.715)"/><g transform="translate(14.839 26.468)"><path d="M-458.4,454.2c-2.583-23.525-12.232-64.078-22.481-86.948l1.521-.681c10.312,23.015,20.021,63.8,22.616,87.448Z" transform="translate(480.885 -366.573)"/></g></g></g><g transform="translate(20.536)"><path class="g" d="M-544.532,442.057l-.209-.172c-14.5-7.441-29.614-20.24-38.213-35.158-2.89-5.725-5.385-11.9-6.178-15.488-.077-.344-.147-.686-.217-1.033a8.539,8.539,0,0,0,5.775-2.259,8.51,8.51,0,0,0,1.759-9.623,8.417,8.417,0,0,0-7.631-4.581c1.293-9.7,3.879-19.28,3.879-29.067,0-20-10.7-38.551-12.689-58.449-.837-8.338.376-17.807,6.867-23.112,8.11-6.628,20.366-2.79,28.457,3.857,4.992,4.107,8.494,11.187,10.776,17.851-.113.013-.229.031-.343.049-7.568,1.286-9.847,11.78-2.806,15.452a8.649,8.649,0,0,0,6.818.406q.154,1.06.276,2.117c1.59,13.1,1.62,26.544,5.771,39.065,4.762,14.339,14.688,26.632,18.751,41.19C-517.71,404.487-526.445,429.178-544.532,442.057Z" transform="translate(598.49 -259.667)"/><g transform="translate(27.09 40.347)"><rect width="1.666" height="192.738" transform="matrix(0.983, -0.182, 0.182, 0.983, 0, 0.303)"/></g></g><g transform="translate(396.028 97.24)"><path class="g" d="M-316.772,465.413s18.993-142.284,50.982-132.287S-298.7,465.413-298.7,465.413" transform="translate(316.772 -332.622)"/><g transform="translate(8.858 28.911)"><rect width="108.754" height="1.666" transform="translate(0 103.623) rotate(-72.329)"/></g></g><g transform="translate(425.789 71.632)"><g transform="translate(44.324)"><path class="c" d="M-223.324,346.878a22.272,22.272,0,0,1-20.117,9.437,20.289,20.289,0,0,1-17.03-13.906c-2.137-7.213.686-15.457,5.941-21.306l6.168,9.254-.291-14.128a18.379,18.379,0,0,1,12.273-2.619,20.676,20.676,0,0,1,15.7,12.942A22.387,22.387,0,0,1-223.324,346.878Z" transform="translate(261.189 -313.41)"/></g><g transform="translate(61.366 46.829)"><path class="i" d="M-205.441,370.235a21.609,21.609,0,0,1-3.576,9.859l-16.124-1.449,9.943,7.673q-.776.524-1.6.98a22.266,22.266,0,0,1-22.215-.424,20.287,20.287,0,0,1-9.141-20c2.406-14.058,22.452-23.568,34.339-15.2A20.671,20.671,0,0,1-205.441,370.235Z" transform="translate(248.403 -348.544)"/></g><g transform="translate(0 14.095)"><rect width="159.155" height="1.666" transform="matrix(0.427, -0.904, 0.904, 0.427, 0, 143.946)"/></g><g transform="translate(29.669 62.542)"><rect width="67.484" height="1.666" transform="matrix(0.87, -0.493, 0.493, 0.87, 0, 33.243)"/></g></g><g transform="translate(44.871 54.47)"><g transform="translate(33.462)"><path class="i" d="M-554.514,327.258a22.269,22.269,0,0,0,15.347,16.069,20.288,20.288,0,0,0,20.9-6.811c4.6-5.955,4.946-14.662,2.159-22.014l-9.1,6.4,5.377-13.069a18.378,18.378,0,0,0-10.5-6.876,20.676,20.676,0,0,0-19.321,6.392A22.385,22.385,0,0,0-554.514,327.258Z" transform="translate(555.126 -300.533)"/></g><g transform="translate(0 36.644)"><path class="c" d="M-579.467,342.789a21.608,21.608,0,0,0-.229,10.486l15.559,4.476-12.045,3.561q.534.77,1.134,1.49a22.273,22.273,0,0,0,20.867,7.635,20.291,20.291,0,0,0,15.749-15.343c2.836-13.978-12.418-30.089-26.525-26.58A20.669,20.669,0,0,0-579.467,342.789Z" transform="translate(580.231 -328.026)"/></g><g transform="translate(52.746 13.788)"><rect width="1.666" height="162.768" transform="translate(0 0.193) rotate(-6.639)"/></g><g transform="translate(16.508 51.568)"><rect width="1.666" height="71.537" transform="matrix(0.753, -0.658, 0.658, 0.753, 0, 1.096)"/></g><g transform="translate(71.241 50.932)"><path class="i" d="M-489.773,347.252a21.626,21.626,0,0,1,3.829,9.765l-13.063,9.563,12.534-.808c-.156.6-.341,1.2-.55,1.79a22.269,22.269,0,0,1-16.958,14.358,20.288,20.288,0,0,1-20.072-8.973c-7.48-12.144,1.286-32.526,15.738-34.095A20.673,20.673,0,0,1-489.773,347.252Z" transform="translate(526.782 -338.746)"/></g><g transform="translate(66.757 65.45)"><rect width="71.536" height="1.666" transform="translate(0 66.802) rotate(-69.038)"/></g></g></g><g transform="translate(-570.031 528.589)"><g transform="translate(389.482)"><path class="c" d="M-288.772,438.491s32.259-56.23,44.922,0" transform="translate(288.772 -413.5)"/></g><g transform="translate(17.279)"><path class="g" d="M-568.022,438.491s32.259-56.23,44.922,0" transform="translate(568.022 -413.5)"/></g><g transform="translate(204.547 8.552)"><path class="c" d="M-382.6,436.355s-18.568-36.987-44.922,0" transform="translate(427.522 -419.917)"/></g><g transform="translate(430.183 10.38)"><path class="g" d="M-258.236,435.9s15.073-32.874,28.942,0" transform="translate(258.236 -421.288)"/></g><g transform="translate(0 10.38)"><path class="c" d="M-580.986,435.9s15.073-32.874,28.942,0" transform="translate(580.986 -421.288)"/></g><g transform="translate(101.946 6.664)"><path class="c" d="M-504.5,436.827s24.118-41.235,46.306,0" transform="translate(504.5 -418.5)"/></g></g><g class="j" transform="translate(-594.208 366.525)"><path class="c" d="M-469.837,336.348l-.011-.021c.024-.011.048-.017.072-.029,3.991-1.957,2.383-13.415-3.589-25.594S-487.413,290.239-491.4,292.2c0,0-99.391,38.155-107.721,186.769h152.613Z" transform="translate(599.125 -291.909)"/></g></g></svg>